<?xml version="1.0" encoding="utf-8" ?><svg version="1.1" xmlns = 'http://www.w3.org/2000/svg'><defs><font id='web' horiz-adv-x="1000">
<font-face font-family="web" descent="-436" cap-height="1516" units-per-em="2048" bbox="-256,-485,2628,1966" x-height="1079" ascent="1612" />
<missing-glyph horiz-adv-x="1024" d="M 0 0 L 0 1434 L 1024 1434 L 1024 0 L 0 0 Z M 102 1331 L 102 102 L 922 102 L 922 1331 L 102 1331 Z" /><glyph horiz-adv-x="463" d="" unicode=" " />
<glyph horiz-adv-x="643" d="M 220 414 L 368 1516 L 544 1516 L 304 414 L 220 414 Z M 194 -10 C 161 -10 137 0 121 21 C 105 41 101 70 107 106 C 112 134 124 157 142 175 C 160 193 184 203 216 203 C 248 203 273 193 290 173 C 306 153 312 126 306 90 C 301 60 289 36 271 18 C 253 0 227 -10 194 -10 Z" unicode="!" />
<glyph horiz-adv-x="829" d="M 319 1001 L 246 1001 L 281 1403 L 301 1516 L 442 1516 L 424 1403 L 319 1001 Z M 670 1001 L 598 1001 L 633 1403 L 651 1516 L 795 1516 L 774 1403 L 670 1001 Z" unicode="&#x22;" />
<glyph horiz-adv-x="1450" d="M 532 954 L 451 561 L 844 561 L 926 954 L 532 954 Z M 334 0 L 203 0 L 295 444 L 57 444 L 57 561 L 319 561 L 401 954 L 145 954 L 145 1071 L 426 1071 L 520 1516 L 651 1516 L 557 1071 L 950 1071 L 1044 1516 L 1176 1516 L 1081 1071 L 1327 1071 L 1327 954 L 1057 954 L 975 561 L 1239 561 L 1239 444 L 950 444 L 858 0 L 727 0 L 819 444 L 426 444 L 334 0 Z" unicode="#" />
<glyph horiz-adv-x="1305" d="M 686 1405 C 635 1405 590 1398 551 1384 C 511 1370 478 1352 452 1328 C 426 1304 406 1276 393 1244 C 379 1212 373 1177 373 1141 C 373 1107 379 1078 392 1052 C 405 1026 423 1002 445 982 C 467 961 494 942 524 926 C 554 909 587 893 621 879 L 715 1403 C 710 1403 705 1403 700 1404 C 695 1404 690 1405 686 1405 Z M 975 410 C 975 448 967 482 952 512 C 936 541 916 567 890 590 C 864 613 833 634 799 652 C 764 670 728 688 690 705 L 586 109 C 712 109 809 135 875 186 C 941 237 975 312 975 410 Z M 586 -10 L 571 -10 L 541 -190 L 430 -190 L 463 -2 C 405 6 353 20 309 40 C 265 60 225 83 191 111 C 157 139 127 170 101 205 C 75 239 51 275 31 313 L 152 377 C 162 355 176 331 194 304 C 212 277 234 251 260 226 C 286 200 318 177 356 157 C 393 137 437 123 487 115 L 598 741 C 552 759 506 779 462 801 C 417 822 377 847 343 875 C 309 903 281 937 260 975 C 239 1013 229 1059 229 1112 C 229 1196 246 1265 280 1319 C 314 1373 355 1416 405 1447 C 454 1477 506 1498 561 1510 C 616 1522 665 1528 707 1528 L 731 1528 L 758 1677 L 868 1677 L 838 1516 C 926 1500 1001 1469 1061 1421 C 1121 1373 1168 1310 1204 1231 L 1079 1176 C 1067 1200 1053 1223 1038 1246 C 1022 1269 1004 1290 983 1309 C 962 1328 937 1345 909 1360 C 881 1374 848 1385 811 1393 L 715 838 C 763 818 811 796 859 774 C 907 751 951 724 989 693 C 1027 661 1058 624 1082 581 C 1106 537 1118 486 1118 426 C 1118 330 1097 254 1057 196 C 1017 138 969 94 913 64 C 857 34 798 14 737 4 C 676 -5 626 -10 586 -10 Z" unicode="$" />
<glyph horiz-adv-x="1964" d="M 467 627 C 417 627 373 635 336 653 C 298 670 267 694 243 725 C 218 756 200 793 188 836 C 176 878 170 925 170 975 C 170 1065 182 1146 206 1216 C 230 1286 262 1345 301 1393 C 339 1440 383 1476 433 1501 C 482 1525 532 1538 582 1538 C 632 1538 675 1529 712 1512 C 748 1494 779 1470 803 1439 C 827 1408 844 1371 856 1328 C 868 1284 874 1237 874 1186 C 874 1100 862 1023 840 954 C 818 885 788 826 751 778 C 713 730 670 692 621 666 C 571 640 520 627 467 627 Z M 475 0 L 334 0 L 1489 1516 L 1628 1516 L 475 0 Z M 473 741 C 512 741 548 753 582 777 C 615 801 643 833 667 874 C 691 915 709 963 723 1017 C 736 1071 743 1128 743 1188 C 743 1257 729 1313 703 1357 C 676 1401 633 1423 573 1423 C 534 1423 498 1410 465 1386 C 432 1362 404 1329 380 1289 C 356 1248 337 1200 323 1146 C 309 1092 303 1035 303 977 C 303 907 317 851 345 807 C 373 763 415 741 473 741 Z M 1384 -20 C 1334 -20 1290 -11 1253 6 C 1216 23 1186 47 1162 78 C 1138 109 1120 146 1108 189 C 1096 231 1090 278 1090 328 C 1090 418 1102 499 1126 569 C 1150 639 1181 697 1219 745 C 1257 792 1301 828 1351 852 C 1400 876 1450 889 1501 889 C 1550 889 1593 880 1630 863 C 1666 845 1697 821 1721 791 C 1745 760 1762 723 1774 680 C 1786 636 1792 589 1792 537 C 1792 452 1781 375 1759 306 C 1737 237 1707 179 1670 131 C 1632 83 1589 45 1539 19 C 1489 -6 1438 -20 1384 -20 Z M 1393 92 C 1431 92 1467 104 1500 128 C 1533 152 1561 185 1585 226 C 1609 266 1627 314 1641 368 C 1654 422 1661 479 1661 539 C 1661 609 1647 666 1621 710 C 1594 754 1551 776 1491 776 C 1452 776 1416 763 1383 739 C 1349 715 1321 682 1297 642 C 1273 601 1255 553 1241 499 C 1227 445 1221 388 1221 330 C 1221 295 1224 263 1231 234 C 1238 204 1249 179 1263 158 C 1277 137 1294 121 1316 109 C 1338 97 1363 92 1393 92 Z" unicode="%" />
<glyph horiz-adv-x="1456" d="M 942 1268 C 942 1288 939 1307 934 1326 C 928 1344 919 1361 907 1375 C 894 1389 877 1401 856 1410 C 834 1418 808 1423 776 1423 C 702 1423 645 1396 604 1344 C 563 1291 543 1219 543 1128 C 543 1094 545 1058 551 1022 C 556 985 564 947 575 909 C 624 928 671 948 715 970 C 759 991 798 1015 832 1043 C 865 1070 892 1102 912 1139 C 932 1175 942 1218 942 1268 Z M 598 547 C 574 583 553 619 534 654 C 515 689 498 723 483 756 C 438 736 396 714 356 691 C 316 667 281 641 251 611 C 221 581 197 546 180 507 C 162 467 154 422 154 371 C 154 332 160 296 174 262 C 187 228 208 198 236 174 C 264 149 300 129 344 115 C 388 101 442 94 504 94 C 571 94 632 104 688 124 C 743 144 793 170 838 203 C 802 245 764 294 724 351 C 684 408 642 473 598 547 Z M 504 -29 C 418 -29 343 -18 281 1 C 218 21 166 49 126 84 C 86 118 56 159 37 206 C 17 253 8 303 8 356 C 8 430 20 493 45 547 C 69 600 102 646 142 684 C 182 722 229 755 282 783 C 334 810 388 835 444 858 C 429 902 418 947 410 991 C 402 1035 399 1079 399 1124 C 399 1184 408 1240 426 1292 C 444 1344 469 1388 502 1425 C 534 1462 574 1491 622 1512 C 669 1533 722 1544 780 1544 C 834 1544 880 1536 918 1522 C 956 1507 986 1487 1010 1463 C 1033 1438 1050 1409 1061 1377 C 1071 1345 1077 1311 1077 1276 C 1077 1207 1063 1148 1037 1100 C 1010 1051 975 1009 931 974 C 887 939 838 909 782 883 C 726 857 670 832 612 809 C 626 777 642 744 660 711 C 678 677 697 644 719 610 C 763 542 803 482 839 431 C 875 379 908 335 940 297 C 970 331 997 367 1021 406 C 1045 445 1067 485 1086 525 C 1105 565 1122 604 1136 644 C 1150 684 1161 722 1171 758 L 1305 758 C 1293 714 1279 668 1262 620 C 1245 572 1225 524 1202 477 C 1179 429 1153 383 1123 337 C 1093 291 1060 249 1024 209 C 1064 175 1105 150 1147 135 C 1189 119 1238 111 1292 111 L 1280 -20 C 1208 -20 1145 -10 1090 10 C 1035 30 980 65 924 117 C 866 73 803 37 733 11 C 663 -15 587 -29 504 -29 Z" unicode="&#x26;" />
<glyph horiz-adv-x="477" d="M 319 1001 L 246 1001 L 281 1403 L 301 1516 L 442 1516 L 424 1403 L 319 1001 Z" unicode="'" />
<glyph horiz-adv-x="813" d="M 510 -350 L 432 -418 C 317 -301 229 -174 168 -37 C 106 100 76 245 76 397 C 76 519 91 633 123 738 C 155 842 200 940 260 1031 C 320 1122 393 1209 480 1292 C 567 1375 666 1456 776 1536 L 827 1462 C 739 1395 659 1322 586 1242 C 512 1162 449 1078 397 988 C 345 898 304 803 275 702 C 245 600 231 495 231 385 C 231 314 237 244 250 176 C 263 108 282 43 306 -19 C 330 -81 359 -140 394 -196 C 428 -252 467 -303 510 -350 Z" unicode="(" />
<glyph horiz-adv-x="813" d="M -33 -418 L -86 -346 C 1 -279 81 -206 155 -126 C 229 -46 292 39 345 129 C 398 219 439 315 469 417 C 499 519 514 625 514 735 C 514 805 507 874 495 942 C 482 1009 464 1073 440 1135 C 416 1197 387 1255 353 1311 C 319 1367 280 1418 238 1466 L 311 1534 C 427 1419 516 1293 578 1156 C 639 1019 670 875 670 723 C 670 601 654 487 622 383 C 590 278 544 180 484 88 C 424 -3 351 -90 263 -174 C 175 -257 77 -338 -33 -418 Z" unicode=")" />
<glyph horiz-adv-x="1040" d="M 784 741 L 674 700 L 573 1063 L 352 756 L 262 834 L 528 1100 L 154 1141 L 172 1251 L 539 1161 L 381 1501 L 492 1542 L 592 1180 L 813 1487 L 903 1409 L 637 1143 L 1012 1102 L 993 991 L 627 1081 L 784 741 Z" unicode="*" />
<glyph horiz-adv-x="1303" d="M 698 154 L 573 154 L 573 612 L 119 612 L 119 735 L 573 735 L 573 1194 L 698 1194 L 698 735 L 1153 735 L 1153 612 L 698 612 L 698 154 Z" unicode="+" />
<glyph horiz-adv-x="549" d="M 80 -207 L -6 -207 L 113 193 L 289 193 L 80 -207 Z" unicode="," />
<glyph horiz-adv-x="731" d="M 565 582 L 104 582 L 127 705 L 588 705 L 565 582 Z" unicode="-" />
<glyph horiz-adv-x="549" d="M 146 -10 C 113 -10 89 0 74 21 C 58 41 54 70 60 106 C 65 134 76 157 94 175 C 112 193 137 203 169 203 C 201 203 226 193 243 173 C 259 153 265 126 259 90 C 254 60 242 36 224 18 C 206 0 180 -10 146 -10 Z" unicode="." />
<glyph horiz-adv-x="1126" d="M 66 0 L -86 0 L 1061 1516 L 1212 1516 L 66 0 Z" unicode="/" />
<glyph horiz-adv-x="1317" d="M 557 -29 C 477 -29 408 -14 350 15 C 291 44 243 84 205 136 C 167 188 138 250 120 323 C 101 396 92 476 92 563 C 92 693 107 818 137 937 C 167 1056 211 1160 269 1250 C 326 1339 396 1410 480 1464 C 564 1517 658 1544 764 1544 C 843 1544 912 1529 971 1501 C 1029 1472 1077 1432 1115 1381 C 1153 1330 1181 1269 1199 1197 C 1217 1125 1227 1046 1227 961 C 1227 830 1211 705 1181 585 C 1151 465 1107 359 1050 269 C 993 178 923 106 839 52 C 755 -2 661 -29 557 -29 Z M 563 98 C 646 98 720 122 785 171 C 850 219 904 283 948 363 C 991 443 1024 535 1047 640 C 1069 744 1081 852 1081 963 C 1081 1105 1053 1215 998 1295 C 943 1375 862 1415 756 1415 C 672 1415 598 1391 534 1344 C 469 1296 415 1233 371 1155 C 327 1076 293 985 270 882 C 247 778 236 671 236 561 C 236 488 243 423 257 366 C 271 308 291 260 319 220 C 346 180 380 150 421 129 C 462 108 509 98 563 98 Z" unicode="0" />
<glyph horiz-adv-x="885" d="M 459 0 L 317 0 L 557 1378 L 285 1292 L 285 1417 L 590 1516 L 725 1516 L 459 0 Z" unicode="1" />
<glyph horiz-adv-x="1182" d="M 926 0 L -35 0 L -31 33 C -8 215 57 352 165 443 C 273 534 387 610 507 672 C 627 733 735 797 832 863 C 928 929 977 1028 977 1161 C 977 1197 971 1230 960 1262 C 949 1293 932 1320 910 1343 C 888 1365 859 1383 824 1396 C 788 1408 746 1415 698 1415 C 628 1415 561 1397 495 1361 C 429 1325 366 1264 307 1178 L 209 1251 C 242 1302 278 1346 318 1384 C 357 1421 398 1451 441 1475 C 484 1498 529 1515 575 1527 C 621 1538 667 1544 713 1544 C 781 1544 841 1534 893 1515 C 944 1495 987 1469 1021 1436 C 1055 1403 1080 1364 1097 1319 C 1113 1274 1122 1226 1122 1176 C 1122 1027 1074 912 979 831 C 884 750 778 679 661 618 C 544 556 433 491 327 422 C 221 353 157 256 135 131 L 940 131 L 926 0 Z" unicode="2" />
<glyph horiz-adv-x="1190" d="M 481 -29 C 410 -29 347 -21 293 -7 C 238 7 190 28 149 55 C 108 82 73 115 44 153 C 14 191 -10 234 -31 281 L 86 346 C 122 263 174 201 241 161 C 307 120 388 100 483 100 C 539 100 591 106 639 120 C 686 134 726 155 760 184 C 793 213 819 251 838 297 C 856 343 866 399 866 463 C 866 507 859 547 845 582 C 831 616 808 645 776 669 C 744 693 702 711 649 723 C 596 735 531 741 455 741 L 403 741 L 416 866 L 485 866 C 656 866 779 892 854 946 C 929 999 967 1079 967 1186 C 967 1254 944 1309 900 1351 C 856 1393 778 1415 666 1415 C 606 1415 546 1403 484 1380 C 422 1356 364 1314 311 1253 L 225 1348 C 279 1406 344 1454 421 1490 C 498 1526 584 1544 680 1544 C 760 1544 828 1534 884 1516 C 939 1497 983 1472 1017 1440 C 1051 1408 1075 1372 1090 1331 C 1104 1289 1112 1246 1112 1202 C 1112 1142 1102 1089 1084 1043 C 1065 997 1039 957 1007 924 C 975 891 937 864 893 844 C 849 823 803 808 754 799 C 840 780 905 741 949 681 C 992 621 1014 547 1014 461 C 1014 381 1000 311 973 250 C 946 189 909 138 862 97 C 814 55 758 24 693 3 C 627 -18 557 -29 481 -29 Z" unicode="3" />
<glyph horiz-adv-x="1219" d="M 780 0 L 643 0 L 709 367 L -2 367 L 16 475 L 872 1516 L 1047 1516 L 868 496 L 1124 496 L 1102 367 L 846 367 L 780 0 Z M 874 1337 L 188 496 L 729 496 L 879 1337 L 874 1337 Z" unicode="4" />
<glyph horiz-adv-x="1171" d="M 487 -29 C 413 -29 348 -21 294 -5 C 239 10 192 31 153 57 C 113 83 80 114 54 150 C 27 186 4 224 -14 264 L 102 338 C 118 303 137 271 159 242 C 181 212 207 187 238 166 C 268 144 305 128 347 116 C 389 104 438 98 494 98 C 557 98 614 109 664 133 C 714 157 757 189 792 231 C 826 272 853 321 871 378 C 889 434 899 495 899 561 C 899 659 872 735 820 790 C 768 844 692 872 592 872 C 522 872 458 854 400 818 C 342 782 292 737 252 682 L 150 723 L 346 1516 L 1124 1516 L 1100 1382 L 446 1382 L 311 856 C 345 894 388 927 440 955 C 492 983 553 997 623 997 C 687 997 746 986 799 966 C 851 946 896 917 932 880 C 968 843 997 798 1017 744 C 1037 690 1047 629 1047 563 C 1047 465 1031 379 1000 305 C 968 231 927 169 875 120 C 823 70 764 33 696 8 C 628 -16 559 -29 487 -29 Z" unicode="5" />
<glyph horiz-adv-x="1231" d="M 549 -29 C 478 -29 414 -16 357 8 C 299 33 251 70 211 118 C 171 166 141 225 120 297 C 98 369 88 451 88 543 C 88 688 106 822 142 945 C 178 1068 228 1174 290 1262 C 352 1350 424 1419 508 1469 C 592 1519 680 1544 774 1544 C 863 1544 941 1533 1007 1513 C 1073 1492 1122 1466 1155 1436 L 1085 1323 C 1049 1350 1006 1372 957 1390 C 907 1408 847 1417 776 1417 C 714 1417 654 1401 596 1371 C 538 1341 485 1297 437 1240 C 389 1182 347 1112 313 1028 C 278 944 254 849 240 743 C 259 762 283 784 312 808 C 340 832 373 854 411 875 C 448 895 490 913 536 927 C 582 941 631 948 684 948 C 757 948 820 937 873 917 C 926 896 969 868 1003 833 C 1036 797 1060 755 1076 707 C 1092 658 1100 606 1100 551 C 1100 461 1085 380 1057 308 C 1028 236 989 175 939 125 C 889 75 831 37 764 11 C 697 -15 625 -29 549 -29 Z M 227 541 C 227 463 235 396 252 340 C 269 283 292 237 322 201 C 352 165 387 139 428 122 C 469 104 513 96 561 96 C 613 96 664 105 712 123 C 760 141 802 168 838 204 C 874 240 902 287 924 343 C 945 399 956 464 956 539 C 956 579 950 616 940 651 C 929 685 912 715 888 741 C 864 766 832 786 793 801 C 754 815 707 823 651 823 C 603 823 559 816 517 803 C 475 790 437 774 402 754 C 366 734 334 711 305 686 C 276 660 251 636 229 612 C 228 601 227 589 227 577 C 227 565 227 553 227 541 Z" unicode="6" />
<glyph horiz-adv-x="1104" d="M 258 0 L 111 4 L 973 1382 L 219 1382 L 231 1516 L 1147 1516 L 1126 1391 L 258 0 Z" unicode="7" />
<glyph horiz-adv-x="1243" d="M 543 -29 C 453 -29 374 -18 308 4 C 241 26 186 55 142 91 C 98 127 66 168 44 215 C 22 262 12 310 12 360 C 12 420 24 474 48 522 C 72 569 105 611 147 647 C 189 683 240 714 298 742 C 356 769 419 793 487 815 C 451 835 418 857 386 880 C 354 903 326 928 302 956 C 278 983 260 1013 246 1046 C 232 1078 225 1115 225 1155 C 225 1211 237 1263 263 1311 C 288 1359 322 1400 366 1434 C 410 1468 461 1495 520 1515 C 579 1534 642 1544 709 1544 C 789 1544 859 1533 917 1513 C 975 1492 1023 1465 1061 1432 C 1098 1398 1126 1360 1144 1318 C 1162 1275 1171 1232 1171 1190 C 1171 1130 1159 1079 1135 1037 C 1111 995 1081 959 1044 929 C 1006 899 964 873 916 853 C 868 833 821 815 774 799 C 815 776 855 751 895 725 C 934 699 969 670 999 638 C 1029 606 1054 571 1072 532 C 1090 492 1100 448 1100 399 C 1100 333 1085 274 1057 221 C 1029 168 990 123 941 86 C 891 49 832 21 764 1 C 696 -19 622 -29 543 -29 Z M 1028 1182 C 1028 1210 1022 1239 1010 1268 C 998 1296 980 1322 954 1345 C 928 1368 895 1387 853 1401 C 811 1415 761 1423 702 1423 C 652 1423 607 1416 566 1402 C 524 1388 489 1370 460 1347 C 430 1324 407 1297 391 1266 C 375 1234 367 1201 367 1167 C 367 1132 374 1100 390 1072 C 406 1043 427 1017 454 993 C 480 969 511 946 546 925 C 581 903 618 882 657 862 C 715 881 768 901 814 921 C 860 941 899 964 931 989 C 962 1013 986 1041 1003 1073 C 1019 1104 1028 1140 1028 1182 Z M 160 369 C 160 331 168 296 185 262 C 202 228 227 199 260 174 C 292 149 333 129 381 114 C 429 99 483 92 545 92 C 597 92 647 98 697 111 C 747 123 791 142 829 167 C 867 192 897 224 921 262 C 944 300 956 345 956 395 C 956 437 946 474 926 508 C 906 541 880 571 848 599 C 815 627 778 653 736 677 C 694 701 652 724 608 748 C 540 727 479 705 423 681 C 367 657 320 630 282 600 C 243 570 213 536 192 498 C 170 460 160 417 160 369 Z" unicode="8" />
<glyph horiz-adv-x="1231" d="M 1008 975 C 1008 1051 999 1118 982 1174 C 965 1230 942 1276 912 1312 C 882 1348 847 1374 806 1391 C 765 1408 721 1417 674 1417 C 621 1417 571 1408 523 1390 C 475 1372 433 1346 397 1310 C 361 1274 332 1228 311 1172 C 289 1116 279 1051 279 977 C 279 937 284 899 294 864 C 304 829 321 799 345 774 C 369 748 400 728 438 714 C 476 699 524 692 580 692 C 628 692 673 698 715 712 C 757 725 796 742 832 762 C 867 782 899 805 929 831 C 958 856 984 881 1006 905 C 1006 916 1007 927 1007 939 C 1007 950 1008 962 1008 975 Z M 459 -29 C 370 -29 293 -18 228 2 C 162 22 110 49 72 82 L 150 195 C 184 165 225 141 275 124 C 324 106 385 98 459 98 C 519 98 579 113 637 143 C 695 173 747 217 795 275 C 843 332 884 403 919 487 C 954 571 979 666 993 772 C 974 752 950 730 922 706 C 893 682 860 659 823 639 C 785 619 744 602 698 588 C 652 574 603 567 551 567 C 477 567 414 577 361 598 C 308 618 265 646 231 682 C 197 717 173 759 157 808 C 141 856 133 909 133 965 C 133 1055 147 1136 176 1208 C 204 1280 243 1340 293 1390 C 343 1440 401 1478 468 1504 C 535 1530 607 1544 684 1544 C 755 1544 819 1531 877 1506 C 935 1481 983 1445 1023 1397 C 1063 1349 1093 1289 1115 1218 C 1136 1146 1147 1065 1147 973 C 1147 827 1128 693 1092 570 C 1056 446 1007 341 945 253 C 883 165 810 96 726 46 C 642 -4 553 -29 459 -29 Z" unicode="9" />
<glyph horiz-adv-x="555" d="M 58 0 L 58 0 Z M 148 -10 C 115 -10 91 0 76 21 C 60 41 56 70 62 106 C 67 134 78 157 96 175 C 114 193 139 203 171 203 C 203 203 228 193 245 173 C 261 153 267 126 261 90 C 256 60 244 36 226 18 C 208 0 182 -10 148 -10 Z M 304 875 C 271 875 247 885 232 906 C 216 926 212 955 218 991 C 223 1019 234 1042 252 1060 C 270 1078 295 1088 327 1088 C 359 1088 384 1078 401 1058 C 417 1038 423 1011 417 975 C 412 945 400 921 382 903 C 364 884 338 875 304 875 Z" unicode=":" />
<glyph horiz-adv-x="555" d="M 0 0 L 0 0 Z M 304 875 C 271 875 247 885 232 906 C 216 926 212 955 218 991 C 223 1019 234 1042 252 1060 C 270 1078 295 1088 327 1088 C 359 1088 384 1078 401 1058 C 417 1038 423 1011 417 975 C 412 945 400 921 382 903 C 364 884 338 875 304 875 Z M 80 -207 L -6 -207 L 113 193 L 289 193 L 80 -207 Z" unicode=";" />
<glyph horiz-adv-x="1303" d="M 1171 147 L 88 612 L 88 715 L 1171 1180 L 1171 1047 L 252 664 L 1171 281 L 1171 147 Z" unicode="&#x3C;" />
<glyph horiz-adv-x="1303" d="M 1151 838 L 117 838 L 117 958 L 1151 958 L 1151 838 Z M 1151 371 L 117 371 L 117 492 L 1151 492 L 1151 371 Z" unicode="=" />
<glyph horiz-adv-x="1303" d="M 1184 612 L 100 147 L 100 281 L 1020 664 L 100 1047 L 100 1180 L 1184 715 L 1184 612 Z" unicode="&#x3E;" />
<glyph horiz-adv-x="1083" d="M 481 412 L 367 412 C 369 452 373 488 377 519 C 381 550 386 579 393 606 C 403 646 416 679 432 707 C 448 735 469 759 493 781 C 517 802 546 822 580 841 C 613 859 651 879 694 901 C 723 915 751 929 777 945 C 803 961 826 979 846 1001 C 866 1022 881 1047 893 1077 C 905 1106 911 1142 911 1184 C 911 1217 905 1248 893 1276 C 881 1304 864 1329 840 1349 C 816 1369 785 1385 748 1397 C 710 1409 666 1415 616 1415 C 548 1415 484 1403 424 1379 C 364 1355 302 1313 236 1251 L 156 1348 C 230 1420 306 1470 385 1500 C 463 1529 545 1544 631 1544 C 702 1544 764 1534 818 1516 C 872 1498 916 1473 951 1441 C 986 1409 1012 1373 1030 1331 C 1048 1289 1057 1244 1057 1198 C 1057 1137 1048 1086 1031 1045 C 1013 1003 991 968 963 939 C 935 910 904 885 869 865 C 833 845 798 825 762 807 C 705 777 660 751 627 729 C 594 707 568 682 550 656 C 531 630 517 598 508 560 C 499 522 490 472 481 412 Z M 354 -10 C 321 -10 297 0 282 21 C 266 41 262 70 268 106 C 273 134 284 157 302 175 C 320 193 345 203 377 203 C 409 203 434 193 451 173 C 467 153 473 126 467 90 C 462 60 450 36 432 18 C 414 0 388 -10 354 -10 Z" unicode="?" />
<glyph horiz-adv-x="1778" d="M 881 -29 C 766 -29 660 -9 563 28 C 466 66 383 120 314 189 C 245 257 191 340 152 437 C 113 534 94 641 94 758 C 94 874 114 981 154 1078 C 194 1175 249 1258 319 1327 C 389 1395 473 1449 570 1487 C 667 1525 772 1544 885 1544 C 997 1544 1102 1525 1199 1487 C 1295 1449 1378 1397 1448 1330 C 1518 1262 1573 1181 1613 1087 C 1653 993 1673 890 1673 778 C 1673 706 1664 641 1646 584 C 1628 527 1604 479 1574 440 C 1543 400 1507 370 1465 350 C 1423 329 1377 319 1329 319 C 1263 319 1209 334 1169 364 C 1129 394 1101 431 1087 475 C 1038 430 986 394 930 367 C 874 339 814 326 748 326 C 703 326 662 332 624 346 C 586 359 554 379 527 406 C 499 432 478 466 463 508 C 447 549 440 597 440 653 C 440 730 450 802 471 870 C 492 938 521 996 559 1046 C 597 1096 642 1135 695 1164 C 747 1193 805 1208 868 1208 C 928 1208 979 1197 1022 1176 C 1064 1155 1102 1128 1135 1096 L 1149 1190 L 1268 1190 L 1178 588 C 1170 536 1181 492 1209 458 C 1237 423 1281 406 1339 406 C 1373 406 1405 413 1435 428 C 1465 442 1491 465 1513 495 C 1535 525 1552 564 1565 611 C 1578 657 1585 712 1585 776 C 1585 876 1567 969 1532 1054 C 1497 1138 1449 1211 1387 1271 C 1325 1331 1251 1377 1165 1411 C 1079 1445 985 1462 885 1462 C 784 1462 690 1444 604 1410 C 518 1376 444 1328 382 1266 C 320 1204 271 1129 236 1043 C 201 956 184 861 184 758 C 184 654 201 559 236 472 C 271 385 319 310 381 248 C 443 186 517 137 603 103 C 689 68 782 51 883 51 C 963 51 1036 60 1103 79 C 1169 98 1234 125 1298 160 L 1337 90 C 1273 54 1202 25 1124 3 C 1046 -18 965 -29 881 -29 Z M 764 426 C 816 426 866 435 912 455 C 958 475 1007 509 1057 557 L 1120 985 C 1084 1027 1046 1057 1006 1076 C 965 1094 918 1104 864 1104 C 819 1104 778 1092 741 1068 C 703 1044 671 1013 645 973 C 618 933 597 886 583 832 C 568 778 561 722 561 664 C 561 580 579 520 616 482 C 653 444 702 426 764 426 Z" unicode="@" />
<glyph horiz-adv-x="1358" d="M 90 0 L -59 0 L 735 1522 L 893 1522 L 1149 12 L 1008 -12 L 930 473 L 334 473 L 90 0 Z M 784 1350 L 397 600 L 909 600 L 788 1350 L 784 1350 Z" unicode="A" />
<glyph horiz-adv-x="1382" d="M 666 0 L 61 0 L 328 1516 L 778 1516 C 865 1516 941 1507 1005 1491 C 1069 1475 1122 1452 1164 1422 C 1205 1392 1236 1355 1256 1313 C 1276 1270 1286 1223 1286 1171 C 1286 1107 1275 1052 1255 1006 C 1235 960 1208 921 1176 891 C 1143 861 1105 837 1063 819 C 1021 801 978 787 934 778 L 932 774 C 972 766 1010 753 1044 735 C 1078 717 1108 695 1132 668 C 1156 641 1175 609 1189 572 C 1203 535 1210 493 1210 446 C 1210 374 1196 311 1170 255 C 1144 199 1107 153 1060 115 C 1012 77 955 49 888 29 C 820 9 746 0 666 0 Z M 449 1384 L 354 840 L 721 840 C 779 840 834 845 886 855 C 937 865 981 882 1019 906 C 1056 930 1085 962 1107 1002 C 1128 1042 1139 1091 1139 1151 C 1139 1226 1109 1284 1049 1324 C 989 1364 893 1384 760 1384 L 449 1384 Z M 332 717 L 227 129 L 674 129 C 732 129 785 135 833 147 C 881 159 923 177 957 203 C 991 229 1018 262 1038 303 C 1057 343 1067 392 1067 449 C 1067 538 1031 605 960 650 C 888 694 785 717 651 717 L 332 717 Z" unicode="B" />
<glyph horiz-adv-x="1411" d="M 643 -29 C 555 -29 478 -13 411 17 C 343 48 287 91 241 146 C 195 201 161 267 137 345 C 113 423 102 508 102 600 C 102 739 121 867 161 984 C 201 1100 254 1200 320 1282 C 386 1364 463 1429 551 1475 C 639 1521 731 1544 827 1544 C 975 1544 1087 1511 1165 1447 C 1243 1383 1294 1294 1319 1182 L 1182 1143 C 1165 1230 1129 1296 1073 1342 C 1017 1388 931 1411 817 1411 C 743 1411 671 1392 603 1354 C 534 1316 473 1263 421 1193 C 369 1123 327 1038 295 937 C 263 836 248 723 248 598 C 248 522 256 454 274 393 C 292 331 317 279 351 236 C 385 193 427 160 477 137 C 527 113 585 102 649 102 C 751 102 837 127 908 177 C 979 227 1042 311 1098 428 L 1221 367 C 1159 238 1080 140 985 72 C 889 4 775 -29 643 -29 Z" unicode="C" />
<glyph horiz-adv-x="1432" d="M 467 0 L 61 0 L 328 1516 L 647 1516 C 761 1516 860 1501 946 1473 C 1032 1445 1103 1404 1160 1352 C 1216 1299 1259 1234 1288 1158 C 1316 1082 1331 996 1331 901 C 1331 755 1312 626 1274 514 C 1236 401 1180 307 1107 231 C 1034 155 944 98 836 59 C 728 19 605 0 467 0 Z M 451 1386 L 229 127 L 492 127 C 602 127 700 143 786 175 C 872 207 945 256 1004 320 C 1062 384 1107 463 1138 559 C 1168 655 1184 765 1184 891 C 1184 1047 1140 1169 1053 1256 C 965 1342 829 1386 645 1386 L 451 1386 Z" unicode="D" />
<glyph horiz-adv-x="1217" d="M 989 0 L 61 0 L 328 1516 L 1212 1516 L 1188 1380 L 449 1380 L 358 866 L 905 866 L 905 735 L 336 735 L 229 133 L 1012 133 L 989 0 Z" unicode="E" />
<glyph horiz-adv-x="1137" d="M 207 0 L 61 0 L 328 1516 L 1194 1516 L 1171 1380 L 449 1380 L 356 858 L 887 858 L 887 727 L 334 727 L 207 0 Z" unicode="F" />
<glyph horiz-adv-x="1462" d="M 635 -29 C 545 -29 467 -13 400 18 C 333 49 278 92 234 147 C 190 201 158 266 136 342 C 114 417 104 498 104 586 C 104 737 125 872 168 992 C 211 1111 267 1211 336 1293 C 405 1374 484 1436 572 1479 C 660 1522 750 1544 840 1544 C 988 1544 1102 1510 1181 1443 C 1259 1376 1309 1281 1331 1159 L 1194 1122 C 1178 1222 1141 1295 1082 1341 C 1022 1387 938 1411 829 1411 C 759 1411 689 1393 620 1358 C 550 1322 488 1271 434 1203 C 380 1135 336 1050 302 948 C 268 846 252 728 252 596 C 252 521 260 453 278 392 C 295 330 320 278 354 235 C 388 192 430 159 480 135 C 530 111 587 100 653 100 C 713 100 769 111 821 133 C 873 155 920 186 961 228 C 1001 270 1036 321 1064 382 C 1092 442 1113 511 1126 588 L 768 588 L 791 715 L 1290 715 L 1165 0 L 1034 0 L 1073 231 L 1069 231 C 1048 197 1023 165 995 133 C 966 101 934 74 898 50 C 862 26 821 6 777 -7 C 733 -21 685 -29 635 -29 Z" unicode="G" />
<glyph horiz-adv-x="1479" d="M 207 0 L 61 0 L 328 1516 L 473 1516 L 358 866 L 1159 866 L 1274 1516 L 1419 1516 L 1153 0 L 1008 0 L 1137 733 L 336 733 L 207 0 Z" unicode="H" />
<glyph horiz-adv-x="575" d="M 227 0 L 82 0 L 348 1516 L 494 1516 L 227 0 Z" unicode="I" />
<glyph horiz-adv-x="1004" d="M 332 -29 C 287 -29 247 -24 211 -15 C 175 -6 144 5 116 20 C 88 35 63 53 41 74 C 19 94 0 116 -16 139 L 78 242 C 107 197 142 162 183 138 C 224 114 272 102 328 102 C 364 102 398 106 429 115 C 459 124 486 140 510 162 C 534 184 554 213 571 251 C 588 289 602 336 612 393 L 811 1516 L 956 1516 L 758 379 C 732 236 684 132 613 68 C 542 3 448 -29 332 -29 Z" unicode="J" />
<glyph horiz-adv-x="1348" d="M 1171 12 L 1030 -12 L 629 844 L 301 539 L 207 0 L 61 0 L 328 1516 L 473 1516 L 334 723 L 1182 1516 L 1356 1516 L 737 940 L 1171 12 Z" unicode="K" />
<glyph horiz-adv-x="1137" d="M 938 0 L 61 0 L 328 1516 L 473 1516 L 229 133 L 938 133 L 938 0 Z" unicode="L" />
<glyph horiz-adv-x="1763" d="M 197 0 L 61 0 L 328 1516 L 516 1516 L 780 188 L 784 188 L 1513 1516 L 1704 1516 L 1438 0 L 1292 0 L 1518 1278 L 1513 1278 C 1498 1243 1478 1201 1452 1152 C 1426 1102 1401 1054 1376 1006 L 813 0 L 682 0 L 477 1006 C 468 1054 459 1099 450 1141 C 441 1182 434 1230 428 1284 L 424 1284 L 197 0 Z" unicode="M" />
<glyph horiz-adv-x="1501" d="M 199 0 L 61 0 L 328 1516 L 483 1516 L 1077 256 L 1081 256 L 1303 1516 L 1440 1516 L 1174 0 L 1044 0 L 430 1298 L 426 1298 L 199 0 Z" unicode="N" />
<glyph horiz-adv-x="1499" d="M 643 -29 C 559 -29 483 -13 416 18 C 348 50 291 94 245 151 C 199 207 163 275 139 353 C 114 431 102 517 102 610 C 102 757 123 889 167 1005 C 210 1121 267 1219 338 1299 C 408 1378 489 1439 581 1481 C 672 1523 766 1544 862 1544 C 945 1544 1020 1528 1086 1497 C 1152 1465 1208 1422 1254 1366 C 1300 1310 1335 1242 1360 1164 C 1384 1086 1397 1000 1397 907 C 1397 760 1376 628 1334 512 C 1292 395 1236 297 1166 217 C 1096 137 1016 76 925 34 C 834 -7 740 -29 643 -29 Z M 653 102 C 727 102 800 118 872 152 C 944 186 1008 236 1064 303 C 1120 370 1165 454 1199 556 C 1233 657 1251 775 1251 909 C 1251 985 1241 1055 1223 1117 C 1205 1179 1178 1232 1144 1275 C 1110 1318 1067 1351 1017 1375 C 967 1399 910 1411 846 1411 C 774 1411 703 1394 631 1361 C 559 1327 495 1277 439 1211 C 383 1145 337 1061 301 960 C 265 859 248 742 248 608 C 248 531 257 461 275 399 C 293 336 320 283 355 239 C 389 195 432 162 482 138 C 532 114 589 102 653 102 Z" unicode="O" />
<glyph horiz-adv-x="1296" d="M 61 0 L 328 1516 L 764 1516 C 934 1516 1062 1483 1149 1418 C 1236 1353 1280 1263 1280 1147 C 1280 1055 1263 979 1231 918 C 1199 856 1156 807 1104 771 C 1052 735 991 709 923 694 C 854 679 784 672 713 672 L 324 672 L 207 0 L 61 0 Z M 346 801 L 729 801 C 783 801 835 805 884 814 C 933 823 976 840 1012 864 C 1048 888 1077 923 1098 967 C 1119 1011 1130 1067 1130 1137 C 1130 1217 1099 1277 1037 1319 C 975 1361 878 1382 748 1382 L 449 1382 L 346 801 Z" unicode="P" />
<glyph horiz-adv-x="1499" d="M 1018 -381 L 920 -381 C 784 -381 682 -350 614 -288 C 546 -226 521 -134 539 -14 C 470 -2 408 21 354 56 C 299 91 253 136 216 190 C 179 244 151 306 131 378 C 111 449 102 526 102 610 C 102 757 123 889 167 1005 C 210 1121 267 1219 338 1299 C 408 1378 489 1439 581 1481 C 672 1523 766 1544 862 1544 C 945 1544 1020 1528 1086 1497 C 1152 1465 1208 1422 1254 1366 C 1300 1310 1335 1242 1360 1164 C 1384 1086 1397 1000 1397 907 C 1397 765 1376 637 1336 524 C 1296 411 1242 315 1176 237 C 1110 158 1033 97 946 53 C 859 9 770 -15 678 -20 C 673 -64 675 -101 685 -131 C 694 -161 710 -184 734 -202 C 757 -219 787 -231 825 -239 C 862 -246 906 -250 956 -250 L 1061 -250 L 1018 -381 Z M 655 102 C 727 102 798 118 870 152 C 941 186 1004 236 1060 303 C 1116 370 1161 454 1196 556 C 1231 657 1249 775 1249 909 C 1249 985 1240 1055 1222 1117 C 1204 1179 1177 1232 1143 1275 C 1109 1318 1067 1351 1017 1375 C 967 1399 910 1411 846 1411 C 774 1411 702 1394 630 1361 C 558 1327 494 1277 438 1211 C 382 1145 336 1061 301 960 C 265 859 248 742 248 608 C 248 531 257 461 275 399 C 293 336 320 283 355 239 C 390 195 433 162 483 138 C 533 114 591 102 655 102 Z" unicode="Q" />
<glyph horiz-adv-x="1354" d="M 205 0 L 61 0 L 328 1516 L 768 1516 C 847 1516 918 1508 982 1492 C 1046 1476 1099 1453 1143 1423 C 1187 1392 1220 1353 1244 1307 C 1268 1261 1280 1207 1280 1147 C 1280 1099 1273 1050 1260 1000 C 1246 949 1223 902 1191 860 C 1158 817 1114 780 1058 749 C 1002 718 933 698 850 690 L 1104 12 L 965 -12 L 707 680 L 324 680 L 205 0 Z M 449 1382 L 348 809 L 731 809 C 784 809 835 813 884 821 C 932 829 975 844 1011 867 C 1047 890 1076 923 1098 966 C 1119 1009 1130 1065 1130 1135 C 1130 1216 1099 1277 1037 1319 C 975 1361 880 1382 752 1382 L 449 1382 Z" unicode="R" />
<glyph horiz-adv-x="1309" d="M 567 -29 C 453 -29 347 -9 250 28 C 153 66 70 126 0 207 L 90 319 C 148 249 219 195 303 157 C 387 119 480 100 580 100 C 636 100 689 106 738 118 C 786 130 828 149 864 174 C 899 199 927 231 947 270 C 967 309 977 355 977 408 C 977 503 937 573 859 617 C 781 661 695 702 602 738 C 508 774 422 818 344 870 C 266 921 227 1001 227 1110 C 227 1177 240 1238 266 1292 C 292 1346 329 1391 375 1429 C 421 1466 476 1494 539 1514 C 602 1534 670 1544 743 1544 C 838 1544 928 1526 1012 1491 C 1096 1455 1169 1401 1229 1329 L 1155 1214 C 1095 1285 1029 1336 957 1367 C 884 1397 809 1413 733 1413 C 677 1413 627 1406 583 1392 C 538 1378 500 1359 470 1335 C 439 1310 415 1280 399 1245 C 383 1210 375 1172 375 1130 C 375 1044 414 980 492 939 C 570 898 656 859 749 823 C 842 786 928 740 1006 685 C 1084 629 1124 544 1124 430 C 1124 351 1108 283 1078 225 C 1048 167 1007 119 957 82 C 906 44 847 16 779 -1 C 711 -19 641 -29 567 -29 Z" unicode="S" />
<glyph horiz-adv-x="1243" d="M 561 0 L 416 0 L 657 1380 L 180 1380 L 203 1516 L 1294 1516 L 1294 1380 L 803 1380 L 561 0 Z" unicode="T" />
<glyph horiz-adv-x="1444" d="M 629 -29 C 524 -29 437 -12 369 19 C 300 51 247 94 210 148 C 172 202 149 264 140 336 C 130 407 133 481 147 559 L 313 1516 L 459 1516 L 293 553 C 281 491 278 432 284 378 C 289 323 304 275 330 235 C 356 195 393 163 442 139 C 491 115 553 104 629 104 C 758 104 859 136 931 200 C 1003 264 1049 359 1071 485 L 1251 1516 L 1397 1516 L 1210 459 C 1183 303 1120 182 1021 98 C 921 13 791 -29 629 -29 Z" unicode="U" />
<glyph horiz-adv-x="1329" d="M 598 -6 L 461 -6 L 209 1503 L 348 1528 L 561 193 L 565 193 L 1241 1516 L 1389 1516 L 598 -6 Z" unicode="V" />
<glyph horiz-adv-x="1874" d="M 479 0 L 342 0 L 215 1503 L 356 1528 L 424 596 C 428 526 433 458 438 392 C 442 326 446 267 449 215 L 453 215 C 472 265 495 324 523 390 C 551 456 579 524 608 594 L 993 1516 L 1149 1516 L 1214 586 C 1219 518 1224 453 1228 392 C 1232 331 1234 272 1235 215 L 1239 215 C 1263 275 1288 334 1312 392 C 1336 450 1362 512 1391 580 L 1784 1516 L 1925 1516 L 1268 0 L 1130 0 L 1036 1315 L 1032 1315 L 479 0 Z" unicode="W" />
<glyph horiz-adv-x="1325" d="M 1118 12 L 981 -12 L 645 702 L 82 0 L -76 0 L 590 823 L 272 1503 L 408 1528 L 690 924 L 1165 1516 L 1323 1516 L 748 803 L 1118 12 Z" unicode="X" />
<glyph horiz-adv-x="1245" d="M 561 0 L 416 0 L 532 668 L 188 1503 L 330 1528 L 625 793 L 1165 1516 L 1327 1516 L 678 668 L 561 0 Z" unicode="Y" />
<glyph horiz-adv-x="1255" d="M 1030 0 L -47 0 L -27 111 L 1081 1386 L 270 1386 L 270 1516 L 1284 1516 L 1266 1405 L 162 127 L 1030 127 L 1030 0 Z" unicode="Z" />
<glyph horiz-adv-x="793" d="M 492 -410 L -25 -410 L 313 1516 L 829 1516 L 811 1407 L 438 1407 L 137 -301 L 512 -301 L 492 -410 Z" unicode="[" />
<glyph horiz-adv-x="1110" d="M 932 0 L 793 0 L 178 1516 L 317 1516 L 932 0 Z" unicode="\" />
<glyph horiz-adv-x="793" d="M 408 -410 L -109 -410 L -90 -301 L 285 -301 L 584 1405 L 211 1405 L 229 1516 L 745 1516 L 408 -410 Z" unicode="]" />
<glyph horiz-adv-x="1303" d="M 137 692 L 600 1516 L 705 1516 L 1167 692 L 1036 692 L 653 1370 L 268 692 L 137 692 Z" unicode="^" />
<glyph horiz-adv-x="1006" d="M 827 -258 L -178 -258 L -158 -143 L 848 -143 L 827 -258 Z" unicode="_" />
<glyph horiz-adv-x="1024" d="M 649 1194 L 557 1194 L 279 1513 L 465 1513 L 649 1194 Z" unicode="`" />
<glyph horiz-adv-x="1118" d="M 340 98 C 405 98 472 113 540 143 C 608 173 675 215 739 268 L 797 596 C 667 582 559 564 475 541 C 391 517 325 490 277 460 C 229 430 195 396 177 360 C 159 324 150 286 150 248 C 150 202 166 165 198 138 C 230 111 278 98 340 98 Z M 299 -18 C 204 -18 131 4 81 49 C 31 93 6 151 6 221 C 6 281 20 337 49 391 C 77 444 123 491 187 532 C 250 573 333 608 437 636 C 541 664 667 684 815 696 L 825 752 C 839 824 831 880 799 920 C 767 960 707 981 621 981 C 585 981 548 976 512 968 C 476 960 441 949 409 936 C 376 922 345 907 316 890 C 287 872 262 855 242 838 L 166 928 C 192 948 221 969 254 990 C 287 1010 323 1029 363 1045 C 402 1061 445 1075 491 1085 C 537 1095 587 1100 639 1100 C 708 1100 766 1091 812 1073 C 858 1055 893 1029 919 997 C 944 965 960 926 966 881 C 972 835 971 786 963 733 L 834 0 L 702 0 L 721 154 C 649 98 577 55 504 26 C 431 -3 363 -18 299 -18 Z" unicode="a" />
<glyph horiz-adv-x="1194" d="M 539 -18 C 463 -18 399 -4 345 23 C 291 51 241 89 195 137 L 172 0 L 31 0 L 295 1503 L 440 1528 L 334 926 C 348 943 367 962 391 982 C 414 1002 441 1021 471 1039 C 501 1056 533 1070 569 1082 C 605 1094 642 1100 682 1100 C 741 1100 794 1089 842 1069 C 889 1049 929 1020 962 982 C 995 944 1020 899 1038 845 C 1056 791 1065 730 1065 664 C 1065 550 1050 450 1020 364 C 990 278 950 206 901 150 C 852 94 796 52 733 24 C 669 -4 605 -18 539 -18 Z M 528 100 C 574 100 621 110 668 131 C 715 151 757 184 795 228 C 832 272 862 328 886 397 C 910 466 922 549 922 645 C 922 747 896 829 846 889 C 795 949 727 979 643 979 C 609 979 577 973 545 962 C 513 951 482 937 454 921 C 426 904 399 885 375 864 C 351 843 330 823 313 803 L 215 252 C 255 201 302 163 354 138 C 406 112 464 100 528 100 Z" unicode="b" />
<glyph horiz-adv-x="1067" d="M 455 -23 C 394 -23 339 -12 289 10 C 239 32 196 63 161 103 C 126 143 99 192 80 250 C 60 308 51 372 51 442 C 51 562 69 664 105 748 C 141 832 186 900 240 952 C 294 1004 354 1041 418 1065 C 482 1088 543 1100 600 1100 C 656 1100 705 1093 747 1081 C 789 1068 824 1050 853 1028 C 882 1006 906 979 925 949 C 943 918 959 885 971 850 L 848 797 C 828 861 798 907 758 937 C 718 966 662 981 590 981 C 539 981 490 969 442 946 C 394 923 351 889 315 844 C 278 799 248 743 226 675 C 204 607 193 528 193 440 C 193 334 217 250 265 188 C 313 126 380 96 467 96 C 502 96 534 99 562 107 C 590 115 617 127 641 143 C 665 159 687 181 709 207 C 731 233 753 264 776 301 L 879 236 C 835 156 779 93 712 47 C 645 0 559 -23 455 -23 Z" unicode="c" />
<glyph horiz-adv-x="1194" d="M 473 100 C 530 100 586 114 640 144 C 694 174 749 217 805 274 L 903 825 C 866 869 822 906 770 935 C 718 964 658 979 588 979 C 547 979 503 969 457 951 C 411 932 368 901 330 859 C 291 816 259 759 233 689 C 207 619 195 532 195 430 C 195 376 201 329 215 288 C 228 246 247 212 271 184 C 295 156 325 135 359 121 C 393 107 431 100 473 100 Z M 1165 1528 L 897 0 L 766 0 L 784 156 C 764 132 742 110 716 89 C 690 67 662 49 632 33 C 602 17 570 5 537 -4 C 504 -13 471 -18 438 -18 C 381 -18 329 -8 281 10 C 233 28 193 56 159 92 C 125 128 98 174 79 228 C 60 282 51 345 51 416 C 51 538 67 642 100 729 C 133 816 175 887 226 942 C 277 996 334 1036 397 1062 C 459 1087 520 1100 580 1100 C 621 1100 659 1095 694 1085 C 729 1075 761 1062 790 1047 C 818 1032 844 1016 866 998 C 888 980 908 962 924 946 L 1020 1503 L 1165 1528 Z" unicode="d" />
<glyph horiz-adv-x="1098" d="M 465 -23 C 403 -23 346 -12 295 8 C 244 29 201 59 165 98 C 129 137 101 185 81 242 C 61 298 51 362 51 432 C 51 554 69 658 107 744 C 145 829 191 898 246 950 C 300 1002 359 1040 423 1064 C 487 1088 544 1100 596 1100 C 675 1100 741 1085 795 1055 C 848 1025 889 985 918 935 C 946 885 964 825 970 757 C 976 688 972 615 958 539 L 954 512 L 193 512 C 191 499 190 486 190 473 C 190 460 190 447 190 434 C 190 370 199 316 218 272 C 236 228 260 194 288 168 C 316 142 348 123 383 112 C 418 101 452 96 485 96 C 562 96 628 110 683 140 C 738 169 792 209 844 260 L 920 168 C 886 134 852 106 819 82 C 785 58 751 38 716 22 C 680 6 642 -4 601 -12 C 560 -19 515 -23 465 -23 Z M 211 625 L 836 625 C 842 671 842 715 837 759 C 831 802 819 840 800 873 C 780 905 753 931 718 951 C 682 971 638 981 584 981 C 545 981 506 973 468 958 C 429 943 393 921 360 892 C 327 862 297 825 271 780 C 245 735 225 683 211 625 Z" unicode="e" />
<glyph horiz-adv-x="657" d="M 250 0 L 109 0 L 279 958 L 90 958 L 113 1079 L 299 1079 L 332 1262 C 346 1352 378 1418 429 1458 C 480 1498 548 1518 633 1518 C 639 1518 647 1517 657 1517 C 667 1516 677 1515 687 1514 C 697 1512 707 1511 717 1510 C 727 1508 734 1507 739 1507 L 739 1386 C 730 1388 715 1391 694 1394 C 672 1397 653 1399 637 1399 C 589 1399 552 1388 526 1367 C 500 1346 481 1307 471 1249 L 440 1079 L 662 1079 L 639 958 L 420 958 L 250 0 Z" unicode="f" />
<glyph horiz-adv-x="1139" d="M 498 436 C 542 436 583 442 621 455 C 659 468 693 488 721 514 C 749 540 772 572 788 612 C 804 651 813 697 813 750 C 813 784 807 816 797 845 C 787 874 771 899 750 920 C 728 941 701 957 669 969 C 637 981 599 987 555 987 C 512 987 471 980 433 966 C 394 952 360 932 332 906 C 303 880 280 847 263 807 C 246 767 238 722 238 672 C 238 638 243 606 254 577 C 265 548 281 523 303 502 C 325 481 352 465 385 453 C 417 441 455 436 498 436 Z M 489 328 C 451 328 415 331 381 338 C 347 345 315 356 287 371 C 256 359 233 346 219 331 C 204 316 197 301 197 285 C 197 266 203 251 215 239 C 227 227 245 217 270 209 C 295 200 327 192 367 185 C 406 178 453 170 508 162 C 560 153 610 143 658 131 C 705 119 746 104 782 84 C 817 64 845 40 866 10 C 886 -20 897 -57 897 -102 C 897 -160 883 -208 855 -248 C 827 -288 791 -320 747 -345 C 702 -369 651 -387 593 -398 C 535 -408 477 -414 418 -414 C 322 -414 239 -406 171 -392 C 102 -377 46 -357 4 -333 C -38 -308 -69 -279 -89 -246 C -109 -212 -119 -177 -119 -141 C -119 -99 -110 -63 -93 -33 C -76 -2 -55 23 -30 45 C -5 67 21 84 51 98 C 81 112 108 123 133 131 C 109 143 91 159 78 178 C 65 196 59 218 59 244 C 59 279 71 312 95 343 C 119 374 157 400 211 422 C 175 452 147 489 129 532 C 111 575 102 622 102 674 C 102 742 115 803 142 857 C 169 910 204 954 248 990 C 291 1026 340 1053 396 1072 C 451 1090 507 1100 563 1100 C 628 1100 686 1089 736 1068 C 786 1046 827 1017 860 981 C 900 1006 942 1028 987 1046 C 1032 1064 1079 1078 1128 1087 L 1128 954 C 1098 954 1063 951 1022 945 C 980 939 941 930 905 918 C 918 892 928 864 935 835 C 942 805 946 775 946 745 C 946 675 932 613 906 561 C 879 508 844 464 802 430 C 759 396 710 370 655 353 C 600 336 545 328 489 328 Z M 27 -119 C 27 -144 33 -168 47 -190 C 61 -212 83 -232 115 -249 C 147 -265 189 -278 242 -288 C 294 -298 359 -303 436 -303 C 480 -303 521 -299 560 -293 C 599 -287 633 -277 663 -263 C 692 -249 715 -230 732 -208 C 749 -185 758 -158 758 -127 C 758 -99 751 -75 737 -56 C 723 -37 704 -21 679 -8 C 654 4 624 15 589 23 C 553 31 515 39 473 47 C 429 53 387 60 347 68 C 307 75 270 83 238 92 C 210 84 183 73 157 61 C 131 49 109 34 90 16 C 70 -1 55 -21 44 -44 C 32 -66 27 -91 27 -119 Z" unicode="g" />
<glyph horiz-adv-x="1169" d="M 440 1528 L 332 907 C 354 931 381 954 413 978 C 444 1001 477 1022 513 1040 C 548 1058 585 1072 623 1083 C 661 1094 697 1100 733 1100 C 792 1100 842 1091 883 1075 C 923 1058 955 1035 978 1005 C 1000 975 1015 940 1021 898 C 1027 856 1026 810 1018 760 L 885 0 L 743 0 L 872 743 C 886 818 879 876 850 917 C 821 958 764 979 680 979 C 620 979 559 961 496 927 C 432 892 371 847 311 793 L 172 0 L 31 0 L 295 1503 L 440 1528 Z" unicode="h" />
<glyph horiz-adv-x="492" d="M 348 1315 C 321 1315 301 1323 287 1340 C 273 1356 270 1380 276 1411 C 280 1434 290 1453 306 1468 C 321 1483 343 1491 371 1491 C 397 1491 418 1483 432 1467 C 446 1451 450 1428 444 1399 C 440 1374 430 1354 415 1338 C 400 1322 378 1315 348 1315 Z M 184 0 L 43 0 L 233 1079 L 375 1079 L 184 0 Z" unicode="i" />
<glyph horiz-adv-x="492" d="M 348 1315 C 321 1315 301 1323 287 1340 C 273 1356 270 1380 276 1411 C 280 1434 290 1453 306 1468 C 321 1483 343 1491 371 1491 C 397 1491 418 1483 432 1467 C 446 1451 450 1428 444 1399 C 440 1374 430 1354 415 1338 C 400 1322 378 1315 348 1315 Z M -76 -412 C -106 -412 -130 -411 -148 -409 C -166 -407 -180 -405 -190 -403 L -184 -291 C -175 -293 -162 -294 -145 -296 C -128 -298 -110 -299 -92 -299 C -62 -299 -40 -290 -24 -272 C -8 -254 3 -224 10 -182 L 233 1079 L 375 1079 L 147 -207 C 134 -279 110 -331 75 -363 C 39 -395 -10 -412 -76 -412 Z" unicode="j" />
<glyph horiz-adv-x="1065" d="M 440 1528 L 266 532 L 856 1079 L 1022 1079 L 602 694 L 872 12 L 739 -12 L 496 600 L 236 365 L 172 0 L 31 0 L 295 1503 L 440 1528 Z" unicode="k" />
<glyph horiz-adv-x="492" d="M 307 1503 L 453 1528 L 184 0 L 43 0 L 307 1503 Z" unicode="l" />
<glyph horiz-adv-x="1849" d="M 172 0 L 31 0 L 221 1079 L 346 1079 L 332 907 C 354 931 380 954 410 978 C 440 1001 471 1022 505 1040 C 538 1058 573 1072 609 1083 C 645 1094 681 1100 717 1100 C 807 1100 876 1081 922 1043 C 968 1005 995 956 1004 895 C 1068 958 1135 1008 1205 1045 C 1275 1081 1345 1100 1413 1100 C 1472 1100 1522 1091 1563 1075 C 1603 1058 1635 1035 1658 1005 C 1680 975 1695 940 1701 898 C 1707 856 1706 810 1698 760 L 1563 0 L 1421 0 L 1552 743 C 1565 818 1557 876 1528 917 C 1499 958 1443 979 1360 979 C 1302 979 1244 962 1186 928 C 1128 894 1068 849 1006 795 L 868 0 L 727 0 L 856 743 C 870 818 863 876 834 917 C 805 958 748 979 664 979 C 606 979 547 961 489 927 C 430 892 371 847 311 793 L 172 0 Z" unicode="m" />
<glyph horiz-adv-x="1169" d="M 172 0 L 31 0 L 221 1079 L 346 1079 L 332 907 C 354 931 381 954 413 978 C 444 1001 477 1022 513 1040 C 548 1058 585 1072 623 1083 C 661 1094 697 1100 733 1100 C 792 1100 842 1091 883 1075 C 923 1058 955 1035 978 1005 C 1000 975 1015 940 1021 898 C 1027 856 1026 810 1018 760 L 885 0 L 743 0 L 872 743 C 886 818 879 876 850 917 C 821 958 764 979 680 979 C 620 979 559 961 496 927 C 432 892 371 847 311 793 L 172 0 Z" unicode="n" />
<glyph horiz-adv-x="1161" d="M 473 -23 C 409 -23 352 -12 300 10 C 248 32 203 63 167 103 C 130 143 101 191 81 249 C 61 306 51 370 51 440 C 51 552 68 649 102 732 C 136 815 179 884 233 938 C 286 992 346 1033 413 1060 C 479 1086 545 1100 610 1100 C 673 1100 731 1089 783 1067 C 835 1045 879 1015 916 975 C 952 935 981 886 1001 829 C 1021 771 1032 707 1032 637 C 1032 526 1015 429 981 346 C 947 263 904 194 851 140 C 798 86 738 45 672 18 C 605 -9 539 -23 473 -23 Z M 483 96 C 537 96 589 108 639 133 C 688 158 731 194 769 240 C 806 286 836 343 858 410 C 880 476 891 551 891 633 C 891 679 885 724 874 766 C 863 808 846 845 822 877 C 798 909 768 934 731 953 C 694 971 650 981 600 981 C 545 981 493 968 444 942 C 394 916 351 880 315 834 C 278 787 249 730 227 664 C 205 597 195 523 195 442 C 195 394 200 350 211 308 C 222 266 239 229 262 198 C 285 166 315 141 352 123 C 388 105 432 96 483 96 Z" unicode="o" />
<glyph horiz-adv-x="1194" d="M 528 100 C 569 100 613 109 659 128 C 705 146 748 177 787 219 C 825 261 857 317 883 387 C 909 457 922 542 922 643 C 922 697 915 745 901 787 C 887 829 868 864 844 892 C 819 920 789 942 755 957 C 721 971 683 979 643 979 C 613 979 583 974 553 965 C 523 955 493 943 465 927 C 437 911 409 893 383 872 C 357 850 333 827 313 803 L 215 252 C 257 205 302 168 349 141 C 396 113 456 100 528 100 Z M 102 -399 L -43 -420 L 221 1079 L 362 1079 L 334 926 C 352 948 374 969 400 990 C 426 1011 454 1030 484 1046 C 514 1062 545 1075 578 1085 C 611 1095 644 1100 678 1100 C 736 1100 789 1090 837 1071 C 885 1051 925 1023 959 986 C 993 949 1019 903 1037 849 C 1055 795 1065 733 1065 664 C 1065 544 1049 440 1017 354 C 985 268 943 197 893 142 C 842 87 785 47 722 21 C 659 -5 597 -18 537 -18 C 465 -18 401 -3 345 25 C 289 53 239 91 197 137 L 102 -399 Z" unicode="p" />
<glyph horiz-adv-x="1194" d="M 827 -399 L 682 -420 L 784 156 C 744 108 694 67 632 33 C 570 -1 505 -18 438 -18 C 380 -18 327 -8 279 10 C 231 29 191 57 157 94 C 123 130 97 176 79 230 C 60 284 51 346 51 416 C 51 538 67 643 100 730 C 133 817 175 888 226 942 C 277 996 334 1036 397 1062 C 459 1087 520 1100 580 1100 C 622 1100 661 1095 697 1085 C 733 1075 765 1062 793 1047 C 821 1032 846 1016 868 998 C 890 980 908 962 924 946 L 946 1079 L 1087 1079 L 827 -399 Z M 473 100 C 530 100 586 114 640 144 C 694 174 749 217 805 274 L 903 825 C 866 869 822 906 770 935 C 718 964 658 979 588 979 C 547 979 503 969 457 951 C 411 932 368 901 330 859 C 291 816 259 759 233 689 C 207 619 195 532 195 430 C 195 376 201 329 215 288 C 228 246 247 212 271 184 C 295 156 325 135 359 121 C 393 107 431 100 473 100 Z" unicode="q" />
<glyph horiz-adv-x="791" d="M 172 0 L 31 0 L 221 1079 L 362 1079 L 324 866 L 328 866 C 352 896 380 925 412 953 C 444 981 478 1006 516 1028 C 553 1050 594 1067 638 1080 C 682 1093 730 1100 780 1100 L 797 1100 L 772 971 C 754 971 743 971 737 972 C 731 972 727 973 725 973 C 690 973 653 966 615 954 C 576 942 538 924 500 901 C 462 878 426 850 390 816 C 354 782 323 744 295 702 L 172 0 Z" unicode="r" />
<glyph horiz-adv-x="1016" d="M 403 -18 C 289 -18 198 0 132 38 C 66 75 16 126 -18 190 L 102 254 C 128 209 166 172 216 142 C 265 112 330 98 412 98 C 454 97 492 100 528 108 C 563 115 593 126 618 142 C 643 158 663 178 677 204 C 691 230 698 261 698 297 C 698 359 668 404 609 432 C 549 460 484 486 414 511 C 344 536 279 568 220 606 C 160 644 131 704 131 786 C 131 833 139 876 157 915 C 175 954 199 987 231 1014 C 263 1041 301 1062 347 1077 C 393 1092 444 1100 500 1100 C 554 1100 603 1095 647 1086 C 690 1077 728 1065 761 1049 C 793 1033 822 1015 846 994 C 870 973 891 951 909 928 L 799 848 C 768 890 728 923 678 947 C 628 971 567 983 496 983 C 421 983 365 966 328 932 C 290 898 272 857 272 809 C 272 745 301 700 360 672 C 419 644 484 618 555 594 C 625 569 690 538 749 500 C 808 462 838 402 838 319 C 838 256 825 203 801 160 C 777 116 745 81 705 55 C 665 29 618 10 566 -1 C 513 -12 459 -18 403 -18 Z" unicode="s" />
<glyph horiz-adv-x="729" d="M 504 1479 L 436 1079 L 698 1079 L 676 958 L 414 958 L 295 289 C 289 257 285 230 285 207 C 285 183 289 164 298 149 C 306 134 321 123 341 115 C 361 107 388 104 424 104 C 439 104 456 105 475 108 C 494 110 511 114 526 119 L 526 0 C 518 -2 509 -3 497 -5 C 485 -7 473 -8 460 -10 C 447 -11 434 -12 421 -13 C 408 -13 397 -14 387 -14 C 331 -14 286 -7 252 5 C 217 17 191 36 173 61 C 155 85 145 116 143 152 C 141 188 144 230 152 276 L 272 958 L 86 958 L 106 1079 L 295 1079 L 358 1454 L 504 1479 Z" unicode="t" />
<glyph horiz-adv-x="1165" d="M 360 -23 C 301 -23 252 -14 212 2 C 172 18 140 42 118 72 C 95 102 80 137 74 179 C 68 221 69 267 78 317 L 211 1079 L 352 1079 L 221 334 C 208 258 216 200 245 159 C 274 118 330 98 414 98 C 472 98 533 115 595 150 C 657 184 718 229 778 285 L 918 1079 L 1059 1079 L 868 0 L 743 0 L 758 172 C 735 148 708 124 677 101 C 646 77 613 56 579 38 C 544 20 508 5 470 -6 C 432 -17 396 -23 360 -23 Z" unicode="u" />
<glyph horiz-adv-x="1022" d="M 446 -6 L 305 -6 L 113 1067 L 254 1092 L 403 168 L 408 168 L 877 1079 L 1028 1079 L 446 -6 Z" unicode="v" />
<glyph horiz-adv-x="1509" d="M 373 0 L 244 0 L 117 1067 L 256 1092 L 307 545 C 311 485 317 426 325 367 C 332 308 338 245 342 178 L 346 178 C 362 216 377 250 390 281 C 403 311 416 340 428 368 C 440 395 452 423 465 451 C 477 479 491 511 506 545 L 748 1079 L 879 1079 L 932 535 C 934 502 937 471 940 443 C 942 415 945 387 948 360 C 950 332 953 304 956 275 C 958 245 961 213 965 178 L 969 178 C 984 214 998 246 1011 275 C 1023 304 1036 332 1048 359 C 1060 385 1072 412 1084 440 C 1096 467 1110 497 1124 530 L 1372 1079 L 1511 1079 L 999 0 L 868 0 L 778 887 L 774 887 L 373 0 Z" unicode="w" />
<glyph horiz-adv-x="1026" d="M 80 0 L -70 0 L 401 565 L 156 1067 L 291 1092 L 500 664 L 842 1079 L 993 1079 L 555 553 L 821 12 L 686 -12 L 455 457 L 80 0 Z" unicode="x" />
<glyph horiz-adv-x="1059" d="M 43 -414 C 12 -414 -17 -411 -46 -406 C -74 -401 -97 -395 -115 -389 L -102 -260 C -84 -268 -62 -275 -38 -282 C -13 -289 14 -293 45 -293 C 93 -293 132 -278 164 -250 C 195 -222 223 -185 248 -141 L 324 -6 L 115 1067 L 258 1092 L 424 168 L 428 168 L 913 1079 L 1063 1079 L 362 -182 C 340 -222 318 -256 297 -286 C 275 -316 252 -340 228 -359 C 203 -377 176 -391 146 -400 C 116 -409 81 -414 43 -414 Z" unicode="y" />
<glyph horiz-adv-x="1016" d="M 805 0 L -49 0 L -33 90 L 752 961 L 182 961 L 182 1079 L 958 1079 L 942 987 L 154 117 L 805 117 L 805 0 Z" unicode="z" />
<glyph horiz-adv-x="776" d="M 483 -410 L 383 -410 C 330 -410 286 -403 252 -391 C 217 -378 190 -360 171 -338 C 152 -316 140 -289 136 -257 C 131 -225 132 -190 139 -152 L 211 254 C 219 304 223 345 221 377 C 219 409 212 434 198 452 C 184 470 163 483 135 490 C 107 496 71 500 27 500 L 45 606 C 89 606 127 609 158 616 C 188 622 214 635 234 653 C 254 671 271 697 283 729 C 295 761 306 802 315 852 L 389 1266 C 404 1354 438 1418 490 1457 C 542 1496 611 1516 698 1516 L 821 1516 L 803 1407 L 717 1407 C 661 1407 618 1393 588 1367 C 557 1340 537 1301 528 1249 L 457 846 C 448 796 437 754 423 721 C 409 687 393 660 375 639 C 357 617 336 600 312 588 C 288 575 262 564 233 555 L 231 551 C 257 541 279 530 299 518 C 319 505 334 488 345 467 C 355 445 362 418 364 385 C 366 351 362 310 354 260 L 283 -143 C 273 -195 279 -234 301 -261 C 322 -287 360 -301 416 -301 L 504 -301 L 483 -410 Z" unicode="{" />
<glyph horiz-adv-x="707" d="M 406 -410 L 268 -410 L 268 1516 L 406 1516 L 406 -410 Z" unicode="|" />
<glyph horiz-adv-x="776" d="M 12 -410 L -119 -410 L -100 -301 L -12 -301 C 42 -301 85 -287 115 -261 C 145 -234 165 -195 174 -143 L 248 266 C 256 316 267 357 281 390 C 294 422 310 449 328 470 C 346 490 367 507 391 519 C 415 531 441 541 471 551 L 473 555 C 447 564 424 575 404 587 C 384 599 369 615 358 636 C 346 656 340 683 338 716 C 336 748 339 790 348 840 L 420 1249 C 428 1301 422 1340 402 1367 C 381 1393 343 1407 289 1407 L 201 1407 L 219 1516 L 326 1516 C 378 1516 422 1510 457 1498 C 491 1486 518 1469 536 1447 C 554 1425 566 1399 570 1368 C 574 1336 573 1302 567 1264 L 494 852 C 485 802 481 761 483 729 C 485 697 493 671 507 653 C 521 635 542 622 570 616 C 598 609 634 606 678 606 L 659 500 C 614 500 576 496 546 490 C 515 483 489 470 469 452 C 449 434 432 409 420 377 C 408 345 397 304 389 254 L 313 -166 C 298 -254 265 -317 215 -354 C 165 -391 97 -410 12 -410 Z" unicode="}" />
<glyph horiz-adv-x="1303" d="M 934 549 C 902 551 858 559 802 574 C 746 589 690 605 632 623 C 574 641 519 657 468 672 C 416 687 379 696 356 698 C 325 701 300 696 280 682 C 260 668 248 642 244 602 L 147 614 C 153 690 177 745 218 779 C 258 812 309 827 369 823 C 401 821 444 812 500 797 C 556 781 612 765 670 747 C 728 729 782 713 833 698 C 884 683 921 675 944 674 C 976 672 1002 677 1023 691 C 1044 705 1056 731 1059 770 L 1157 762 C 1149 684 1124 628 1084 594 C 1044 560 994 545 934 549 Z" unicode="~" />
<glyph horiz-adv-x="463" d="" unicode="" />
<glyph horiz-adv-x="641" d="M 449 1526 C 481 1526 505 1515 521 1495 C 536 1474 541 1445 535 1409 C 529 1381 518 1358 500 1340 C 482 1322 457 1313 426 1313 C 393 1313 368 1322 352 1342 C 335 1362 330 1389 336 1425 C 340 1455 352 1479 370 1498 C 388 1516 415 1526 449 1526 Z M 422 1102 L 274 0 L 98 0 L 338 1102 L 422 1102 Z" unicode="" />
<glyph horiz-adv-x="1079" d="M 588 983 C 537 983 487 971 439 948 C 391 924 348 890 311 845 C 274 799 244 743 222 675 C 199 607 188 528 188 440 C 188 378 196 324 212 277 C 228 229 253 191 285 162 L 653 979 C 643 979 632 980 621 981 C 609 982 598 983 588 983 Z M 453 -20 C 426 -20 400 -18 376 -14 C 351 -10 328 -4 307 4 L 184 -264 L 86 -264 L 225 45 C 170 83 127 136 97 204 C 66 272 51 351 51 442 C 51 562 69 664 105 748 C 141 832 186 900 240 952 C 294 1004 354 1041 418 1065 C 482 1088 543 1100 600 1100 C 617 1100 634 1099 650 1098 C 666 1096 682 1094 696 1092 L 795 1307 L 893 1307 L 784 1067 C 843 1042 888 1006 918 959 C 948 911 970 858 985 799 L 858 770 C 846 816 829 855 809 887 C 788 918 761 941 727 956 L 350 117 C 367 109 385 104 405 100 C 425 96 446 94 469 94 C 534 94 592 113 643 151 C 694 189 743 248 791 330 L 899 279 C 876 233 849 192 819 156 C 788 119 754 88 717 62 C 679 36 638 15 594 1 C 550 -12 503 -20 453 -20 Z" unicode="" />
<glyph horiz-adv-x="1227" d="M 182 -29 C 149 -29 119 -24 91 -15 C 63 -6 40 6 20 23 C 0 39 -14 59 -26 83 C -37 107 -43 133 -43 162 C -43 201 -36 236 -23 266 C -10 296 7 321 29 341 C 51 361 78 377 110 387 C 141 397 175 403 211 403 C 259 403 303 392 341 370 C 379 348 415 321 449 291 C 455 318 461 348 466 380 C 470 412 473 447 473 483 C 473 529 469 573 461 616 C 453 658 443 700 432 741 L 176 741 L 195 854 L 397 854 C 383 900 370 945 360 990 C 349 1035 344 1081 344 1128 C 344 1195 355 1255 377 1307 C 399 1359 429 1402 467 1437 C 505 1472 549 1499 599 1517 C 649 1535 702 1544 758 1544 C 834 1544 897 1533 947 1511 C 997 1489 1035 1461 1062 1425 C 1089 1389 1107 1348 1115 1302 C 1123 1256 1126 1208 1122 1159 L 985 1149 C 988 1186 987 1221 983 1254 C 978 1286 967 1315 950 1339 C 932 1363 908 1383 877 1397 C 845 1411 805 1419 756 1419 C 719 1419 684 1413 651 1401 C 618 1389 589 1372 565 1348 C 540 1324 520 1294 506 1257 C 492 1220 485 1176 485 1126 C 485 1083 491 1039 503 994 C 515 948 528 902 543 854 L 877 854 L 858 741 L 575 741 C 584 703 592 664 598 624 C 604 584 608 542 608 498 C 608 442 602 389 592 338 C 582 287 566 241 545 199 C 576 170 609 145 643 125 C 677 104 716 94 758 94 C 818 94 866 115 904 158 C 941 200 965 272 977 373 L 1106 373 C 1098 315 1087 261 1071 212 C 1055 162 1033 120 1006 85 C 979 49 945 21 905 1 C 864 -18 816 -29 760 -29 C 700 -29 647 -16 602 10 C 557 36 517 66 481 100 C 447 60 404 28 354 5 C 303 -17 246 -29 182 -29 Z M 205 301 C 168 301 137 290 111 269 C 85 247 72 214 72 170 C 72 141 82 117 104 99 C 125 81 154 72 190 72 C 232 72 271 81 307 100 C 343 118 373 146 399 184 C 368 216 337 243 306 266 C 275 289 241 301 205 301 Z" unicode="" />
<glyph horiz-adv-x="1303" d="M 650 487 C 685 487 717 493 747 505 C 777 517 802 533 824 555 C 846 576 863 602 875 633 C 887 663 893 697 893 735 C 893 772 887 806 875 837 C 863 867 846 893 824 915 C 802 936 777 953 747 965 C 717 977 685 983 650 983 C 615 983 583 977 553 965 C 523 953 498 936 476 915 C 454 893 438 867 426 837 C 414 806 408 772 408 735 C 408 697 414 663 426 633 C 438 602 454 576 476 555 C 498 533 523 517 553 505 C 583 493 615 487 650 487 Z M 650 391 C 612 391 576 396 542 406 C 508 416 478 431 452 450 L 238 236 L 156 319 L 368 530 C 347 558 331 590 320 624 C 308 658 303 695 303 735 C 303 773 308 809 319 843 C 330 877 345 907 364 935 L 156 1142 L 238 1224 L 447 1017 C 475 1036 506 1051 540 1062 C 574 1073 611 1079 650 1079 C 688 1079 725 1073 761 1062 C 796 1051 827 1036 854 1017 L 1062 1224 L 1144 1142 L 937 935 C 955 908 970 878 981 844 C 992 810 998 774 998 736 C 998 696 992 659 980 625 C 968 590 953 558 933 530 L 1145 319 L 1062 237 L 849 450 C 822 431 791 416 757 406 C 723 396 687 391 650 391 Z" unicode="" />
<glyph horiz-adv-x="1241" d="M 559 0 L 414 0 L 459 258 L 78 258 L 98 373 L 479 373 L 514 569 L 133 569 L 154 682 L 530 682 L 186 1516 L 338 1516 L 625 793 L 1161 1516 L 1321 1516 L 684 682 L 1065 682 L 1044 569 L 659 569 L 625 373 L 1010 373 L 989 258 L 604 258 L 559 0 Z" unicode="" />
<glyph horiz-adv-x="707" d="M 406 678 L 268 678 L 268 1516 L 406 1516 L 406 678 Z M 406 -410 L 268 -410 L 268 428 L 406 428 L 406 -410 Z" unicode="" />
<glyph horiz-adv-x="1067" d="M 788 541 C 788 574 779 605 762 634 C 745 662 723 690 696 716 C 668 742 637 767 603 792 C 569 817 534 842 500 868 C 402 832 329 792 282 748 C 234 704 211 653 211 594 C 211 559 219 527 237 497 C 255 467 278 439 306 412 C 334 385 365 359 400 334 C 435 308 470 282 506 256 C 601 292 672 333 718 381 C 764 428 788 481 788 541 Z M 362 -410 C 284 -410 221 -400 174 -380 C 127 -360 91 -335 66 -304 C 40 -272 23 -237 13 -198 C 3 -158 -2 -120 -6 -82 L 123 -70 C 125 -104 131 -136 139 -164 C 147 -192 159 -215 176 -235 C 193 -254 217 -269 247 -279 C 277 -289 315 -295 362 -295 C 402 -295 436 -289 466 -279 C 495 -269 519 -255 538 -237 C 556 -219 570 -199 580 -175 C 589 -151 594 -125 594 -98 C 594 -33 567 23 513 71 C 459 119 400 167 336 215 C 272 263 213 314 159 370 C 105 426 78 493 78 573 C 78 622 87 666 107 705 C 127 744 152 778 184 808 C 215 838 250 863 290 885 C 330 907 370 925 410 940 C 367 978 331 1019 302 1063 C 272 1107 258 1157 258 1214 C 258 1260 266 1303 284 1343 C 301 1383 326 1418 358 1448 C 390 1478 430 1501 477 1518 C 524 1535 577 1544 637 1544 C 709 1544 768 1535 816 1518 C 864 1500 902 1477 931 1447 C 959 1417 980 1383 993 1344 C 1005 1304 1013 1263 1016 1219 L 889 1208 C 887 1239 882 1268 873 1295 C 864 1322 850 1345 830 1365 C 810 1384 785 1399 753 1410 C 721 1421 681 1427 635 1427 C 595 1427 561 1421 531 1411 C 501 1401 477 1387 457 1369 C 437 1351 423 1331 413 1307 C 403 1283 399 1257 399 1231 C 399 1167 426 1110 481 1062 C 535 1014 595 966 660 919 C 725 871 785 820 840 764 C 894 708 922 640 922 561 C 922 512 912 468 893 428 C 873 388 848 353 817 323 C 785 292 750 265 711 243 C 671 220 632 201 592 186 C 632 150 666 110 694 66 C 721 22 735 -26 735 -80 C 735 -126 726 -169 710 -209 C 693 -249 669 -284 637 -314 C 605 -343 566 -366 520 -384 C 474 -401 421 -410 362 -410 Z" unicode="" />
<glyph horiz-adv-x="1018" d="M 760 1182 C 732 1182 712 1192 699 1212 C 685 1232 681 1257 686 1288 C 690 1316 701 1338 718 1354 C 734 1370 756 1378 784 1378 C 812 1378 832 1368 845 1348 C 858 1328 862 1304 858 1276 C 853 1245 842 1222 826 1206 C 809 1190 787 1182 760 1182 Z M 418 1182 C 390 1182 369 1192 356 1212 C 343 1232 339 1257 344 1288 C 348 1316 359 1338 376 1354 C 392 1370 414 1378 442 1378 C 470 1378 490 1368 503 1348 C 516 1328 520 1304 516 1276 C 511 1245 500 1222 484 1206 C 467 1190 445 1182 418 1182 Z" unicode="" />
<glyph horiz-adv-x="1767" d="M 885 -29 C 776 -29 674 -8 579 33 C 483 74 401 130 331 201 C 261 271 205 355 165 451 C 124 547 104 649 104 758 C 104 866 124 969 165 1065 C 206 1161 262 1244 332 1314 C 402 1384 484 1440 580 1482 C 676 1523 778 1544 887 1544 C 995 1544 1096 1523 1192 1482 C 1287 1440 1370 1384 1440 1314 C 1510 1244 1565 1161 1606 1065 C 1646 969 1667 866 1667 758 C 1667 649 1646 547 1606 451 C 1565 355 1509 271 1439 201 C 1369 130 1286 74 1191 33 C 1095 -8 993 -29 885 -29 Z M 887 55 C 983 55 1073 73 1157 110 C 1241 147 1315 197 1377 260 C 1439 323 1487 398 1523 484 C 1559 570 1577 661 1577 758 C 1577 854 1559 944 1523 1030 C 1487 1116 1438 1190 1376 1254 C 1314 1317 1240 1367 1156 1404 C 1071 1441 981 1460 885 1460 C 789 1460 698 1441 614 1405 C 530 1368 457 1318 395 1255 C 333 1191 284 1117 248 1031 C 212 945 195 854 195 758 C 195 662 212 571 248 485 C 284 399 333 324 395 261 C 457 197 530 147 615 110 C 699 73 790 55 887 55 Z M 881 319 C 827 319 777 329 733 351 C 689 373 651 403 621 443 C 590 483 566 531 549 587 C 532 643 524 704 524 772 C 524 836 532 895 549 950 C 566 1005 590 1052 621 1092 C 652 1132 690 1163 734 1185 C 778 1207 828 1219 883 1219 C 967 1219 1035 1195 1087 1148 C 1139 1101 1176 1036 1200 954 L 1106 928 C 1085 993 1058 1042 1024 1076 C 990 1109 943 1126 883 1126 C 844 1126 809 1117 777 1100 C 745 1083 718 1059 696 1029 C 674 998 657 961 645 918 C 633 874 627 826 627 774 C 627 661 650 572 696 508 C 742 444 805 412 885 412 C 944 412 992 429 1030 463 C 1068 497 1096 548 1116 618 L 1208 592 C 1184 506 1145 439 1090 391 C 1035 343 965 319 881 319 Z" unicode="" />
<glyph horiz-adv-x="834" d="M 378 850 C 418 850 461 861 505 883 C 549 905 594 934 638 969 L 675 1176 C 590 1168 520 1157 466 1143 C 411 1129 368 1112 337 1093 C 305 1073 284 1051 272 1027 C 260 1003 253 977 253 950 C 253 921 262 897 282 878 C 302 859 334 850 378 850 Z M 347 756 C 311 756 280 760 254 770 C 227 779 205 792 187 808 C 169 824 156 844 148 866 C 139 888 135 912 136 938 C 137 980 147 1018 166 1054 C 185 1089 216 1120 259 1147 C 301 1174 358 1197 428 1216 C 498 1235 585 1250 689 1260 L 697 1300 C 706 1347 701 1384 683 1410 C 664 1436 625 1450 566 1450 C 517 1450 471 1441 429 1424 C 386 1406 342 1379 296 1343 L 241 1413 C 295 1457 350 1490 405 1511 C 459 1531 517 1542 579 1542 C 629 1542 671 1535 703 1522 C 735 1508 760 1490 777 1467 C 794 1443 804 1415 808 1383 C 812 1351 810 1316 804 1278 L 749 963 C 741 923 737 888 735 860 C 733 832 735 802 742 772 L 626 772 C 624 789 622 806 621 823 C 620 840 621 857 624 874 C 576 838 528 809 480 788 C 431 766 387 756 347 756 Z" unicode="" />
<glyph horiz-adv-x="1069" d="M 410 0 L 262 0 L 53 541 L 455 1079 L 600 1079 L 207 541 L 410 0 Z M 815 0 L 670 0 L 459 541 L 860 1079 L 1006 1079 L 610 541 L 815 0 Z" unicode="" />
<glyph horiz-adv-x="1292" d="M 1157 741 L 1157 164 L 1036 164 L 1036 625 L 135 625 L 135 741 L 1157 741 Z" unicode="" />
<glyph horiz-adv-x="731" d="M 565 582 L 104 582 L 127 705 L 588 705 L 565 582 Z" unicode="" />
<glyph horiz-adv-x="1120" d="M 598 596 C 532 596 470 608 412 633 C 354 658 303 692 261 735 C 218 777 184 828 160 886 C 135 944 123 1007 123 1073 C 123 1139 135 1201 160 1259 C 185 1317 219 1367 261 1410 C 303 1453 354 1487 412 1512 C 470 1537 532 1550 598 1550 C 664 1550 725 1537 783 1512 C 841 1487 891 1453 933 1411 C 975 1368 1009 1317 1034 1259 C 1058 1201 1071 1139 1071 1073 C 1071 1007 1058 944 1034 886 C 1009 828 975 777 933 735 C 891 692 841 658 783 633 C 725 608 664 596 598 596 Z M 598 657 C 654 657 708 667 758 689 C 808 711 852 740 889 778 C 925 815 954 859 976 910 C 997 961 1008 1015 1008 1073 C 1008 1130 997 1184 975 1235 C 953 1285 924 1329 888 1367 C 851 1404 808 1434 758 1456 C 708 1478 654 1489 598 1489 C 541 1489 487 1478 437 1456 C 387 1434 343 1404 307 1367 C 270 1329 241 1285 220 1235 C 198 1184 188 1130 188 1073 C 188 1015 198 961 220 910 C 241 859 270 815 307 778 C 343 740 387 711 437 689 C 487 667 541 657 598 657 Z M 494 1106 L 602 1106 C 638 1106 667 1112 689 1125 C 710 1138 721 1162 721 1196 C 721 1226 710 1248 689 1261 C 667 1273 638 1280 600 1280 L 494 1280 L 494 1106 Z M 424 817 L 424 1346 L 606 1346 C 665 1346 711 1333 744 1307 C 776 1281 793 1244 793 1198 C 793 1155 782 1122 761 1099 C 740 1076 712 1061 678 1055 L 807 817 L 727 817 L 604 1044 L 494 1044 L 494 817 L 424 817 Z" unicode="" />
<glyph horiz-adv-x="1006" d="M 834 1194 L 332 1194 L 352 1315 L 854 1315 L 834 1194 Z" unicode="" />
<glyph horiz-adv-x="807" d="M 465 971 C 425 971 389 977 357 991 C 325 1004 298 1022 276 1045 C 254 1067 237 1094 225 1125 C 213 1156 207 1189 207 1225 C 207 1275 216 1319 235 1359 C 254 1399 278 1432 308 1459 C 338 1486 371 1507 409 1522 C 446 1536 483 1544 520 1544 C 559 1544 595 1537 627 1524 C 659 1510 686 1492 709 1470 C 731 1448 749 1421 761 1390 C 773 1359 780 1326 780 1292 C 780 1242 770 1197 751 1157 C 732 1117 708 1083 678 1056 C 648 1028 615 1007 577 993 C 539 978 502 971 465 971 Z M 469 1063 C 493 1063 518 1068 543 1078 C 567 1088 589 1102 609 1121 C 628 1140 644 1163 656 1191 C 668 1219 674 1250 674 1286 C 674 1332 659 1372 631 1404 C 602 1436 564 1452 516 1452 C 490 1452 465 1447 441 1437 C 416 1427 394 1412 375 1394 C 356 1375 341 1352 329 1324 C 317 1296 311 1264 311 1229 C 311 1182 325 1143 354 1111 C 382 1079 421 1063 469 1063 Z" unicode="" />
<glyph horiz-adv-x="1305" d="M 135 102 L 135 221 L 592 221 L 592 666 L 135 666 L 135 786 L 592 786 L 592 1247 L 717 1247 L 717 786 L 1171 786 L 1171 666 L 717 666 L 717 221 L 1171 221 L 1171 102 L 135 102 Z" unicode="" />
<glyph horiz-adv-x="913" d="M 109 571 L 115 610 C 134 722 177 806 244 864 C 310 922 379 970 451 1008 C 523 1046 587 1084 644 1122 C 700 1160 729 1215 729 1288 C 729 1326 716 1358 692 1385 C 667 1411 630 1425 582 1425 C 537 1425 495 1414 456 1394 C 417 1374 378 1335 338 1278 L 250 1339 C 296 1410 350 1461 411 1491 C 472 1521 534 1536 596 1536 C 638 1536 676 1529 709 1517 C 741 1505 768 1488 790 1467 C 812 1445 828 1420 839 1391 C 850 1361 856 1330 856 1296 C 856 1208 829 1141 776 1094 C 722 1046 661 1004 593 968 C 525 932 458 893 393 853 C 327 813 283 756 260 684 L 750 684 L 733 571 L 109 571 Z" unicode="" />
<glyph horiz-adv-x="913" d="M 438 553 C 358 553 292 570 238 604 C 184 638 143 688 117 752 L 215 809 C 239 753 272 714 312 694 C 352 674 397 664 449 664 C 514 664 567 681 609 715 C 651 749 672 796 672 858 C 672 908 655 948 620 978 C 585 1008 528 1024 449 1024 L 375 1024 L 391 1122 L 473 1122 C 553 1122 616 1134 662 1160 C 708 1186 731 1230 731 1294 C 731 1330 718 1360 693 1386 C 668 1412 626 1425 567 1425 C 527 1425 488 1416 450 1400 C 412 1383 376 1357 340 1323 L 272 1397 C 321 1445 372 1481 425 1503 C 477 1525 532 1536 590 1536 C 638 1536 679 1529 713 1517 C 747 1504 774 1487 796 1466 C 817 1445 833 1421 843 1395 C 853 1368 858 1341 858 1313 C 858 1251 840 1200 805 1159 C 769 1118 720 1088 657 1069 C 706 1052 742 1026 766 992 C 789 957 801 917 801 872 C 801 824 792 780 774 741 C 756 701 731 668 699 640 C 667 612 629 591 584 576 C 539 560 490 553 438 553 Z" unicode="" />
<glyph horiz-adv-x="1006" d="M 535 1194 L 442 1194 L 674 1513 L 860 1513 L 535 1194 Z" unicode="" />
<glyph horiz-adv-x="1174" d="M 0 0 L 0 0 Z M 100 -410 L -41 -410 L 219 1079 L 360 1079 L 229 334 C 216 258 224 200 253 159 C 282 118 338 98 422 98 C 481 98 541 115 603 150 C 664 184 725 229 786 285 L 926 1079 L 1067 1079 L 877 0 L 735 0 L 766 172 C 743 148 717 125 687 102 C 657 79 625 59 592 41 C 558 23 524 9 488 -1 C 452 -12 416 -18 381 -18 C 335 -18 294 -10 258 4 C 222 18 198 42 186 74 L 100 -410 Z" unicode="" />
<glyph horiz-adv-x="1251" d="M 535 -410 L 414 -410 L 606 690 C 540 694 481 705 428 724 C 374 742 329 767 292 798 C 254 829 225 866 205 910 C 184 954 174 1003 174 1057 C 174 1128 186 1192 212 1249 C 237 1306 272 1354 317 1394 C 362 1433 416 1463 479 1484 C 541 1505 610 1516 684 1516 L 1190 1516 L 852 -410 L 729 -410 L 1049 1395 L 854 1395 L 535 -410 Z" unicode="" />
<glyph horiz-adv-x="551" d="M 154 545 L 154 545 Z M 244 545 C 211 545 187 555 172 576 C 156 596 152 625 158 661 C 163 689 174 712 192 730 C 210 748 235 758 267 758 C 299 758 324 748 341 728 C 357 708 363 681 357 645 C 352 615 340 591 322 573 C 304 554 278 545 244 545 Z" unicode="" />
<glyph horiz-adv-x="1006" d="M 328 -399 C 270 -399 221 -392 181 -379 C 141 -365 105 -347 74 -324 L 123 -264 C 149 -284 178 -300 208 -310 C 238 -320 274 -326 317 -326 C 364 -326 400 -317 424 -300 C 448 -282 461 -255 461 -219 C 461 -200 454 -185 442 -173 C 430 -161 411 -156 387 -156 C 371 -156 355 -159 337 -167 C 319 -174 303 -184 289 -197 L 238 -170 L 319 0 L 406 0 L 354 -113 C 365 -103 379 -96 396 -90 C 413 -84 431 -82 451 -82 C 485 -82 514 -93 538 -116 C 562 -138 575 -169 575 -207 C 575 -245 567 -276 552 -301 C 537 -326 518 -346 494 -360 C 470 -374 444 -384 415 -390 C 385 -396 356 -399 328 -399 Z" unicode="" />
<glyph horiz-adv-x="715" d="M 430 569 L 305 569 L 451 1401 L 289 1356 L 289 1456 L 481 1516 L 594 1516 L 430 569 Z" unicode="" />
<glyph horiz-adv-x="862" d="M 463 756 C 415 756 372 763 334 778 C 295 793 262 815 236 843 C 209 871 188 904 174 944 C 159 984 152 1028 152 1077 C 152 1157 164 1227 188 1286 C 212 1344 243 1393 281 1431 C 319 1469 360 1497 406 1515 C 451 1533 495 1542 537 1542 C 585 1542 628 1534 667 1519 C 706 1504 739 1483 766 1455 C 793 1427 814 1393 829 1353 C 844 1313 852 1268 852 1219 C 852 1139 839 1070 815 1012 C 790 953 759 905 721 867 C 683 829 641 801 595 783 C 549 765 505 756 463 756 Z M 467 850 C 503 850 538 858 571 876 C 603 893 632 918 657 950 C 681 982 701 1020 715 1066 C 729 1111 737 1161 737 1217 C 737 1247 733 1277 726 1305 C 718 1333 706 1358 690 1380 C 674 1401 653 1418 627 1431 C 601 1443 571 1450 535 1450 C 499 1450 464 1441 431 1423 C 398 1405 369 1381 345 1349 C 320 1317 300 1278 286 1233 C 271 1188 264 1139 264 1085 C 264 1053 267 1023 275 995 C 283 966 295 941 311 920 C 327 898 348 881 374 869 C 400 856 431 850 467 850 Z" unicode="" />
<glyph horiz-adv-x="1069" d="M 133 0 L -14 0 L 381 541 L 178 1079 L 324 1079 L 532 541 L 133 0 Z M 539 0 L 393 0 L 784 541 L 584 1079 L 731 1079 L 938 541 L 539 0 Z" unicode="" />
<glyph horiz-adv-x="1915" d="M 465 0 L 326 0 L 1499 1516 L 1638 1516 L 465 0 Z M 618 569 L 166 569 L 184 680 L 356 680 L 481 1376 C 455 1367 427 1360 397 1354 C 366 1348 335 1346 305 1346 L 326 1456 C 368 1456 405 1461 437 1471 C 468 1480 495 1495 518 1516 L 629 1516 L 481 680 L 637 680 L 618 569 Z M 1497 0 L 1376 0 L 1417 227 L 981 227 L 995 309 L 1530 948 L 1663 948 L 1556 338 L 1710 338 L 1692 227 L 1538 227 L 1497 0 Z M 1516 780 L 1147 338 L 1438 338 L 1516 780 Z" unicode="" />
<glyph horiz-adv-x="1995" d="M 465 0 L 326 0 L 1499 1516 L 1638 1516 L 465 0 Z M 618 569 L 166 569 L 184 680 L 356 680 L 481 1376 C 455 1367 427 1360 397 1354 C 366 1348 335 1346 305 1346 L 326 1456 C 368 1456 405 1461 437 1471 C 468 1480 495 1495 518 1516 L 629 1516 L 481 680 L 637 680 L 618 569 Z M 1708 0 L 1083 0 L 1090 41 C 1107 149 1149 231 1216 287 C 1282 343 1352 389 1424 427 C 1496 464 1561 502 1619 540 C 1677 578 1706 635 1706 711 C 1706 749 1692 782 1666 811 C 1640 839 1599 854 1544 854 C 1506 854 1467 841 1427 817 C 1387 793 1349 755 1313 705 L 1223 766 C 1273 835 1327 885 1387 917 C 1447 949 1505 965 1563 965 C 1607 965 1646 958 1680 946 C 1714 933 1742 916 1764 894 C 1786 872 1803 846 1814 817 C 1825 787 1831 756 1831 723 C 1831 630 1803 558 1749 508 C 1694 457 1632 413 1564 377 C 1495 341 1429 304 1365 267 C 1301 230 1259 179 1241 113 L 1726 113 L 1708 0 Z" unicode="" />
<glyph horiz-adv-x="1970" d="M 522 0 L 383 0 L 1556 1516 L 1696 1516 L 522 0 Z M 1552 0 L 1432 0 L 1473 227 L 1034 227 L 1051 309 L 1585 948 L 1718 948 L 1612 338 L 1765 338 L 1747 227 L 1593 227 L 1552 0 Z M 453 553 C 405 553 363 559 327 572 C 290 585 258 602 231 624 C 204 645 181 670 162 698 C 142 726 126 754 113 784 L 215 831 C 241 775 274 733 314 705 C 353 677 401 664 457 664 C 487 664 515 668 541 676 C 567 684 589 697 608 714 C 627 730 642 751 653 776 C 664 800 670 829 670 862 C 670 911 651 950 615 980 C 579 1009 521 1024 442 1024 L 373 1024 L 389 1122 L 485 1122 C 558 1122 617 1134 662 1159 C 706 1183 729 1228 729 1294 C 729 1328 715 1359 689 1385 C 663 1411 619 1425 557 1425 C 524 1425 488 1417 449 1401 C 410 1385 372 1359 334 1323 L 260 1395 C 310 1445 362 1481 417 1503 C 471 1525 524 1536 575 1536 C 625 1536 668 1529 704 1517 C 740 1504 769 1487 791 1467 C 813 1446 830 1422 840 1396 C 850 1369 856 1341 856 1313 C 856 1249 838 1197 803 1157 C 767 1117 718 1088 655 1069 C 704 1052 740 1026 764 992 C 787 957 799 917 799 872 C 799 823 789 779 771 739 C 752 699 727 666 696 639 C 664 611 627 590 585 575 C 543 560 499 553 453 553 Z M 1577 780 L 1202 338 L 1493 338 L 1577 780 Z" unicode="" />
<glyph horiz-adv-x="1083" d="M 731 1526 C 763 1526 787 1515 803 1495 C 818 1474 823 1445 817 1409 C 812 1381 801 1358 783 1340 C 765 1322 740 1313 709 1313 C 676 1313 651 1322 634 1342 C 617 1362 612 1389 618 1425 C 623 1455 635 1479 653 1498 C 671 1516 697 1526 731 1526 Z M 604 1104 L 719 1104 C 716 1063 713 1027 709 996 C 705 964 699 935 692 909 C 682 869 668 836 652 808 C 636 780 615 755 591 734 C 567 712 538 692 505 674 C 471 655 433 635 391 614 C 361 600 333 585 307 569 C 281 553 258 535 238 514 C 218 493 203 468 191 439 C 179 409 174 374 174 332 C 174 298 179 267 191 239 C 203 211 221 186 245 166 C 269 145 299 129 337 117 C 374 105 418 100 469 100 C 537 100 601 111 661 135 C 721 159 784 202 850 264 L 930 168 C 855 96 778 45 700 15 C 622 -14 540 -29 455 -29 C 383 -29 321 -19 267 -1 C 213 16 169 41 134 73 C 99 105 73 142 55 184 C 37 226 29 270 29 317 C 29 377 37 428 54 470 C 71 512 93 547 121 576 C 149 604 180 629 216 650 C 252 670 288 690 324 709 C 380 738 425 764 458 786 C 491 808 517 832 535 858 C 553 884 567 917 576 955 C 585 993 594 1042 604 1104 Z" unicode="" />
<glyph horiz-adv-x="1358" d="M 0 0 L 0 0 Z M 90 0 L -59 0 L 735 1522 L 893 1522 L 1149 12 L 1008 -12 L 930 473 L 334 473 L 90 0 Z M 784 1350 L 397 600 L 909 600 L 788 1350 L 784 1350 Z M 880 1618 L 788 1618 L 510 1937 L 696 1937 L 880 1618 Z" unicode="" />
<glyph horiz-adv-x="1358" d="M 0 0 L 0 0 Z M 90 0 L -59 0 L 735 1522 L 893 1522 L 1149 12 L 1008 -12 L 930 473 L 334 473 L 90 0 Z M 784 1350 L 397 600 L 909 600 L 788 1350 L 784 1350 Z M 861 1618 L 768 1618 L 1000 1937 L 1186 1937 L 861 1618 Z" unicode="" />
<glyph horiz-adv-x="1358" d="M 0 0 L 0 0 Z M 90 0 L -59 0 L 735 1522 L 893 1522 L 1149 12 L 1008 -12 L 930 473 L 334 473 L 90 0 Z M 784 1350 L 397 600 L 909 600 L 788 1350 L 784 1350 Z M 603 1612 L 517 1612 L 830 1937 L 936 1937 L 1135 1612 L 1045 1612 L 859 1813 L 603 1612 Z" unicode="" />
<glyph horiz-adv-x="1358" d="M 0 0 L 0 0 Z M 90 0 L -59 0 L 735 1522 L 893 1522 L 1149 12 L 1008 -12 L 930 473 L 334 473 L 90 0 Z M 784 1350 L 397 600 L 909 600 L 788 1350 L 784 1350 Z M 711 1841 C 738 1841 765 1835 791 1823 C 817 1811 841 1798 865 1784 C 888 1770 910 1757 930 1745 C 950 1733 969 1727 985 1727 C 1015 1727 1039 1735 1056 1753 C 1072 1770 1084 1800 1090 1843 L 1186 1831 C 1175 1756 1153 1701 1119 1665 C 1085 1629 1040 1612 985 1612 C 959 1612 933 1618 908 1630 C 882 1642 858 1655 835 1669 C 811 1683 789 1697 768 1709 C 746 1721 727 1727 709 1727 C 679 1727 656 1718 640 1700 C 623 1682 611 1652 604 1610 L 508 1622 C 519 1697 542 1752 576 1788 C 610 1823 655 1841 711 1841 Z" unicode="" />
<glyph horiz-adv-x="1358" d="M 0 0 L 0 0 Z M 90 0 L -59 0 L 735 1522 L 893 1522 L 1149 12 L 1008 -12 L 930 473 L 334 473 L 90 0 Z M 784 1350 L 397 600 L 909 600 L 788 1350 L 784 1350 Z M 1000 1606 C 972 1606 952 1616 939 1636 C 925 1656 921 1681 926 1712 C 930 1740 941 1762 958 1778 C 974 1794 996 1802 1024 1802 C 1052 1802 1072 1792 1085 1772 C 1098 1752 1102 1728 1098 1700 C 1093 1669 1082 1646 1066 1630 C 1049 1614 1027 1606 1000 1606 Z M 658 1606 C 630 1606 609 1616 596 1636 C 583 1656 579 1681 584 1712 C 588 1740 599 1762 616 1778 C 632 1794 654 1802 682 1802 C 710 1802 730 1792 743 1772 C 756 1752 760 1728 756 1700 C 751 1669 740 1646 724 1630 C 707 1614 685 1606 658 1606 Z" unicode="" />
<glyph horiz-adv-x="1358" d="M 1008 -12 L 930 477 L 336 477 L 90 0 L -59 0 L 715 1487 C 694 1499 678 1517 668 1541 C 658 1565 653 1590 653 1618 C 653 1649 658 1677 670 1703 C 681 1729 696 1751 714 1769 C 732 1787 754 1800 778 1810 C 802 1820 828 1825 854 1825 C 880 1825 904 1820 925 1812 C 945 1803 962 1791 976 1777 C 990 1762 1000 1745 1007 1725 C 1014 1705 1018 1685 1018 1663 C 1018 1616 1006 1576 983 1544 C 960 1512 933 1489 901 1475 L 1149 12 L 1008 -12 Z M 821 1524 C 853 1524 880 1535 903 1559 C 926 1582 938 1615 938 1657 C 938 1683 930 1706 915 1725 C 899 1743 877 1753 848 1753 C 816 1753 788 1741 766 1717 C 744 1693 733 1660 733 1620 C 733 1593 740 1570 755 1552 C 769 1533 791 1524 821 1524 Z M 784 1350 L 397 596 L 911 596 L 788 1350 L 784 1350 Z" unicode="" />
<glyph horiz-adv-x="2019" d="M 1110 1399 L 528 614 L 973 614 L 1112 1399 L 1110 1399 Z M 1161 866 L 1708 866 L 1708 735 L 1139 735 L 1032 133 L 1817 133 L 1792 0 L 864 0 L 950 487 L 434 487 L 70 0 L -84 0 L 1044 1516 L 2015 1516 L 1991 1380 L 1251 1380 L 1161 866 Z" unicode="" />
<glyph horiz-adv-x="1411" d="M 102 0 L 102 0 Z M 643 -29 C 555 -29 478 -13 411 17 C 343 48 287 91 241 146 C 195 201 161 267 137 345 C 113 423 102 508 102 600 C 102 739 121 867 161 984 C 201 1100 254 1200 320 1282 C 386 1364 463 1429 551 1475 C 639 1521 731 1544 827 1544 C 975 1544 1087 1511 1165 1447 C 1243 1383 1294 1294 1319 1182 L 1182 1143 C 1165 1230 1129 1296 1073 1342 C 1017 1388 931 1411 817 1411 C 743 1411 671 1392 603 1354 C 534 1316 473 1263 421 1193 C 369 1123 327 1038 295 937 C 263 836 248 723 248 598 C 248 522 256 454 274 393 C 292 331 317 279 351 236 C 385 193 427 160 477 137 C 527 113 585 102 649 102 C 751 102 837 127 908 177 C 979 227 1042 311 1098 428 L 1221 367 C 1159 238 1080 140 985 72 C 889 4 775 -29 643 -29 Z M 529 -399 C 471 -399 422 -392 382 -379 C 342 -365 306 -347 275 -324 L 324 -264 C 350 -284 379 -300 409 -310 C 439 -320 475 -326 518 -326 C 565 -326 601 -317 625 -300 C 649 -282 662 -255 662 -219 C 662 -200 655 -185 643 -173 C 631 -161 612 -156 588 -156 C 572 -156 556 -159 538 -167 C 520 -174 504 -184 490 -197 L 439 -170 L 520 0 L 607 0 L 555 -113 C 566 -103 580 -96 597 -90 C 614 -84 632 -82 652 -82 C 686 -82 715 -93 739 -116 C 763 -138 776 -169 776 -207 C 776 -245 768 -276 753 -301 C 738 -326 719 -346 695 -360 C 671 -374 645 -384 616 -390 C 586 -396 557 -399 529 -399 Z" unicode="" />
<glyph horiz-adv-x="1217" d="M 61 0 L 61 0 Z M 989 0 L 61 0 L 328 1516 L 1212 1516 L 1188 1380 L 449 1380 L 358 866 L 905 866 L 905 735 L 336 735 L 229 133 L 1012 133 L 989 0 Z M 815 1618 L 723 1618 L 445 1937 L 631 1937 L 815 1618 Z" unicode="" />
<glyph horiz-adv-x="1217" d="M 61 0 L 61 0 Z M 711 1618 L 618 1618 L 850 1937 L 1036 1937 L 711 1618 Z M 989 0 L 61 0 L 328 1516 L 1212 1516 L 1188 1380 L 449 1380 L 358 866 L 905 866 L 905 735 L 336 735 L 229 133 L 1012 133 L 989 0 Z" unicode="" />
<glyph horiz-adv-x="1217" d="M 61 0 L 61 0 Z M 535 1612 L 449 1612 L 762 1937 L 868 1937 L 1067 1612 L 977 1612 L 791 1813 L 535 1612 Z M 989 0 L 61 0 L 328 1516 L 1212 1516 L 1188 1380 L 449 1380 L 358 866 L 905 866 L 905 735 L 336 735 L 229 133 L 1012 133 L 989 0 Z" unicode="" />
<glyph horiz-adv-x="1217" d="M 61 0 L 61 0 Z M 932 1606 C 904 1606 884 1616 871 1636 C 857 1656 853 1681 858 1712 C 862 1740 873 1762 890 1778 C 906 1794 928 1802 956 1802 C 984 1802 1004 1792 1017 1772 C 1030 1752 1034 1728 1030 1700 C 1025 1669 1014 1646 998 1630 C 981 1614 959 1606 932 1606 Z M 590 1606 C 562 1606 541 1616 528 1636 C 515 1656 511 1681 516 1712 C 520 1740 531 1762 548 1778 C 564 1794 586 1802 614 1802 C 642 1802 662 1792 675 1772 C 688 1752 692 1728 688 1700 C 683 1669 672 1646 656 1630 C 639 1614 617 1606 590 1606 Z M 989 0 L 61 0 L 328 1516 L 1212 1516 L 1188 1380 L 449 1380 L 358 866 L 905 866 L 905 735 L 336 735 L 229 133 L 1012 133 L 989 0 Z" unicode="" />
<glyph horiz-adv-x="575" d="M 82 0 L 82 0 Z M 227 0 L 82 0 L 348 1516 L 494 1516 L 227 0 Z M 495 1618 L 403 1618 L 125 1937 L 311 1937 L 495 1618 Z" unicode="" />
<glyph horiz-adv-x="575" d="M 82 0 L 82 0 Z M 227 0 L 82 0 L 348 1516 L 494 1516 L 227 0 Z M 463 1618 L 370 1618 L 602 1937 L 788 1937 L 463 1618 Z" unicode="" />
<glyph horiz-adv-x="575" d="M 82 0 L 82 0 Z M 227 0 L 82 0 L 348 1516 L 494 1516 L 227 0 Z M 215 1612 L 129 1612 L 442 1937 L 548 1937 L 747 1612 L 657 1612 L 471 1813 L 215 1612 Z" unicode="" />
<glyph horiz-adv-x="575" d="M 82 0 L 82 0 Z M 227 0 L 82 0 L 348 1516 L 494 1516 L 227 0 Z M 613 1606 C 585 1606 565 1616 552 1636 C 538 1656 534 1681 539 1712 C 543 1740 554 1762 571 1778 C 587 1794 609 1802 637 1802 C 665 1802 685 1792 698 1772 C 711 1752 715 1728 711 1700 C 706 1669 695 1646 679 1630 C 662 1614 640 1606 613 1606 Z M 271 1606 C 243 1606 222 1616 209 1636 C 196 1656 192 1681 197 1712 C 201 1740 212 1762 229 1778 C 245 1794 267 1802 295 1802 C 323 1802 343 1792 356 1772 C 369 1752 373 1728 369 1700 C 364 1669 353 1646 337 1630 C 320 1614 298 1606 271 1606 Z" unicode="" />
<glyph horiz-adv-x="1432" d="M 467 0 L 61 0 L 190 737 L 20 737 L 43 860 L 211 860 L 328 1516 L 645 1516 C 759 1516 859 1501 945 1473 C 1031 1445 1103 1404 1160 1352 C 1216 1299 1259 1234 1288 1158 C 1316 1082 1331 996 1331 901 C 1331 755 1312 626 1274 514 C 1236 401 1180 307 1107 231 C 1034 155 944 98 836 59 C 728 19 605 0 467 0 Z M 336 737 L 229 131 L 494 131 C 604 131 702 147 788 179 C 874 211 946 258 1004 322 C 1062 385 1107 464 1138 560 C 1168 655 1184 765 1184 891 C 1184 1047 1139 1168 1049 1253 C 959 1337 824 1380 643 1380 L 449 1380 L 356 860 L 684 860 L 664 737 L 336 737 Z" unicode="" />
<glyph horiz-adv-x="1501" d="M 61 0 L 61 0 Z M 199 0 L 61 0 L 328 1516 L 483 1516 L 1077 256 L 1081 256 L 1303 1516 L 1440 1516 L 1174 0 L 1044 0 L 430 1298 L 426 1298 L 199 0 Z M 782 1841 C 809 1841 836 1835 862 1823 C 888 1811 912 1798 936 1784 C 959 1770 981 1757 1001 1745 C 1021 1733 1040 1727 1056 1727 C 1086 1727 1110 1735 1127 1753 C 1143 1770 1155 1800 1161 1843 L 1257 1831 C 1246 1756 1224 1701 1190 1665 C 1156 1629 1111 1612 1056 1612 C 1030 1612 1004 1618 979 1630 C 953 1642 929 1655 906 1669 C 882 1683 860 1697 839 1709 C 817 1721 798 1727 780 1727 C 750 1727 727 1718 711 1700 C 694 1682 682 1652 675 1610 L 579 1622 C 590 1697 613 1752 647 1788 C 681 1823 726 1841 782 1841 Z" unicode="" />
<glyph horiz-adv-x="1499" d="M 102 0 L 102 0 Z M 643 -29 C 559 -29 483 -13 416 18 C 348 50 291 94 245 151 C 199 207 163 275 139 353 C 114 431 102 517 102 610 C 102 757 123 889 167 1005 C 210 1121 267 1219 338 1299 C 408 1378 489 1439 581 1481 C 672 1523 766 1544 862 1544 C 945 1544 1020 1528 1086 1497 C 1152 1465 1208 1422 1254 1366 C 1300 1310 1335 1242 1360 1164 C 1384 1086 1397 1000 1397 907 C 1397 760 1376 628 1334 512 C 1292 395 1236 297 1166 217 C 1096 137 1016 76 925 34 C 834 -7 740 -29 643 -29 Z M 653 102 C 727 102 800 118 872 152 C 944 186 1008 236 1064 303 C 1120 370 1165 454 1199 556 C 1233 657 1251 775 1251 909 C 1251 985 1241 1055 1223 1117 C 1205 1179 1178 1232 1144 1275 C 1110 1318 1067 1351 1017 1375 C 967 1399 910 1411 846 1411 C 774 1411 703 1394 631 1361 C 559 1327 495 1277 439 1211 C 383 1145 337 1061 301 960 C 265 859 248 742 248 608 C 248 531 257 461 275 399 C 293 336 320 283 355 239 C 389 195 432 162 482 138 C 532 114 589 102 653 102 Z M 956 1618 L 864 1618 L 586 1937 L 772 1937 L 956 1618 Z" unicode="" />
<glyph horiz-adv-x="1499" d="M 102 0 L 102 0 Z M 852 1618 L 759 1618 L 991 1937 L 1177 1937 L 852 1618 Z M 643 -29 C 559 -29 483 -13 416 18 C 348 50 291 94 245 151 C 199 207 163 275 139 353 C 114 431 102 517 102 610 C 102 757 123 889 167 1005 C 210 1121 267 1219 338 1299 C 408 1378 489 1439 581 1481 C 672 1523 766 1544 862 1544 C 945 1544 1020 1528 1086 1497 C 1152 1465 1208 1422 1254 1366 C 1300 1310 1335 1242 1360 1164 C 1384 1086 1397 1000 1397 907 C 1397 760 1376 628 1334 512 C 1292 395 1236 297 1166 217 C 1096 137 1016 76 925 34 C 834 -7 740 -29 643 -29 Z M 653 102 C 727 102 800 118 872 152 C 944 186 1008 236 1064 303 C 1120 370 1165 454 1199 556 C 1233 657 1251 775 1251 909 C 1251 985 1241 1055 1223 1117 C 1205 1179 1178 1232 1144 1275 C 1110 1318 1067 1351 1017 1375 C 967 1399 910 1411 846 1411 C 774 1411 703 1394 631 1361 C 559 1327 495 1277 439 1211 C 383 1145 337 1061 301 960 C 265 859 248 742 248 608 C 248 531 257 461 275 399 C 293 336 320 283 355 239 C 389 195 432 162 482 138 C 532 114 589 102 653 102 Z" unicode="" />
<glyph horiz-adv-x="1499" d="M 102 0 L 102 0 Z M 674 1612 L 588 1612 L 901 1937 L 1007 1937 L 1206 1612 L 1116 1612 L 930 1813 L 674 1612 Z M 643 -29 C 559 -29 483 -13 416 18 C 348 50 291 94 245 151 C 199 207 163 275 139 353 C 114 431 102 517 102 610 C 102 757 123 889 167 1005 C 210 1121 267 1219 338 1299 C 408 1378 489 1439 581 1481 C 672 1523 766 1544 862 1544 C 945 1544 1020 1528 1086 1497 C 1152 1465 1208 1422 1254 1366 C 1300 1310 1335 1242 1360 1164 C 1384 1086 1397 1000 1397 907 C 1397 760 1376 628 1334 512 C 1292 395 1236 297 1166 217 C 1096 137 1016 76 925 34 C 834 -7 740 -29 643 -29 Z M 653 102 C 727 102 800 118 872 152 C 944 186 1008 236 1064 303 C 1120 370 1165 454 1199 556 C 1233 657 1251 775 1251 909 C 1251 985 1241 1055 1223 1117 C 1205 1179 1178 1232 1144 1275 C 1110 1318 1067 1351 1017 1375 C 967 1399 910 1411 846 1411 C 774 1411 703 1394 631 1361 C 559 1327 495 1277 439 1211 C 383 1145 337 1061 301 960 C 265 859 248 742 248 608 C 248 531 257 461 275 399 C 293 336 320 283 355 239 C 389 195 432 162 482 138 C 532 114 589 102 653 102 Z" unicode="" />
<glyph horiz-adv-x="1499" d="M 102 0 L 102 0 Z M 643 -29 C 559 -29 483 -13 416 18 C 348 50 291 94 245 151 C 199 207 163 275 139 353 C 114 431 102 517 102 610 C 102 757 123 889 167 1005 C 210 1121 267 1219 338 1299 C 408 1378 489 1439 581 1481 C 672 1523 766 1544 862 1544 C 945 1544 1020 1528 1086 1497 C 1152 1465 1208 1422 1254 1366 C 1300 1310 1335 1242 1360 1164 C 1384 1086 1397 1000 1397 907 C 1397 760 1376 628 1334 512 C 1292 395 1236 297 1166 217 C 1096 137 1016 76 925 34 C 834 -7 740 -29 643 -29 Z M 653 102 C 727 102 800 118 872 152 C 944 186 1008 236 1064 303 C 1120 370 1165 454 1199 556 C 1233 657 1251 775 1251 909 C 1251 985 1241 1055 1223 1117 C 1205 1179 1178 1232 1144 1275 C 1110 1318 1067 1351 1017 1375 C 967 1399 910 1411 846 1411 C 774 1411 703 1394 631 1361 C 559 1327 495 1277 439 1211 C 383 1145 337 1061 301 960 C 265 859 248 742 248 608 C 248 531 257 461 275 399 C 293 336 320 283 355 239 C 389 195 432 162 482 138 C 532 114 589 102 653 102 Z M 782 1841 C 809 1841 836 1835 862 1823 C 888 1811 912 1798 936 1784 C 959 1770 981 1757 1001 1745 C 1021 1733 1040 1727 1056 1727 C 1086 1727 1110 1735 1127 1753 C 1143 1770 1155 1800 1161 1843 L 1257 1831 C 1246 1756 1224 1701 1190 1665 C 1156 1629 1111 1612 1056 1612 C 1030 1612 1004 1618 979 1630 C 953 1642 929 1655 906 1669 C 882 1683 860 1697 839 1709 C 817 1721 798 1727 780 1727 C 750 1727 727 1718 711 1700 C 694 1682 682 1652 675 1610 L 579 1622 C 590 1697 613 1752 647 1788 C 681 1823 726 1841 782 1841 Z" unicode="" />
<glyph horiz-adv-x="1499" d="M 102 0 L 102 0 Z M 1071 1606 C 1043 1606 1023 1616 1010 1636 C 996 1656 992 1681 997 1712 C 1001 1740 1012 1762 1029 1778 C 1045 1794 1067 1802 1095 1802 C 1123 1802 1143 1792 1156 1772 C 1169 1752 1173 1728 1169 1700 C 1164 1669 1153 1646 1137 1630 C 1120 1614 1098 1606 1071 1606 Z M 729 1606 C 701 1606 680 1616 667 1636 C 654 1656 650 1681 655 1712 C 659 1740 670 1762 687 1778 C 703 1794 725 1802 753 1802 C 781 1802 801 1792 814 1772 C 827 1752 831 1728 827 1700 C 822 1669 811 1646 795 1630 C 778 1614 756 1606 729 1606 Z M 643 -29 C 559 -29 483 -13 416 18 C 348 50 291 94 245 151 C 199 207 163 275 139 353 C 114 431 102 517 102 610 C 102 757 123 889 167 1005 C 210 1121 267 1219 338 1299 C 408 1378 489 1439 581 1481 C 672 1523 766 1544 862 1544 C 945 1544 1020 1528 1086 1497 C 1152 1465 1208 1422 1254 1366 C 1300 1310 1335 1242 1360 1164 C 1384 1086 1397 1000 1397 907 C 1397 760 1376 628 1334 512 C 1292 395 1236 297 1166 217 C 1096 137 1016 76 925 34 C 834 -7 740 -29 643 -29 Z M 653 102 C 727 102 800 118 872 152 C 944 186 1008 236 1064 303 C 1120 370 1165 454 1199 556 C 1233 657 1251 775 1251 909 C 1251 985 1241 1055 1223 1117 C 1205 1179 1178 1232 1144 1275 C 1110 1318 1067 1351 1017 1375 C 967 1399 910 1411 846 1411 C 774 1411 703 1394 631 1361 C 559 1327 495 1277 439 1211 C 383 1145 337 1061 301 960 C 265 859 248 742 248 608 C 248 531 257 461 275 399 C 293 336 320 283 355 239 C 389 195 432 162 482 138 C 532 114 589 102 653 102 Z" unicode="" />
<glyph horiz-adv-x="1303" d="M 635 565 L 283 213 L 199 297 L 549 647 L 199 1001 L 283 1085 L 635 731 L 987 1085 L 1071 1001 L 719 649 L 1071 297 L 987 213 L 635 565 Z" unicode="" />
<glyph horiz-adv-x="1499" d="M 846 1415 C 774 1415 702 1398 630 1364 C 558 1330 494 1280 438 1213 C 382 1146 336 1062 301 961 C 265 859 248 742 248 608 C 248 555 252 505 260 459 C 268 412 280 370 297 332 L 1157 1264 C 1122 1312 1078 1349 1026 1375 C 974 1401 914 1415 846 1415 Z M 655 100 C 727 100 798 117 870 151 C 941 185 1005 235 1061 302 C 1117 369 1163 453 1198 555 C 1233 657 1251 775 1251 909 C 1251 961 1246 1010 1238 1056 C 1229 1102 1217 1144 1202 1182 L 340 254 C 374 205 418 167 471 140 C 524 113 585 100 655 100 Z M 643 -29 C 559 -29 484 -13 418 18 C 351 49 294 92 248 147 L 76 -37 L 0 25 L 193 229 C 163 281 140 339 125 403 C 109 467 102 536 102 610 C 102 757 123 889 167 1005 C 210 1121 267 1219 338 1299 C 408 1378 489 1439 581 1481 C 672 1523 766 1544 862 1544 C 943 1544 1017 1528 1083 1497 C 1149 1466 1205 1423 1251 1368 L 1423 1552 L 1497 1493 L 1307 1288 C 1336 1237 1358 1179 1374 1114 C 1389 1049 1397 980 1397 907 C 1397 760 1375 628 1333 512 C 1290 395 1234 297 1164 217 C 1094 137 1013 76 922 34 C 831 -7 738 -29 643 -29 Z" unicode="" />
<glyph horiz-adv-x="1444" d="M 134 0 L 134 0 Z M 629 -29 C 524 -29 437 -12 369 19 C 300 51 247 94 210 148 C 172 202 149 264 140 336 C 130 407 133 481 147 559 L 313 1516 L 459 1516 L 293 553 C 281 491 278 432 284 378 C 289 323 304 275 330 235 C 356 195 393 163 442 139 C 491 115 553 104 629 104 C 758 104 859 136 931 200 C 1003 264 1049 359 1071 485 L 1251 1516 L 1397 1516 L 1210 459 C 1183 303 1120 182 1021 98 C 921 13 791 -29 629 -29 Z M 930 1618 L 838 1618 L 560 1937 L 746 1937 L 930 1618 Z" unicode="" />
<glyph horiz-adv-x="1444" d="M 134 0 L 134 0 Z M 826 1618 L 733 1618 L 965 1937 L 1151 1937 L 826 1618 Z M 629 -29 C 524 -29 437 -12 369 19 C 300 51 247 94 210 148 C 172 202 149 264 140 336 C 130 407 133 481 147 559 L 313 1516 L 459 1516 L 293 553 C 281 491 278 432 284 378 C 289 323 304 275 330 235 C 356 195 393 163 442 139 C 491 115 553 104 629 104 C 758 104 859 136 931 200 C 1003 264 1049 359 1071 485 L 1251 1516 L 1397 1516 L 1210 459 C 1183 303 1120 182 1021 98 C 921 13 791 -29 629 -29 Z" unicode="" />
<glyph horiz-adv-x="1444" d="M 134 0 L 134 0 Z M 646 1612 L 560 1612 L 873 1937 L 979 1937 L 1178 1612 L 1088 1612 L 902 1813 L 646 1612 Z M 629 -29 C 524 -29 437 -12 369 19 C 300 51 247 94 210 148 C 172 202 149 264 140 336 C 130 407 133 481 147 559 L 313 1516 L 459 1516 L 293 553 C 281 491 278 432 284 378 C 289 323 304 275 330 235 C 356 195 393 163 442 139 C 491 115 553 104 629 104 C 758 104 859 136 931 200 C 1003 264 1049 359 1071 485 L 1251 1516 L 1397 1516 L 1210 459 C 1183 303 1120 182 1021 98 C 921 13 791 -29 629 -29 Z" unicode="" />
<glyph horiz-adv-x="1444" d="M 134 0 L 134 0 Z M 1045 1606 C 1017 1606 997 1616 984 1636 C 970 1656 966 1681 971 1712 C 975 1740 986 1762 1003 1778 C 1019 1794 1041 1802 1069 1802 C 1097 1802 1117 1792 1130 1772 C 1143 1752 1147 1728 1143 1700 C 1138 1669 1127 1646 1111 1630 C 1094 1614 1072 1606 1045 1606 Z M 703 1606 C 675 1606 654 1616 641 1636 C 628 1656 624 1681 629 1712 C 633 1740 644 1762 661 1778 C 677 1794 699 1802 727 1802 C 755 1802 775 1792 788 1772 C 801 1752 805 1728 801 1700 C 796 1669 785 1646 769 1630 C 752 1614 730 1606 703 1606 Z M 629 -29 C 524 -29 437 -12 369 19 C 300 51 247 94 210 148 C 172 202 149 264 140 336 C 130 407 133 481 147 559 L 313 1516 L 459 1516 L 293 553 C 281 491 278 432 284 378 C 289 323 304 275 330 235 C 356 195 393 163 442 139 C 491 115 553 104 629 104 C 758 104 859 136 931 200 C 1003 264 1049 359 1071 485 L 1251 1516 L 1397 1516 L 1210 459 C 1183 303 1120 182 1021 98 C 921 13 791 -29 629 -29 Z" unicode="" />
<glyph horiz-adv-x="1245" d="M 188 0 L 188 0 Z M 561 0 L 416 0 L 532 668 L 188 1503 L 330 1528 L 625 793 L 1165 1516 L 1327 1516 L 678 668 L 561 0 Z M 725 1618 L 632 1618 L 864 1937 L 1050 1937 L 725 1618 Z" unicode="" />
<glyph horiz-adv-x="1305" d="M 207 0 L 61 0 L 328 1516 L 473 1516 L 424 1229 L 696 1229 C 783 1229 860 1220 927 1202 C 993 1184 1049 1158 1094 1126 C 1138 1093 1172 1053 1195 1007 C 1217 960 1229 908 1229 852 C 1229 760 1212 683 1178 623 C 1144 562 1101 514 1048 478 C 994 442 934 417 866 403 C 798 388 730 381 662 381 L 274 381 L 207 0 Z M 399 1094 L 297 512 L 668 512 C 722 512 774 516 824 525 C 874 534 917 551 955 575 C 992 599 1022 632 1044 676 C 1066 719 1077 775 1077 844 C 1077 925 1043 987 977 1030 C 910 1072 808 1094 670 1094 L 399 1094 Z" unicode="" />
<glyph horiz-adv-x="1235" d="M 645 -23 C 577 -23 519 -16 470 -3 C 420 10 378 29 344 55 L 397 172 C 427 145 463 125 503 113 C 543 100 591 94 647 94 C 736 94 807 123 861 182 C 915 241 942 326 942 436 C 942 481 934 524 918 566 C 902 608 878 644 846 676 C 813 708 771 733 721 753 C 670 773 610 783 541 784 L 559 895 C 689 897 785 924 845 976 C 905 1028 936 1097 936 1184 C 936 1246 914 1296 872 1336 C 829 1375 764 1395 678 1395 C 594 1395 525 1368 471 1316 C 417 1263 379 1179 358 1065 L 172 0 L 31 0 L 221 1081 C 234 1156 255 1221 283 1276 C 311 1331 344 1376 384 1412 C 424 1447 469 1473 520 1490 C 570 1507 625 1516 684 1516 C 748 1516 804 1508 853 1492 C 902 1476 943 1455 976 1427 C 1009 1399 1034 1366 1051 1327 C 1068 1288 1077 1246 1077 1200 C 1077 1102 1050 1025 996 968 C 942 911 865 870 766 846 C 812 837 854 821 893 797 C 932 773 966 743 994 708 C 1022 672 1043 632 1059 586 C 1075 540 1083 490 1083 438 C 1083 358 1070 288 1046 230 C 1021 172 988 124 948 87 C 908 49 861 22 808 4 C 755 -14 701 -23 645 -23 Z" unicode="" />
<glyph horiz-adv-x="1118" d="M 6 0 L 6 0 Z M 340 98 C 405 98 472 113 540 143 C 608 173 675 215 739 268 L 797 596 C 667 582 559 564 475 541 C 391 517 325 490 277 460 C 229 430 195 396 177 360 C 159 324 150 286 150 248 C 150 202 166 165 198 138 C 230 111 278 98 340 98 Z M 299 -18 C 204 -18 131 4 81 49 C 31 93 6 151 6 221 C 6 281 20 337 49 391 C 77 444 123 491 187 532 C 250 573 333 608 437 636 C 541 664 667 684 815 696 L 825 752 C 839 824 831 880 799 920 C 767 960 707 981 621 981 C 585 981 548 976 512 968 C 476 960 441 949 409 936 C 376 922 345 907 316 890 C 287 872 262 855 242 838 L 166 928 C 192 948 221 969 254 990 C 287 1010 323 1029 363 1045 C 402 1061 445 1075 491 1085 C 537 1095 587 1100 639 1100 C 708 1100 766 1091 812 1073 C 858 1055 893 1029 919 997 C 944 965 960 926 966 881 C 972 835 971 786 963 733 L 834 0 L 702 0 L 721 154 C 649 98 577 55 504 26 C 431 -3 363 -18 299 -18 Z M 694 1194 L 602 1194 L 324 1513 L 510 1513 L 694 1194 Z" unicode="" />
<glyph horiz-adv-x="1118" d="M 6 0 L 6 0 Z M 340 98 C 405 98 472 113 540 143 C 608 173 675 215 739 268 L 797 596 C 667 582 559 564 475 541 C 391 517 325 490 277 460 C 229 430 195 396 177 360 C 159 324 150 286 150 248 C 150 202 166 165 198 138 C 230 111 278 98 340 98 Z M 299 -18 C 204 -18 131 4 81 49 C 31 93 6 151 6 221 C 6 281 20 337 49 391 C 77 444 123 491 187 532 C 250 573 333 608 437 636 C 541 664 667 684 815 696 L 825 752 C 839 824 831 880 799 920 C 767 960 707 981 621 981 C 585 981 548 976 512 968 C 476 960 441 949 409 936 C 376 922 345 907 316 890 C 287 872 262 855 242 838 L 166 928 C 192 948 221 969 254 990 C 287 1010 323 1029 363 1045 C 402 1061 445 1075 491 1085 C 537 1095 587 1100 639 1100 C 708 1100 766 1091 812 1073 C 858 1055 893 1029 919 997 C 944 965 960 926 966 881 C 972 835 971 786 963 733 L 834 0 L 702 0 L 721 154 C 649 98 577 55 504 26 C 431 -3 363 -18 299 -18 Z M 588 1194 L 495 1194 L 727 1513 L 913 1513 L 588 1194 Z" unicode="" />
<glyph horiz-adv-x="1118" d="M 6 0 L 6 0 Z M 340 98 C 405 98 472 113 540 143 C 608 173 675 215 739 268 L 797 596 C 667 582 559 564 475 541 C 391 517 325 490 277 460 C 229 430 195 396 177 360 C 159 324 150 286 150 248 C 150 202 166 165 198 138 C 230 111 278 98 340 98 Z M 299 -18 C 204 -18 131 4 81 49 C 31 93 6 151 6 221 C 6 281 20 337 49 391 C 77 444 123 491 187 532 C 250 573 333 608 437 636 C 541 664 667 684 815 696 L 825 752 C 839 824 831 880 799 920 C 767 960 707 981 621 981 C 585 981 548 976 512 968 C 476 960 441 949 409 936 C 376 922 345 907 316 890 C 287 872 262 855 242 838 L 166 928 C 192 948 221 969 254 990 C 287 1010 323 1029 363 1045 C 402 1061 445 1075 491 1085 C 537 1095 587 1100 639 1100 C 708 1100 766 1091 812 1073 C 858 1055 893 1029 919 997 C 944 965 960 926 966 881 C 972 835 971 786 963 733 L 834 0 L 702 0 L 721 154 C 649 98 577 55 504 26 C 431 -3 363 -18 299 -18 Z M 410 1188 L 324 1188 L 637 1513 L 743 1513 L 942 1188 L 852 1188 L 666 1389 L 410 1188 Z" unicode="" />
<glyph horiz-adv-x="1118" d="M 6 0 L 6 0 Z M 340 98 C 405 98 472 113 540 143 C 608 173 675 215 739 268 L 797 596 C 667 582 559 564 475 541 C 391 517 325 490 277 460 C 229 430 195 396 177 360 C 159 324 150 286 150 248 C 150 202 166 165 198 138 C 230 111 278 98 340 98 Z M 299 -18 C 204 -18 131 4 81 49 C 31 93 6 151 6 221 C 6 281 20 337 49 391 C 77 444 123 491 187 532 C 250 573 333 608 437 636 C 541 664 667 684 815 696 L 825 752 C 839 824 831 880 799 920 C 767 960 707 981 621 981 C 585 981 548 976 512 968 C 476 960 441 949 409 936 C 376 922 345 907 316 890 C 287 872 262 855 242 838 L 166 928 C 192 948 221 969 254 990 C 287 1010 323 1029 363 1045 C 402 1061 445 1075 491 1085 C 537 1095 587 1100 639 1100 C 708 1100 766 1091 812 1073 C 858 1055 893 1029 919 997 C 944 965 960 926 966 881 C 972 835 971 786 963 733 L 834 0 L 702 0 L 721 154 C 649 98 577 55 504 26 C 431 -3 363 -18 299 -18 Z M 518 1417 C 545 1417 572 1411 598 1399 C 624 1387 648 1374 672 1360 C 695 1346 717 1333 737 1321 C 757 1309 776 1303 792 1303 C 822 1303 846 1311 863 1329 C 879 1346 891 1376 897 1419 L 993 1407 C 982 1332 960 1277 926 1241 C 892 1205 847 1188 792 1188 C 766 1188 740 1194 715 1206 C 689 1218 665 1231 642 1245 C 618 1259 596 1273 575 1285 C 553 1297 534 1303 516 1303 C 486 1303 463 1294 447 1276 C 430 1258 418 1228 411 1186 L 315 1198 C 326 1273 349 1328 383 1364 C 417 1399 462 1417 518 1417 Z" unicode="" />
<glyph horiz-adv-x="1118" d="M 6 0 L 6 0 Z M 340 98 C 405 98 472 113 540 143 C 608 173 675 215 739 268 L 797 596 C 667 582 559 564 475 541 C 391 517 325 490 277 460 C 229 430 195 396 177 360 C 159 324 150 286 150 248 C 150 202 166 165 198 138 C 230 111 278 98 340 98 Z M 299 -18 C 204 -18 131 4 81 49 C 31 93 6 151 6 221 C 6 281 20 337 49 391 C 77 444 123 491 187 532 C 250 573 333 608 437 636 C 541 664 667 684 815 696 L 825 752 C 839 824 831 880 799 920 C 767 960 707 981 621 981 C 585 981 548 976 512 968 C 476 960 441 949 409 936 C 376 922 345 907 316 890 C 287 872 262 855 242 838 L 166 928 C 192 948 221 969 254 990 C 287 1010 323 1029 363 1045 C 402 1061 445 1075 491 1085 C 537 1095 587 1100 639 1100 C 708 1100 766 1091 812 1073 C 858 1055 893 1029 919 997 C 944 965 960 926 966 881 C 972 835 971 786 963 733 L 834 0 L 702 0 L 721 154 C 649 98 577 55 504 26 C 431 -3 363 -18 299 -18 Z M 809 1182 C 781 1182 761 1192 748 1212 C 734 1232 730 1257 735 1288 C 739 1316 750 1338 767 1354 C 783 1370 805 1378 833 1378 C 861 1378 881 1368 894 1348 C 907 1328 911 1304 907 1276 C 902 1245 891 1222 875 1206 C 858 1190 836 1182 809 1182 Z M 467 1182 C 439 1182 418 1192 405 1212 C 392 1232 388 1257 393 1288 C 397 1316 408 1338 425 1354 C 441 1370 463 1378 491 1378 C 519 1378 539 1368 552 1348 C 565 1328 569 1304 565 1276 C 560 1245 549 1222 533 1206 C 516 1190 494 1182 467 1182 Z" unicode="" />
<glyph horiz-adv-x="1118" d="M 6 0 L 6 0 Z M 340 98 C 405 98 472 113 540 143 C 608 173 675 215 739 268 L 797 596 C 667 582 559 564 475 541 C 391 517 325 490 277 460 C 229 430 195 396 177 360 C 159 324 150 286 150 248 C 150 202 166 165 198 138 C 230 111 278 98 340 98 Z M 299 -18 C 204 -18 131 4 81 49 C 31 93 6 151 6 221 C 6 281 20 337 49 391 C 77 444 123 491 187 532 C 250 573 333 608 437 636 C 541 664 667 684 815 696 L 825 752 C 839 824 831 880 799 920 C 767 960 707 981 621 981 C 585 981 548 976 512 968 C 476 960 441 949 409 936 C 376 922 345 907 316 890 C 287 872 262 855 242 838 L 166 928 C 192 948 221 969 254 990 C 287 1010 323 1029 363 1045 C 402 1061 445 1075 491 1085 C 537 1095 587 1100 639 1100 C 708 1100 766 1091 812 1073 C 858 1055 893 1029 919 997 C 944 965 960 926 966 881 C 972 835 971 786 963 733 L 834 0 L 702 0 L 721 154 C 649 98 577 55 504 26 C 431 -3 363 -18 299 -18 Z M 647 1180 C 593 1180 553 1196 525 1228 C 497 1260 483 1300 483 1346 C 483 1377 488 1405 499 1431 C 510 1457 525 1478 544 1496 C 562 1514 584 1527 608 1537 C 632 1547 658 1552 684 1552 C 736 1552 777 1536 805 1504 C 833 1472 848 1435 848 1391 C 848 1358 842 1329 830 1303 C 818 1277 803 1254 785 1236 C 766 1218 744 1204 720 1194 C 696 1184 671 1180 647 1180 Z M 651 1251 C 682 1251 709 1262 733 1286 C 756 1309 768 1342 768 1384 C 768 1410 760 1433 745 1452 C 729 1471 707 1481 678 1481 C 647 1481 620 1469 597 1445 C 574 1421 563 1388 563 1348 C 563 1321 570 1298 585 1279 C 599 1260 621 1251 651 1251 Z" unicode="" />
<glyph horiz-adv-x="1825" d="M 1186 -23 C 1100 -23 1026 -2 963 38 C 900 78 853 136 823 211 C 791 185 755 158 714 131 C 673 103 630 79 584 57 C 538 35 491 17 442 3 C 393 -11 345 -18 299 -18 C 204 -18 131 4 81 49 C 31 93 6 151 6 221 C 6 281 20 337 49 391 C 77 444 123 491 187 532 C 250 573 333 608 437 636 C 541 664 667 684 815 696 L 825 752 C 839 824 831 880 799 920 C 767 960 708 981 621 981 C 584 981 547 976 510 968 C 472 959 437 948 403 934 C 369 920 337 904 308 886 C 278 868 253 849 233 831 L 162 924 C 188 945 217 966 251 987 C 284 1008 320 1027 360 1044 C 400 1060 443 1074 490 1084 C 536 1094 586 1100 639 1100 C 733 1100 804 1082 852 1048 C 900 1014 930 968 942 911 C 970 943 1001 972 1034 996 C 1066 1020 1099 1039 1132 1055 C 1165 1070 1198 1081 1231 1089 C 1263 1096 1294 1100 1323 1100 C 1402 1100 1468 1085 1522 1055 C 1575 1025 1616 985 1644 935 C 1672 885 1690 825 1696 757 C 1702 688 1697 615 1683 539 L 1679 512 L 918 512 C 916 499 915 486 915 473 C 915 460 915 447 915 434 C 915 372 923 319 939 276 C 955 233 977 198 1004 172 C 1030 145 1060 126 1094 114 C 1128 102 1162 96 1196 96 C 1273 96 1339 110 1394 140 C 1448 169 1502 209 1554 260 L 1630 168 C 1596 134 1562 106 1530 82 C 1497 58 1463 38 1428 22 C 1393 6 1356 -4 1317 -12 C 1277 -19 1234 -23 1186 -23 Z M 936 625 L 1561 625 C 1567 671 1567 715 1563 759 C 1558 802 1546 840 1527 873 C 1508 905 1481 931 1446 951 C 1410 971 1365 981 1311 981 C 1271 981 1232 973 1194 958 C 1155 943 1119 921 1086 892 C 1052 862 1022 825 996 780 C 970 735 950 683 936 625 Z M 784 432 C 784 460 785 488 787 516 C 789 544 792 570 797 596 C 669 584 564 566 480 542 C 396 518 329 491 281 460 C 233 429 199 395 179 359 C 159 322 150 285 150 248 C 150 202 166 165 198 138 C 230 111 278 98 340 98 C 371 98 406 103 444 113 C 482 123 521 137 561 155 C 601 173 641 196 681 222 C 721 248 759 277 795 309 C 791 327 789 347 787 367 C 785 387 784 409 784 432 Z" unicode="" />
<glyph horiz-adv-x="1067" d="M 51 0 L 51 0 Z M 455 -23 C 394 -23 339 -12 289 10 C 239 32 196 63 161 103 C 126 143 99 192 80 250 C 60 308 51 372 51 442 C 51 562 69 664 105 748 C 141 832 186 900 240 952 C 294 1004 354 1041 418 1065 C 482 1088 543 1100 600 1100 C 656 1100 705 1093 747 1081 C 789 1068 824 1050 853 1028 C 882 1006 906 979 925 949 C 943 918 959 885 971 850 L 848 797 C 828 861 798 907 758 937 C 718 966 662 981 590 981 C 539 981 490 969 442 946 C 394 923 351 889 315 844 C 278 799 248 743 226 675 C 204 607 193 528 193 440 C 193 334 217 250 265 188 C 313 126 380 96 467 96 C 502 96 534 99 562 107 C 590 115 617 127 641 143 C 665 159 687 181 709 207 C 731 233 753 264 776 301 L 879 236 C 835 156 779 93 712 47 C 645 0 559 -23 455 -23 Z M 357 -399 C 299 -399 250 -392 210 -379 C 170 -365 134 -347 103 -324 L 152 -264 C 178 -284 207 -300 237 -310 C 267 -320 303 -326 346 -326 C 393 -326 429 -317 453 -300 C 477 -282 490 -255 490 -219 C 490 -200 483 -185 471 -173 C 459 -161 440 -156 416 -156 C 400 -156 384 -159 366 -167 C 348 -174 332 -184 318 -197 L 267 -170 L 348 0 L 435 0 L 383 -113 C 394 -103 408 -96 425 -90 C 442 -84 460 -82 480 -82 C 514 -82 543 -93 567 -116 C 591 -138 604 -169 604 -207 C 604 -245 596 -276 581 -301 C 566 -326 547 -346 523 -360 C 499 -374 473 -384 444 -390 C 414 -396 385 -399 357 -399 Z" unicode="" />
<glyph horiz-adv-x="1098" d="M 51 0 L 51 0 Z M 465 -23 C 403 -23 346 -12 295 8 C 244 29 201 59 165 98 C 129 137 101 185 81 242 C 61 298 51 362 51 432 C 51 554 69 658 107 744 C 145 829 191 898 246 950 C 300 1002 359 1040 423 1064 C 487 1088 544 1100 596 1100 C 675 1100 741 1085 795 1055 C 848 1025 889 985 918 935 C 946 885 964 825 970 757 C 976 688 972 615 958 539 L 954 512 L 193 512 C 191 499 190 486 190 473 C 190 460 190 447 190 434 C 190 370 199 316 218 272 C 236 228 260 194 288 168 C 316 142 348 123 383 112 C 418 101 452 96 485 96 C 562 96 628 110 683 140 C 738 169 792 209 844 260 L 920 168 C 886 134 852 106 819 82 C 785 58 751 38 716 22 C 680 6 642 -4 601 -12 C 560 -19 515 -23 465 -23 Z M 211 625 L 836 625 C 842 671 842 715 837 759 C 831 802 819 840 800 873 C 780 905 753 931 718 951 C 682 971 638 981 584 981 C 545 981 506 973 468 958 C 429 943 393 921 360 892 C 327 862 297 825 271 780 C 245 735 225 683 211 625 Z M 684 1194 L 592 1194 L 314 1513 L 500 1513 L 684 1194 Z" unicode="" />
<glyph horiz-adv-x="1098" d="M 51 0 L 51 0 Z M 578 1194 L 485 1194 L 717 1513 L 903 1513 L 578 1194 Z M 465 -23 C 403 -23 346 -12 295 8 C 244 29 201 59 165 98 C 129 137 101 185 81 242 C 61 298 51 362 51 432 C 51 554 69 658 107 744 C 145 829 191 898 246 950 C 300 1002 359 1040 423 1064 C 487 1088 544 1100 596 1100 C 675 1100 741 1085 795 1055 C 848 1025 889 985 918 935 C 946 885 964 825 970 757 C 976 688 972 615 958 539 L 954 512 L 193 512 C 191 499 190 486 190 473 C 190 460 190 447 190 434 C 190 370 199 316 218 272 C 236 228 260 194 288 168 C 316 142 348 123 383 112 C 418 101 452 96 485 96 C 562 96 628 110 683 140 C 738 169 792 209 844 260 L 920 168 C 886 134 852 106 819 82 C 785 58 751 38 716 22 C 680 6 642 -4 601 -12 C 560 -19 515 -23 465 -23 Z M 211 625 L 836 625 C 842 671 842 715 837 759 C 831 802 819 840 800 873 C 780 905 753 931 718 951 C 682 971 638 981 584 981 C 545 981 506 973 468 958 C 429 943 393 921 360 892 C 327 862 297 825 271 780 C 245 735 225 683 211 625 Z" unicode="" />
<glyph horiz-adv-x="1098" d="M 51 0 L 51 0 Z M 400 1188 L 314 1188 L 627 1513 L 733 1513 L 932 1188 L 842 1188 L 656 1389 L 400 1188 Z M 465 -23 C 403 -23 346 -12 295 8 C 244 29 201 59 165 98 C 129 137 101 185 81 242 C 61 298 51 362 51 432 C 51 554 69 658 107 744 C 145 829 191 898 246 950 C 300 1002 359 1040 423 1064 C 487 1088 544 1100 596 1100 C 675 1100 741 1085 795 1055 C 848 1025 889 985 918 935 C 946 885 964 825 970 757 C 976 688 972 615 958 539 L 954 512 L 193 512 C 191 499 190 486 190 473 C 190 460 190 447 190 434 C 190 370 199 316 218 272 C 236 228 260 194 288 168 C 316 142 348 123 383 112 C 418 101 452 96 485 96 C 562 96 628 110 683 140 C 738 169 792 209 844 260 L 920 168 C 886 134 852 106 819 82 C 785 58 751 38 716 22 C 680 6 642 -4 601 -12 C 560 -19 515 -23 465 -23 Z M 211 625 L 836 625 C 842 671 842 715 837 759 C 831 802 819 840 800 873 C 780 905 753 931 718 951 C 682 971 638 981 584 981 C 545 981 506 973 468 958 C 429 943 393 921 360 892 C 327 862 297 825 271 780 C 245 735 225 683 211 625 Z" unicode="" />
<glyph horiz-adv-x="1098" d="M 51 0 L 51 0 Z M 799 1182 C 771 1182 751 1192 738 1212 C 724 1232 720 1257 725 1288 C 729 1316 740 1338 757 1354 C 773 1370 795 1378 823 1378 C 851 1378 871 1368 884 1348 C 897 1328 901 1304 897 1276 C 892 1245 881 1222 865 1206 C 848 1190 826 1182 799 1182 Z M 457 1182 C 429 1182 408 1192 395 1212 C 382 1232 378 1257 383 1288 C 387 1316 398 1338 415 1354 C 431 1370 453 1378 481 1378 C 509 1378 529 1368 542 1348 C 555 1328 559 1304 555 1276 C 550 1245 539 1222 523 1206 C 506 1190 484 1182 457 1182 Z M 465 -23 C 403 -23 346 -12 295 8 C 244 29 201 59 165 98 C 129 137 101 185 81 242 C 61 298 51 362 51 432 C 51 554 69 658 107 744 C 145 829 191 898 246 950 C 300 1002 359 1040 423 1064 C 487 1088 544 1100 596 1100 C 675 1100 741 1085 795 1055 C 848 1025 889 985 918 935 C 946 885 964 825 970 757 C 976 688 972 615 958 539 L 954 512 L 193 512 C 191 499 190 486 190 473 C 190 460 190 447 190 434 C 190 370 199 316 218 272 C 236 228 260 194 288 168 C 316 142 348 123 383 112 C 418 101 452 96 485 96 C 562 96 628 110 683 140 C 738 169 792 209 844 260 L 920 168 C 886 134 852 106 819 82 C 785 58 751 38 716 22 C 680 6 642 -4 601 -12 C 560 -19 515 -23 465 -23 Z M 211 625 L 836 625 C 842 671 842 715 837 759 C 831 802 819 840 800 873 C 780 905 753 931 718 951 C 682 971 638 981 584 981 C 545 981 506 973 468 958 C 429 943 393 921 360 892 C 327 862 297 825 271 780 C 245 735 225 683 211 625 Z" unicode="" />
<glyph horiz-adv-x="492" d="M 9 0 L 9 0 Z M 184 0 L 43 0 L 233 1079 L 375 1079 L 184 0 Z M 379 1194 L 287 1194 L 9 1513 L 195 1513 L 379 1194 Z" unicode="" />
<glyph horiz-adv-x="492" d="M 43 0 L 43 0 Z M 355 1194 L 262 1194 L 494 1513 L 680 1513 L 355 1194 Z M 184 0 L 43 0 L 233 1079 L 375 1079 L 184 0 Z" unicode="" />
<glyph horiz-adv-x="492" d="M 15 0 L 15 0 Z M 101 1188 L 15 1188 L 328 1513 L 434 1513 L 633 1188 L 543 1188 L 357 1389 L 101 1188 Z M 184 0 L 43 0 L 233 1079 L 375 1079 L 184 0 Z" unicode="" />
<glyph horiz-adv-x="492" d="M 43 0 L 43 0 Z M 498 1182 C 470 1182 450 1192 437 1212 C 423 1232 419 1257 424 1288 C 428 1316 439 1338 456 1354 C 472 1370 494 1378 522 1378 C 550 1378 570 1368 583 1348 C 596 1328 600 1304 596 1276 C 591 1245 580 1222 564 1206 C 547 1190 525 1182 498 1182 Z M 156 1182 C 128 1182 107 1192 94 1212 C 81 1232 77 1257 82 1288 C 86 1316 97 1338 114 1354 C 130 1370 152 1378 180 1378 C 208 1378 228 1368 241 1348 C 254 1328 258 1304 254 1276 C 249 1245 238 1222 222 1206 C 205 1190 183 1182 156 1182 Z M 184 0 L 43 0 L 233 1079 L 375 1079 L 184 0 Z" unicode="" />
<glyph horiz-adv-x="1161" d="M 555 1153 L 530 1251 L 727 1321 C 704 1345 681 1367 658 1387 C 634 1406 612 1423 592 1438 L 678 1530 C 714 1505 746 1479 776 1452 C 806 1425 832 1397 856 1368 L 1081 1448 L 1106 1350 L 918 1282 C 964 1206 997 1125 1017 1038 C 1037 950 1047 863 1047 776 C 1047 640 1032 522 1003 421 C 973 320 933 237 883 172 C 833 106 773 57 705 25 C 636 -6 563 -23 485 -23 C 417 -23 356 -11 302 10 C 248 32 202 64 165 104 C 128 144 100 192 80 248 C 60 304 51 365 51 432 C 51 540 67 634 100 714 C 133 794 175 859 226 911 C 277 962 334 1000 397 1025 C 459 1050 520 1063 580 1063 C 668 1063 739 1045 793 1011 C 846 976 888 929 918 870 C 913 946 899 1015 876 1077 C 853 1138 826 1192 795 1239 L 555 1153 Z M 483 96 C 538 96 590 107 640 130 C 689 152 732 185 768 229 C 804 272 833 326 855 390 C 876 454 887 526 887 608 C 887 655 880 699 868 740 C 856 781 837 817 812 847 C 787 877 755 901 716 919 C 676 937 630 946 578 946 C 529 946 482 934 436 911 C 390 888 349 855 313 812 C 277 768 249 715 227 651 C 205 587 195 515 195 434 C 195 386 200 342 211 301 C 222 259 239 223 263 193 C 286 163 316 139 353 122 C 389 104 433 96 483 96 Z" unicode="" />
<glyph horiz-adv-x="1169" d="M 31 0 L 31 0 Z M 172 0 L 31 0 L 221 1079 L 346 1079 L 332 907 C 354 931 381 954 413 978 C 444 1001 477 1022 513 1040 C 548 1058 585 1072 623 1083 C 661 1094 697 1100 733 1100 C 792 1100 842 1091 883 1075 C 923 1058 955 1035 978 1005 C 1000 975 1015 940 1021 898 C 1027 856 1026 810 1018 760 L 885 0 L 743 0 L 872 743 C 886 818 879 876 850 917 C 821 958 764 979 680 979 C 620 979 559 961 496 927 C 432 892 371 847 311 793 L 172 0 Z M 545 1417 C 572 1417 599 1411 625 1399 C 651 1387 675 1374 699 1360 C 722 1346 744 1333 764 1321 C 784 1309 803 1303 819 1303 C 849 1303 873 1311 890 1329 C 906 1346 918 1376 924 1419 L 1020 1407 C 1009 1332 987 1277 953 1241 C 919 1205 874 1188 819 1188 C 793 1188 767 1194 742 1206 C 716 1218 692 1231 669 1245 C 645 1259 623 1273 602 1285 C 580 1297 561 1303 543 1303 C 513 1303 490 1294 474 1276 C 457 1258 445 1228 438 1186 L 342 1198 C 353 1273 376 1328 410 1364 C 444 1399 489 1417 545 1417 Z" unicode="" />
<glyph horiz-adv-x="1161" d="M 51 0 L 51 0 Z M 473 -23 C 409 -23 352 -12 300 10 C 248 32 203 63 167 103 C 130 143 101 191 81 249 C 61 306 51 370 51 440 C 51 552 68 649 102 732 C 136 815 179 884 233 938 C 286 992 346 1033 413 1060 C 479 1086 545 1100 610 1100 C 673 1100 731 1089 783 1067 C 835 1045 879 1015 916 975 C 952 935 981 886 1001 829 C 1021 771 1032 707 1032 637 C 1032 526 1015 429 981 346 C 947 263 904 194 851 140 C 798 86 738 45 672 18 C 605 -9 539 -23 473 -23 Z M 483 96 C 537 96 589 108 639 133 C 688 158 731 194 769 240 C 806 286 836 343 858 410 C 880 476 891 551 891 633 C 891 679 885 724 874 766 C 863 808 846 845 822 877 C 798 909 768 934 731 953 C 694 971 650 981 600 981 C 545 981 493 968 444 942 C 394 916 351 880 315 834 C 278 787 249 730 227 664 C 205 597 195 523 195 442 C 195 394 200 350 211 308 C 222 266 239 229 262 198 C 285 166 315 141 352 123 C 388 105 432 96 483 96 Z M 717 1194 L 625 1194 L 347 1513 L 533 1513 L 717 1194 Z" unicode="" />
<glyph horiz-adv-x="1161" d="M 51 0 L 51 0 Z M 611 1194 L 518 1194 L 750 1513 L 936 1513 L 611 1194 Z M 473 -23 C 409 -23 352 -12 300 10 C 248 32 203 63 167 103 C 130 143 101 191 81 249 C 61 306 51 370 51 440 C 51 552 68 649 102 732 C 136 815 179 884 233 938 C 286 992 346 1033 413 1060 C 479 1086 545 1100 610 1100 C 673 1100 731 1089 783 1067 C 835 1045 879 1015 916 975 C 952 935 981 886 1001 829 C 1021 771 1032 707 1032 637 C 1032 526 1015 429 981 346 C 947 263 904 194 851 140 C 798 86 738 45 672 18 C 605 -9 539 -23 473 -23 Z M 483 96 C 537 96 589 108 639 133 C 688 158 731 194 769 240 C 806 286 836 343 858 410 C 880 476 891 551 891 633 C 891 679 885 724 874 766 C 863 808 846 845 822 877 C 798 909 768 934 731 953 C 694 971 650 981 600 981 C 545 981 493 968 444 942 C 394 916 351 880 315 834 C 278 787 249 730 227 664 C 205 597 195 523 195 442 C 195 394 200 350 211 308 C 222 266 239 229 262 198 C 285 166 315 141 352 123 C 388 105 432 96 483 96 Z" unicode="" />
<glyph horiz-adv-x="1161" d="M 51 0 L 51 0 Z M 435 1188 L 349 1188 L 662 1513 L 768 1513 L 967 1188 L 877 1188 L 691 1389 L 435 1188 Z M 473 -23 C 409 -23 352 -12 300 10 C 248 32 203 63 167 103 C 130 143 101 191 81 249 C 61 306 51 370 51 440 C 51 552 68 649 102 732 C 136 815 179 884 233 938 C 286 992 346 1033 413 1060 C 479 1086 545 1100 610 1100 C 673 1100 731 1089 783 1067 C 835 1045 879 1015 916 975 C 952 935 981 886 1001 829 C 1021 771 1032 707 1032 637 C 1032 526 1015 429 981 346 C 947 263 904 194 851 140 C 798 86 738 45 672 18 C 605 -9 539 -23 473 -23 Z M 483 96 C 537 96 589 108 639 133 C 688 158 731 194 769 240 C 806 286 836 343 858 410 C 880 476 891 551 891 633 C 891 679 885 724 874 766 C 863 808 846 845 822 877 C 798 909 768 934 731 953 C 694 971 650 981 600 981 C 545 981 493 968 444 942 C 394 916 351 880 315 834 C 278 787 249 730 227 664 C 205 597 195 523 195 442 C 195 394 200 350 211 308 C 222 266 239 229 262 198 C 285 166 315 141 352 123 C 388 105 432 96 483 96 Z" unicode="" />
<glyph horiz-adv-x="1161" d="M 51 0 L 51 0 Z M 473 -23 C 409 -23 352 -12 300 10 C 248 32 203 63 167 103 C 130 143 101 191 81 249 C 61 306 51 370 51 440 C 51 552 68 649 102 732 C 136 815 179 884 233 938 C 286 992 346 1033 413 1060 C 479 1086 545 1100 610 1100 C 673 1100 731 1089 783 1067 C 835 1045 879 1015 916 975 C 952 935 981 886 1001 829 C 1021 771 1032 707 1032 637 C 1032 526 1015 429 981 346 C 947 263 904 194 851 140 C 798 86 738 45 672 18 C 605 -9 539 -23 473 -23 Z M 483 96 C 537 96 589 108 639 133 C 688 158 731 194 769 240 C 806 286 836 343 858 410 C 880 476 891 551 891 633 C 891 679 885 724 874 766 C 863 808 846 845 822 877 C 798 909 768 934 731 953 C 694 971 650 981 600 981 C 545 981 493 968 444 942 C 394 916 351 880 315 834 C 278 787 249 730 227 664 C 205 597 195 523 195 442 C 195 394 200 350 211 308 C 222 266 239 229 262 198 C 285 166 315 141 352 123 C 388 105 432 96 483 96 Z M 541 1417 C 568 1417 595 1411 621 1399 C 647 1387 671 1374 695 1360 C 718 1346 740 1333 760 1321 C 780 1309 799 1303 815 1303 C 845 1303 869 1311 886 1329 C 902 1346 914 1376 920 1419 L 1016 1407 C 1005 1332 983 1277 949 1241 C 915 1205 870 1188 815 1188 C 789 1188 763 1194 738 1206 C 712 1218 688 1231 665 1245 C 641 1259 619 1273 598 1285 C 576 1297 557 1303 539 1303 C 509 1303 486 1294 470 1276 C 453 1258 441 1228 434 1186 L 338 1198 C 349 1273 372 1328 406 1364 C 440 1399 485 1417 541 1417 Z" unicode="" />
<glyph horiz-adv-x="1161" d="M 51 0 L 51 0 Z M 832 1182 C 804 1182 784 1192 771 1212 C 757 1232 753 1257 758 1288 C 762 1316 773 1338 790 1354 C 806 1370 828 1378 856 1378 C 884 1378 904 1368 917 1348 C 930 1328 934 1304 930 1276 C 925 1245 914 1222 898 1206 C 881 1190 859 1182 832 1182 Z M 490 1182 C 462 1182 441 1192 428 1212 C 415 1232 411 1257 416 1288 C 420 1316 431 1338 448 1354 C 464 1370 486 1378 514 1378 C 542 1378 562 1368 575 1348 C 588 1328 592 1304 588 1276 C 583 1245 572 1222 556 1206 C 539 1190 517 1182 490 1182 Z M 473 -23 C 409 -23 352 -12 300 10 C 248 32 203 63 167 103 C 130 143 101 191 81 249 C 61 306 51 370 51 440 C 51 552 68 649 102 732 C 136 815 179 884 233 938 C 286 992 346 1033 413 1060 C 479 1086 545 1100 610 1100 C 673 1100 731 1089 783 1067 C 835 1045 879 1015 916 975 C 952 935 981 886 1001 829 C 1021 771 1032 707 1032 637 C 1032 526 1015 429 981 346 C 947 263 904 194 851 140 C 798 86 738 45 672 18 C 605 -9 539 -23 473 -23 Z M 483 96 C 537 96 589 108 639 133 C 688 158 731 194 769 240 C 806 286 836 343 858 410 C 880 476 891 551 891 633 C 891 679 885 724 874 766 C 863 808 846 845 822 877 C 798 909 768 934 731 953 C 694 971 650 981 600 981 C 545 981 493 968 444 942 C 394 916 351 880 315 834 C 278 787 249 730 227 664 C 205 597 195 523 195 442 C 195 394 200 350 211 308 C 222 266 239 229 262 198 C 285 166 315 141 352 123 C 388 105 432 96 483 96 Z" unicode="" />
<glyph horiz-adv-x="1303" d="M 629 934 C 600 934 577 943 561 961 C 545 979 537 1003 537 1034 C 537 1064 545 1089 561 1107 C 577 1125 600 1135 629 1135 C 657 1135 680 1125 698 1107 C 716 1089 725 1064 725 1034 C 725 1003 716 979 698 961 C 680 943 657 934 629 934 Z M 1153 612 L 119 612 L 119 735 L 1153 735 L 1153 612 Z M 629 207 C 600 207 577 216 561 234 C 545 252 537 277 537 309 C 537 339 545 364 561 382 C 577 400 600 410 629 410 C 657 410 680 400 698 382 C 716 364 725 339 725 309 C 725 277 716 252 698 234 C 680 216 657 207 629 207 Z" unicode="" />
<glyph horiz-adv-x="1161" d="M 600 983 C 545 983 493 970 444 944 C 394 918 351 881 315 834 C 278 787 249 730 227 664 C 205 597 195 523 195 442 C 195 406 197 371 203 337 C 208 303 217 273 229 246 L 807 899 C 783 925 754 946 720 961 C 686 975 646 983 600 983 Z M 483 94 C 537 94 589 106 639 132 C 689 157 732 193 770 240 C 807 286 837 343 859 410 C 881 476 893 551 893 633 C 893 669 889 703 883 736 C 877 769 867 799 854 827 L 276 176 C 298 150 327 130 361 116 C 395 101 436 94 483 94 Z M 473 -23 C 415 -23 363 -14 315 3 C 267 20 226 45 190 78 L 59 -68 L -10 -8 L 133 145 C 106 183 86 227 72 277 C 58 327 51 381 51 440 C 51 552 68 649 102 732 C 136 815 179 884 233 938 C 286 992 346 1033 413 1060 C 479 1086 545 1100 610 1100 C 666 1100 717 1091 765 1073 C 813 1055 855 1029 891 997 L 1026 1147 L 1096 1085 L 952 928 C 978 890 997 846 1011 797 C 1025 747 1032 694 1032 637 C 1032 526 1015 429 981 346 C 947 263 904 194 851 140 C 798 86 738 45 672 18 C 605 -9 539 -23 473 -23 Z" unicode="" />
<glyph horiz-adv-x="1165" d="M 70 0 L 70 0 Z M 360 -23 C 301 -23 252 -14 212 2 C 172 18 140 42 118 72 C 95 102 80 137 74 179 C 68 221 69 267 78 317 L 211 1079 L 352 1079 L 221 334 C 208 258 216 200 245 159 C 274 118 330 98 414 98 C 472 98 533 115 595 150 C 657 184 718 229 778 285 L 918 1079 L 1059 1079 L 868 0 L 743 0 L 758 172 C 735 148 708 124 677 101 C 646 77 613 56 579 38 C 544 20 508 5 470 -6 C 432 -17 396 -23 360 -23 Z M 719 1194 L 627 1194 L 349 1513 L 535 1513 L 719 1194 Z" unicode="" />
<glyph horiz-adv-x="1165" d="M 70 0 L 70 0 Z M 613 1194 L 520 1194 L 752 1513 L 938 1513 L 613 1194 Z M 360 -23 C 301 -23 252 -14 212 2 C 172 18 140 42 118 72 C 95 102 80 137 74 179 C 68 221 69 267 78 317 L 211 1079 L 352 1079 L 221 334 C 208 258 216 200 245 159 C 274 118 330 98 414 98 C 472 98 533 115 595 150 C 657 184 718 229 778 285 L 918 1079 L 1059 1079 L 868 0 L 743 0 L 758 172 C 735 148 708 124 677 101 C 646 77 613 56 579 38 C 544 20 508 5 470 -6 C 432 -17 396 -23 360 -23 Z" unicode="" />
<glyph horiz-adv-x="1165" d="M 70 0 L 70 0 Z M 435 1188 L 349 1188 L 662 1513 L 768 1513 L 967 1188 L 877 1188 L 691 1389 L 435 1188 Z M 360 -23 C 301 -23 252 -14 212 2 C 172 18 140 42 118 72 C 95 102 80 137 74 179 C 68 221 69 267 78 317 L 211 1079 L 352 1079 L 221 334 C 208 258 216 200 245 159 C 274 118 330 98 414 98 C 472 98 533 115 595 150 C 657 184 718 229 778 285 L 918 1079 L 1059 1079 L 868 0 L 743 0 L 758 172 C 735 148 708 124 677 101 C 646 77 613 56 579 38 C 544 20 508 5 470 -6 C 432 -17 396 -23 360 -23 Z" unicode="" />
<glyph horiz-adv-x="1165" d="M 70 0 L 70 0 Z M 832 1182 C 804 1182 784 1192 771 1212 C 757 1232 753 1257 758 1288 C 762 1316 773 1338 790 1354 C 806 1370 828 1378 856 1378 C 884 1378 904 1368 917 1348 C 930 1328 934 1304 930 1276 C 925 1245 914 1222 898 1206 C 881 1190 859 1182 832 1182 Z M 490 1182 C 462 1182 441 1192 428 1212 C 415 1232 411 1257 416 1288 C 420 1316 431 1338 448 1354 C 464 1370 486 1378 514 1378 C 542 1378 562 1368 575 1348 C 588 1328 592 1304 588 1276 C 583 1245 572 1222 556 1206 C 539 1190 517 1182 490 1182 Z M 360 -23 C 301 -23 252 -14 212 2 C 172 18 140 42 118 72 C 95 102 80 137 74 179 C 68 221 69 267 78 317 L 211 1079 L 352 1079 L 221 334 C 208 258 216 200 245 159 C 274 118 330 98 414 98 C 472 98 533 115 595 150 C 657 184 718 229 778 285 L 918 1079 L 1059 1079 L 868 0 L 743 0 L 758 172 C 735 148 708 124 677 101 C 646 77 613 56 579 38 C 544 20 508 5 470 -6 C 432 -17 396 -23 360 -23 Z" unicode="" />
<glyph horiz-adv-x="1059" d="M 0 0 L 0 0 Z M 43 -414 C 12 -414 -17 -411 -46 -406 C -74 -401 -97 -395 -115 -389 L -102 -260 C -84 -268 -62 -275 -38 -282 C -13 -289 14 -293 45 -293 C 93 -293 132 -278 164 -250 C 195 -222 223 -185 248 -141 L 324 -6 L 115 1067 L 258 1092 L 424 168 L 428 168 L 913 1079 L 1063 1079 L 362 -182 C 340 -222 318 -256 297 -286 C 275 -316 252 -340 228 -359 C 203 -377 176 -391 146 -400 C 116 -409 81 -414 43 -414 Z M 560 1194 L 467 1194 L 699 1513 L 885 1513 L 560 1194 Z" unicode="" />
<glyph horiz-adv-x="1194" d="M 528 100 C 569 100 613 109 659 128 C 705 146 748 177 787 219 C 825 261 857 317 883 387 C 909 457 922 542 922 643 C 922 697 915 745 901 787 C 887 829 868 864 844 892 C 819 920 789 942 755 957 C 721 971 683 979 643 979 C 613 979 583 974 553 965 C 523 955 493 943 465 927 C 437 911 409 893 383 872 C 357 850 333 827 313 803 L 215 252 C 257 205 302 168 349 141 C 396 113 456 100 528 100 Z M 102 -399 L -43 -420 L 295 1505 L 440 1526 L 334 926 C 352 948 374 969 400 990 C 426 1011 454 1030 484 1046 C 514 1062 545 1075 578 1085 C 611 1095 644 1100 678 1100 C 736 1100 789 1090 837 1071 C 885 1051 925 1023 959 986 C 993 949 1019 903 1037 849 C 1055 795 1065 733 1065 664 C 1065 544 1049 440 1017 354 C 985 268 943 197 893 142 C 842 87 785 47 722 21 C 659 -5 597 -18 537 -18 C 465 -18 401 -3 345 25 C 289 53 239 91 197 137 L 102 -399 Z" unicode="" />
<glyph horiz-adv-x="1059" d="M 0 0 L 0 0 Z M 43 -414 C 12 -414 -17 -411 -46 -406 C -74 -401 -97 -395 -115 -389 L -102 -260 C -84 -268 -62 -275 -38 -282 C -13 -289 14 -293 45 -293 C 93 -293 132 -278 164 -250 C 195 -222 223 -185 248 -141 L 324 -6 L 115 1067 L 258 1092 L 424 168 L 428 168 L 913 1079 L 1063 1079 L 362 -182 C 340 -222 318 -256 297 -286 C 275 -316 252 -340 228 -359 C 203 -377 176 -391 146 -400 C 116 -409 81 -414 43 -414 Z M 778 1182 C 750 1182 730 1192 717 1212 C 703 1232 699 1257 704 1288 C 708 1316 719 1338 736 1354 C 752 1370 774 1378 802 1378 C 830 1378 850 1368 863 1348 C 876 1328 880 1304 876 1276 C 871 1245 860 1222 844 1206 C 827 1190 805 1182 778 1182 Z M 436 1182 C 408 1182 387 1192 374 1212 C 361 1232 357 1257 362 1288 C 366 1316 377 1338 394 1354 C 410 1370 432 1378 460 1378 C 488 1378 508 1368 521 1348 C 534 1328 538 1304 534 1276 C 529 1245 518 1222 502 1206 C 485 1190 463 1182 436 1182 Z" unicode="" />
<glyph horiz-adv-x="1358" d="M 0 0 L 0 0 Z M 90 0 L -59 0 L 735 1522 L 893 1522 L 1149 12 L 1008 -12 L 930 473 L 334 473 L 90 0 Z M 784 1350 L 397 600 L 909 600 L 788 1350 L 784 1350 Z M 1080 1608 L 578 1608 L 598 1729 L 1100 1729 L 1080 1608 Z" unicode="" />
<glyph horiz-adv-x="1118" d="M 6 0 L 6 0 Z M 340 98 C 405 98 472 113 540 143 C 608 173 675 215 739 268 L 797 596 C 667 582 559 564 475 541 C 391 517 325 490 277 460 C 229 430 195 396 177 360 C 159 324 150 286 150 248 C 150 202 166 165 198 138 C 230 111 278 98 340 98 Z M 299 -18 C 204 -18 131 4 81 49 C 31 93 6 151 6 221 C 6 281 20 337 49 391 C 77 444 123 491 187 532 C 250 573 333 608 437 636 C 541 664 667 684 815 696 L 825 752 C 839 824 831 880 799 920 C 767 960 707 981 621 981 C 585 981 548 976 512 968 C 476 960 441 949 409 936 C 376 922 345 907 316 890 C 287 872 262 855 242 838 L 166 928 C 192 948 221 969 254 990 C 287 1010 323 1029 363 1045 C 402 1061 445 1075 491 1085 C 537 1095 587 1100 639 1100 C 708 1100 766 1091 812 1073 C 858 1055 893 1029 919 997 C 944 965 960 926 966 881 C 972 835 971 786 963 733 L 834 0 L 702 0 L 721 154 C 649 98 577 55 504 26 C 431 -3 363 -18 299 -18 Z M 887 1194 L 385 1194 L 405 1315 L 907 1315 L 887 1194 Z" unicode="" />
<glyph horiz-adv-x="1358" d="M 0 0 L 0 0 Z M 90 0 L -59 0 L 735 1522 L 893 1522 L 1149 12 L 1008 -12 L 930 473 L 334 473 L 90 0 Z M 784 1350 L 397 600 L 909 600 L 788 1350 L 784 1350 Z M 854 1602 C 804 1602 762 1610 726 1626 C 690 1642 662 1664 640 1694 C 618 1723 602 1758 593 1800 C 584 1841 582 1887 586 1938 L 676 1938 C 676 1858 690 1801 717 1766 C 743 1731 792 1714 862 1714 C 916 1714 963 1731 1004 1765 C 1044 1799 1074 1856 1094 1938 L 1184 1938 C 1166 1833 1129 1751 1071 1691 C 1013 1631 941 1602 854 1602 Z" unicode="" />
<glyph horiz-adv-x="1118" d="M 6 0 L 6 0 Z M 340 98 C 405 98 472 113 540 143 C 608 173 675 215 739 268 L 797 596 C 667 582 559 564 475 541 C 391 517 325 490 277 460 C 229 430 195 396 177 360 C 159 324 150 286 150 248 C 150 202 166 165 198 138 C 230 111 278 98 340 98 Z M 299 -18 C 204 -18 131 4 81 49 C 31 93 6 151 6 221 C 6 281 20 337 49 391 C 77 444 123 491 187 532 C 250 573 333 608 437 636 C 541 664 667 684 815 696 L 825 752 C 839 824 831 880 799 920 C 767 960 707 981 621 981 C 585 981 548 976 512 968 C 476 960 441 949 409 936 C 376 922 345 907 316 890 C 287 872 262 855 242 838 L 166 928 C 192 948 221 969 254 990 C 287 1010 323 1029 363 1045 C 402 1061 445 1075 491 1085 C 537 1095 587 1100 639 1100 C 708 1100 766 1091 812 1073 C 858 1055 893 1029 919 997 C 944 965 960 926 966 881 C 972 835 971 786 963 733 L 834 0 L 702 0 L 721 154 C 649 98 577 55 504 26 C 431 -3 363 -18 299 -18 Z M 661 1188 C 611 1188 569 1196 533 1212 C 497 1228 469 1250 447 1280 C 425 1309 409 1344 400 1386 C 391 1427 389 1473 393 1524 L 483 1524 C 483 1444 497 1387 524 1352 C 550 1317 599 1300 669 1300 C 723 1300 770 1317 811 1351 C 851 1385 881 1442 901 1524 L 991 1524 C 973 1419 936 1337 878 1277 C 820 1217 748 1188 661 1188 Z" unicode="" />
<glyph horiz-adv-x="1358" d="M 993 -383 C 925 -383 876 -369 844 -342 C 812 -314 797 -280 797 -240 C 797 -214 802 -190 813 -168 C 823 -146 838 -124 856 -104 C 874 -84 896 -64 922 -46 C 948 -28 975 -10 1005 7 L 930 473 L 334 473 L 90 0 L -59 0 L 735 1522 L 893 1522 L 1149 12 L 1106 5 C 1051 -29 1006 -65 972 -103 C 937 -140 920 -179 920 -221 C 920 -244 928 -263 944 -278 C 960 -293 988 -301 1028 -301 C 1050 -301 1075 -298 1101 -293 C 1127 -288 1159 -279 1196 -266 L 1217 -319 C 1181 -338 1144 -353 1106 -365 C 1068 -377 1031 -383 993 -383 Z M 784 1350 L 397 600 L 909 600 L 788 1350 L 784 1350 Z" unicode="" />
<glyph horiz-adv-x="1118" d="M 340 98 C 405 98 472 113 540 143 C 608 173 675 215 739 268 L 797 596 C 667 582 559 564 475 541 C 391 517 325 490 277 460 C 229 430 195 396 177 360 C 159 324 150 286 150 248 C 150 202 166 165 198 138 C 230 111 278 98 340 98 Z M 928 -319 C 892 -338 854 -353 816 -365 C 778 -377 741 -383 705 -383 C 637 -383 588 -369 556 -342 C 524 -314 508 -280 508 -240 C 508 -190 526 -146 564 -108 C 601 -70 647 -34 703 0 L 702 0 L 721 154 C 649 98 577 55 504 26 C 431 -3 363 -18 299 -18 C 204 -18 131 4 81 49 C 31 93 6 151 6 221 C 6 281 20 337 49 391 C 77 444 123 491 187 532 C 250 573 333 608 437 636 C 541 664 667 684 815 696 L 825 752 C 839 824 831 880 799 920 C 767 960 707 981 621 981 C 585 981 548 976 512 968 C 476 960 441 949 409 936 C 376 922 345 907 316 890 C 287 872 262 855 242 838 L 166 928 C 192 948 221 969 254 990 C 287 1010 323 1029 363 1045 C 402 1061 445 1075 491 1085 C 537 1095 587 1100 639 1100 C 708 1100 766 1091 812 1073 C 858 1055 893 1029 919 997 C 944 965 960 926 966 881 C 972 835 971 786 963 733 L 834 0 L 810 0 C 757 -34 714 -69 681 -106 C 647 -142 631 -181 631 -221 C 631 -244 639 -263 655 -278 C 671 -293 698 -301 737 -301 C 760 -301 785 -298 812 -293 C 838 -288 869 -279 905 -266 L 928 -319 Z" unicode="" />
<glyph horiz-adv-x="1411" d="M 102 0 L 102 0 Z M 809 1608 L 716 1608 L 948 1927 L 1134 1927 L 809 1608 Z M 643 -29 C 555 -29 478 -13 411 17 C 343 48 287 91 241 146 C 195 201 161 267 137 345 C 113 423 102 508 102 600 C 102 739 121 867 161 984 C 201 1100 254 1200 320 1282 C 386 1364 463 1429 551 1475 C 639 1521 731 1544 827 1544 C 975 1544 1087 1511 1165 1447 C 1243 1383 1294 1294 1319 1182 L 1182 1143 C 1165 1230 1129 1296 1073 1342 C 1017 1388 931 1411 817 1411 C 743 1411 671 1392 603 1354 C 534 1316 473 1263 421 1193 C 369 1123 327 1038 295 937 C 263 836 248 723 248 598 C 248 522 256 454 274 393 C 292 331 317 279 351 236 C 385 193 427 160 477 137 C 527 113 585 102 649 102 C 751 102 837 127 908 177 C 979 227 1042 311 1098 428 L 1221 367 C 1159 238 1080 140 985 72 C 889 4 775 -29 643 -29 Z" unicode="" />
<glyph horiz-adv-x="1067" d="M 51 0 L 51 0 Z M 564 1194 L 471 1194 L 703 1513 L 889 1513 L 564 1194 Z M 455 -23 C 394 -23 339 -12 289 10 C 239 32 196 63 161 103 C 126 143 99 192 80 250 C 60 308 51 372 51 442 C 51 562 69 664 105 748 C 141 832 186 900 240 952 C 294 1004 354 1041 418 1065 C 482 1088 543 1100 600 1100 C 656 1100 705 1093 747 1081 C 789 1068 824 1050 853 1028 C 882 1006 906 979 925 949 C 943 918 959 885 971 850 L 848 797 C 828 861 798 907 758 937 C 718 966 662 981 590 981 C 539 981 490 969 442 946 C 394 923 351 889 315 844 C 278 799 248 743 226 675 C 204 607 193 528 193 440 C 193 334 217 250 265 188 C 313 126 380 96 467 96 C 502 96 534 99 562 107 C 590 115 617 127 641 143 C 665 159 687 181 709 207 C 731 233 753 264 776 301 L 879 236 C 835 156 779 93 712 47 C 645 0 559 -23 455 -23 Z" unicode="" />
<glyph horiz-adv-x="1411" d="M 102 0 L 102 0 Z M 631 1610 L 545 1610 L 858 1935 L 964 1935 L 1163 1610 L 1073 1610 L 887 1811 L 631 1610 Z M 643 -29 C 555 -29 478 -13 411 17 C 343 48 287 91 241 146 C 195 201 161 267 137 345 C 113 423 102 508 102 600 C 102 739 121 867 161 984 C 201 1100 254 1200 320 1282 C 386 1364 463 1429 551 1475 C 639 1521 731 1544 827 1544 C 975 1544 1087 1511 1165 1447 C 1243 1383 1294 1294 1319 1182 L 1182 1143 C 1165 1230 1129 1296 1073 1342 C 1017 1388 931 1411 817 1411 C 743 1411 671 1392 603 1354 C 534 1316 473 1263 421 1193 C 369 1123 327 1038 295 937 C 263 836 248 723 248 598 C 248 522 256 454 274 393 C 292 331 317 279 351 236 C 385 193 427 160 477 137 C 527 113 585 102 649 102 C 751 102 837 127 908 177 C 979 227 1042 311 1098 428 L 1221 367 C 1159 238 1080 140 985 72 C 889 4 775 -29 643 -29 Z" unicode="" />
<glyph horiz-adv-x="1067" d="M 51 0 L 51 0 Z M 390 1188 L 304 1188 L 617 1513 L 723 1513 L 922 1188 L 832 1188 L 646 1389 L 390 1188 Z M 455 -23 C 394 -23 339 -12 289 10 C 239 32 196 63 161 103 C 126 143 99 192 80 250 C 60 308 51 372 51 442 C 51 562 69 664 105 748 C 141 832 186 900 240 952 C 294 1004 354 1041 418 1065 C 482 1088 543 1100 600 1100 C 656 1100 705 1093 747 1081 C 789 1068 824 1050 853 1028 C 882 1006 906 979 925 949 C 943 918 959 885 971 850 L 848 797 C 828 861 798 907 758 937 C 718 966 662 981 590 981 C 539 981 490 969 442 946 C 394 923 351 889 315 844 C 278 799 248 743 226 675 C 204 607 193 528 193 440 C 193 334 217 250 265 188 C 313 126 380 96 467 96 C 502 96 534 99 562 107 C 590 115 617 127 641 143 C 665 159 687 181 709 207 C 731 233 753 264 776 301 L 879 236 C 835 156 779 93 712 47 C 645 0 559 -23 455 -23 Z" unicode="" />
<glyph horiz-adv-x="1411" d="M 102 0 L 102 0 Z M 643 -29 C 555 -29 478 -13 411 17 C 343 48 287 91 241 146 C 195 201 161 267 137 345 C 113 423 102 508 102 600 C 102 739 121 867 161 984 C 201 1100 254 1200 320 1282 C 386 1364 463 1429 551 1475 C 639 1521 731 1544 827 1544 C 975 1544 1087 1511 1165 1447 C 1243 1383 1294 1294 1319 1182 L 1182 1143 C 1165 1230 1129 1296 1073 1342 C 1017 1388 931 1411 817 1411 C 743 1411 671 1392 603 1354 C 534 1316 473 1263 421 1193 C 369 1123 327 1038 295 937 C 263 836 248 723 248 598 C 248 522 256 454 274 393 C 292 331 317 279 351 236 C 385 193 427 160 477 137 C 527 113 585 102 649 102 C 751 102 837 127 908 177 C 979 227 1042 311 1098 428 L 1221 367 C 1159 238 1080 140 985 72 C 889 4 775 -29 643 -29 Z M 858 1610 C 827 1610 804 1620 790 1640 C 776 1660 771 1687 776 1720 C 780 1750 792 1774 811 1790 C 830 1806 854 1815 884 1815 C 916 1815 939 1804 955 1784 C 970 1764 975 1738 970 1708 C 965 1675 953 1650 934 1634 C 914 1618 889 1610 858 1610 Z" unicode="" />
<glyph horiz-adv-x="1067" d="M 51 0 L 51 0 Z M 455 -23 C 394 -23 339 -12 289 10 C 239 32 196 63 161 103 C 126 143 99 192 80 250 C 60 308 51 372 51 442 C 51 562 69 664 105 748 C 141 832 186 900 240 952 C 294 1004 354 1041 418 1065 C 482 1088 543 1100 600 1100 C 656 1100 705 1093 747 1081 C 789 1068 824 1050 853 1028 C 882 1006 906 979 925 949 C 943 918 959 885 971 850 L 848 797 C 828 861 798 907 758 937 C 718 966 662 981 590 981 C 539 981 490 969 442 946 C 394 923 351 889 315 844 C 278 799 248 743 226 675 C 204 607 193 528 193 440 C 193 334 217 250 265 188 C 313 126 380 96 467 96 C 502 96 534 99 562 107 C 590 115 617 127 641 143 C 665 159 687 181 709 207 C 731 233 753 264 776 301 L 879 236 C 835 156 779 93 712 47 C 645 0 559 -23 455 -23 Z M 617 1188 C 586 1188 563 1198 549 1218 C 535 1238 530 1265 535 1298 C 539 1328 551 1352 570 1368 C 589 1384 613 1393 643 1393 C 675 1393 698 1382 714 1362 C 729 1342 734 1316 729 1286 C 724 1253 712 1228 693 1212 C 673 1196 648 1188 617 1188 Z" unicode="" />
<glyph horiz-adv-x="1411" d="M 102 0 L 102 0 Z M 909 1610 L 801 1610 L 602 1936 L 692 1936 L 878 1735 L 1134 1936 L 1220 1936 L 909 1610 Z M 643 -29 C 555 -29 478 -13 411 17 C 343 48 287 91 241 146 C 195 201 161 267 137 345 C 113 423 102 508 102 600 C 102 739 121 867 161 984 C 201 1100 254 1200 320 1282 C 386 1364 463 1429 551 1475 C 639 1521 731 1544 827 1544 C 975 1544 1087 1511 1165 1447 C 1243 1383 1294 1294 1319 1182 L 1182 1143 C 1165 1230 1129 1296 1073 1342 C 1017 1388 931 1411 817 1411 C 743 1411 671 1392 603 1354 C 534 1316 473 1263 421 1193 C 369 1123 327 1038 295 937 C 263 836 248 723 248 598 C 248 522 256 454 274 393 C 292 331 317 279 351 236 C 385 193 427 160 477 137 C 527 113 585 102 649 102 C 751 102 837 127 908 177 C 979 227 1042 311 1098 428 L 1221 367 C 1159 238 1080 140 985 72 C 889 4 775 -29 643 -29 Z" unicode="" />
<glyph horiz-adv-x="1067" d="M 51 0 L 51 0 Z M 663 1196 L 555 1196 L 356 1522 L 446 1522 L 632 1321 L 888 1522 L 974 1522 L 663 1196 Z M 455 -23 C 394 -23 339 -12 289 10 C 239 32 196 63 161 103 C 126 143 99 192 80 250 C 60 308 51 372 51 442 C 51 562 69 664 105 748 C 141 832 186 900 240 952 C 294 1004 354 1041 418 1065 C 482 1088 543 1100 600 1100 C 656 1100 705 1093 747 1081 C 789 1068 824 1050 853 1028 C 882 1006 906 979 925 949 C 943 918 959 885 971 850 L 848 797 C 828 861 798 907 758 937 C 718 966 662 981 590 981 C 539 981 490 969 442 946 C 394 923 351 889 315 844 C 278 799 248 743 226 675 C 204 607 193 528 193 440 C 193 334 217 250 265 188 C 313 126 380 96 467 96 C 502 96 534 99 562 107 C 590 115 617 127 641 143 C 665 159 687 181 709 207 C 731 233 753 264 776 301 L 879 236 C 835 156 779 93 712 47 C 645 0 559 -23 455 -23 Z" unicode="" />
<glyph horiz-adv-x="1432" d="M 61 0 L 61 0 Z M 899 1610 L 791 1610 L 592 1936 L 682 1936 L 868 1735 L 1124 1936 L 1210 1936 L 899 1610 Z M 467 0 L 61 0 L 328 1516 L 647 1516 C 761 1516 860 1501 946 1473 C 1032 1445 1103 1404 1160 1352 C 1216 1299 1259 1234 1288 1158 C 1316 1082 1331 996 1331 901 C 1331 755 1312 626 1274 514 C 1236 401 1180 307 1107 231 C 1034 155 944 98 836 59 C 728 19 605 0 467 0 Z M 451 1386 L 229 127 L 492 127 C 602 127 700 143 786 175 C 872 207 945 256 1004 320 C 1062 384 1107 463 1138 559 C 1168 655 1184 765 1184 891 C 1184 1047 1140 1169 1053 1256 C 965 1342 829 1386 645 1386 L 451 1386 Z" unicode="" />
<glyph horiz-adv-x="1194" d="M 51 0 L 51 0 Z M 473 100 C 530 100 586 114 640 144 C 694 174 749 217 805 274 L 903 825 C 866 869 822 906 770 935 C 718 964 658 979 588 979 C 547 979 503 969 457 951 C 411 932 368 901 330 859 C 291 816 259 759 233 689 C 207 619 195 532 195 430 C 195 376 201 329 215 288 C 228 246 247 212 271 184 C 295 156 325 135 359 121 C 393 107 431 100 473 100 Z M 1165 1528 L 897 0 L 766 0 L 784 156 C 764 132 742 110 716 89 C 690 67 662 49 632 33 C 602 17 570 5 537 -4 C 504 -13 471 -18 438 -18 C 381 -18 329 -8 281 10 C 233 28 193 56 159 92 C 125 128 98 174 79 228 C 60 282 51 345 51 416 C 51 538 67 642 100 729 C 133 816 175 887 226 942 C 277 996 334 1036 397 1062 C 459 1087 520 1100 580 1100 C 621 1100 659 1095 694 1085 C 729 1075 761 1062 790 1047 C 818 1032 844 1016 866 998 C 888 980 908 962 924 946 L 1020 1503 L 1165 1528 Z M 1280 1131 L 1194 1131 L 1309 1516 L 1481 1516 L 1280 1131 Z" unicode="" />
<glyph horiz-adv-x="1432" d="M 20 0 L 20 0 Z M 467 0 L 61 0 L 190 737 L 20 737 L 43 860 L 211 860 L 328 1516 L 645 1516 C 759 1516 859 1501 945 1473 C 1031 1445 1103 1404 1160 1352 C 1216 1299 1259 1234 1288 1158 C 1316 1082 1331 996 1331 901 C 1331 755 1312 626 1274 514 C 1236 401 1180 307 1107 231 C 1034 155 944 98 836 59 C 728 19 605 0 467 0 Z M 336 737 L 229 131 L 494 131 C 604 131 702 147 788 179 C 874 211 946 258 1004 322 C 1062 385 1107 464 1138 560 C 1168 655 1184 765 1184 891 C 1184 1047 1139 1168 1049 1253 C 959 1337 824 1380 643 1380 L 449 1380 L 356 860 L 684 860 L 664 737 L 336 737 Z" unicode="" />
<glyph horiz-adv-x="1194" d="M 473 100 C 530 100 586 114 640 144 C 694 174 749 217 805 274 L 903 825 C 866 869 822 906 770 935 C 718 964 658 979 588 979 C 547 979 503 969 457 951 C 411 932 368 901 330 859 C 291 816 259 759 233 689 C 207 619 195 532 195 430 C 195 376 201 329 215 288 C 228 246 247 212 271 184 C 295 156 325 135 359 121 C 393 107 431 100 473 100 Z M 784 156 C 764 132 742 110 716 89 C 690 67 662 49 632 33 C 602 17 570 5 537 -4 C 504 -13 471 -18 438 -18 C 381 -18 329 -8 281 10 C 233 28 193 56 159 92 C 125 128 98 174 79 228 C 60 282 51 345 51 416 C 51 538 67 642 100 729 C 133 816 175 887 226 942 C 277 996 334 1036 397 1062 C 459 1087 520 1100 580 1100 C 621 1100 659 1095 694 1085 C 729 1075 761 1062 790 1047 C 818 1032 844 1016 866 998 C 888 980 908 962 924 946 L 973 1233 L 745 1233 L 766 1341 L 992 1341 L 1020 1503 L 1165 1528 L 1133 1341 L 1311 1341 L 1290 1233 L 1114 1233 L 897 0 L 766 0 L 784 156 Z" unicode="" />
<glyph horiz-adv-x="1217" d="M 61 0 L 61 0 Z M 989 0 L 61 0 L 328 1516 L 1212 1516 L 1188 1380 L 449 1380 L 358 866 L 905 866 L 905 735 L 336 735 L 229 133 L 1012 133 L 989 0 Z M 1027 1608 L 525 1608 L 545 1729 L 1047 1729 L 1027 1608 Z" unicode="" />
<glyph horiz-adv-x="1098" d="M 51 0 L 51 0 Z M 465 -23 C 403 -23 346 -12 295 8 C 244 29 201 59 165 98 C 129 137 101 185 81 242 C 61 298 51 362 51 432 C 51 554 69 658 107 744 C 145 829 191 898 246 950 C 300 1002 359 1040 423 1064 C 487 1088 544 1100 596 1100 C 675 1100 741 1085 795 1055 C 848 1025 889 985 918 935 C 946 885 964 825 970 757 C 976 688 972 615 958 539 L 954 512 L 193 512 C 191 499 190 486 190 473 C 190 460 190 447 190 434 C 190 370 199 316 218 272 C 236 228 260 194 288 168 C 316 142 348 123 383 112 C 418 101 452 96 485 96 C 562 96 628 110 683 140 C 738 169 792 209 844 260 L 920 168 C 886 134 852 106 819 82 C 785 58 751 38 716 22 C 680 6 642 -4 601 -12 C 560 -19 515 -23 465 -23 Z M 211 625 L 836 625 C 842 671 842 715 837 759 C 831 802 819 840 800 873 C 780 905 753 931 718 951 C 682 971 638 981 584 981 C 545 981 506 973 468 958 C 429 943 393 921 360 892 C 327 862 297 825 271 780 C 245 735 225 683 211 625 Z M 877 1194 L 375 1194 L 395 1315 L 897 1315 L 877 1194 Z" unicode="" />
<glyph horiz-adv-x="1217" d="M 61 0 L 61 0 Z M 989 0 L 61 0 L 328 1516 L 1212 1516 L 1188 1380 L 449 1380 L 358 866 L 905 866 L 905 735 L 336 735 L 229 133 L 1012 133 L 989 0 Z M 784 1610 C 734 1610 692 1618 656 1634 C 620 1650 592 1672 570 1702 C 548 1731 532 1766 523 1808 C 514 1849 512 1895 516 1946 L 606 1946 C 606 1866 620 1809 647 1774 C 673 1739 722 1722 792 1722 C 846 1722 893 1739 934 1773 C 974 1807 1004 1864 1024 1946 L 1114 1946 C 1096 1841 1059 1759 1001 1699 C 943 1639 871 1610 784 1610 Z" unicode="" />
<glyph horiz-adv-x="1098" d="M 51 0 L 51 0 Z M 465 -23 C 403 -23 346 -12 295 8 C 244 29 201 59 165 98 C 129 137 101 185 81 242 C 61 298 51 362 51 432 C 51 554 69 658 107 744 C 145 829 191 898 246 950 C 300 1002 359 1040 423 1064 C 487 1088 544 1100 596 1100 C 675 1100 741 1085 795 1055 C 848 1025 889 985 918 935 C 946 885 964 825 970 757 C 976 688 972 615 958 539 L 954 512 L 193 512 C 191 499 190 486 190 473 C 190 460 190 447 190 434 C 190 370 199 316 218 272 C 236 228 260 194 288 168 C 316 142 348 123 383 112 C 418 101 452 96 485 96 C 562 96 628 110 683 140 C 738 169 792 209 844 260 L 920 168 C 886 134 852 106 819 82 C 785 58 751 38 716 22 C 680 6 642 -4 601 -12 C 560 -19 515 -23 465 -23 Z M 211 625 L 836 625 C 842 671 842 715 837 759 C 831 802 819 840 800 873 C 780 905 753 931 718 951 C 682 971 638 981 584 981 C 545 981 506 973 468 958 C 429 943 393 921 360 892 C 327 862 297 825 271 780 C 245 735 225 683 211 625 Z M 651 1188 C 601 1188 559 1196 523 1212 C 487 1228 459 1250 437 1280 C 415 1309 399 1344 390 1386 C 381 1427 379 1473 383 1524 L 473 1524 C 473 1444 487 1387 514 1352 C 540 1317 589 1300 659 1300 C 713 1300 760 1317 801 1351 C 841 1385 871 1442 891 1524 L 981 1524 C 963 1419 926 1337 868 1277 C 810 1217 738 1188 651 1188 Z" unicode="" />
<glyph horiz-adv-x="1217" d="M 61 0 L 61 0 Z M 989 0 L 61 0 L 328 1516 L 1212 1516 L 1188 1380 L 449 1380 L 358 866 L 905 866 L 905 735 L 336 735 L 229 133 L 1012 133 L 989 0 Z M 777 1602 C 746 1602 723 1612 709 1632 C 695 1652 690 1679 695 1712 C 699 1742 711 1766 730 1782 C 749 1798 773 1807 803 1807 C 835 1807 858 1796 874 1776 C 889 1756 894 1730 889 1700 C 884 1667 872 1642 853 1626 C 833 1610 808 1602 777 1602 Z" unicode="" />
<glyph horiz-adv-x="1098" d="M 51 0 L 51 0 Z M 465 -23 C 403 -23 346 -12 295 8 C 244 29 201 59 165 98 C 129 137 101 185 81 242 C 61 298 51 362 51 432 C 51 554 69 658 107 744 C 145 829 191 898 246 950 C 300 1002 359 1040 423 1064 C 487 1088 544 1100 596 1100 C 675 1100 741 1085 795 1055 C 848 1025 889 985 918 935 C 946 885 964 825 970 757 C 976 688 972 615 958 539 L 954 512 L 193 512 C 191 499 190 486 190 473 C 190 460 190 447 190 434 C 190 370 199 316 218 272 C 236 228 260 194 288 168 C 316 142 348 123 383 112 C 418 101 452 96 485 96 C 562 96 628 110 683 140 C 738 169 792 209 844 260 L 920 168 C 886 134 852 106 819 82 C 785 58 751 38 716 22 C 680 6 642 -4 601 -12 C 560 -19 515 -23 465 -23 Z M 211 625 L 836 625 C 842 671 842 715 837 759 C 831 802 819 840 800 873 C 780 905 753 931 718 951 C 682 971 638 981 584 981 C 545 981 506 973 468 958 C 429 943 393 921 360 892 C 327 862 297 825 271 780 C 245 735 225 683 211 625 Z M 627 1188 C 596 1188 573 1198 559 1218 C 545 1238 540 1265 545 1298 C 549 1328 561 1352 580 1368 C 599 1384 623 1393 653 1393 C 685 1393 708 1382 724 1362 C 739 1342 744 1316 739 1286 C 734 1253 722 1228 703 1212 C 683 1196 658 1188 627 1188 Z" unicode="" />
<glyph horiz-adv-x="1217" d="M 991 -319 C 955 -338 918 -353 880 -365 C 842 -377 804 -383 766 -383 C 700 -383 650 -369 618 -342 C 585 -314 569 -280 569 -240 C 569 -190 587 -146 625 -108 C 663 -70 710 -34 766 0 L 61 0 L 328 1516 L 1212 1516 L 1188 1380 L 449 1380 L 358 866 L 905 866 L 905 735 L 336 735 L 229 133 L 1012 133 L 989 0 L 872 0 C 820 -34 777 -69 743 -106 C 709 -142 692 -181 692 -221 C 692 -244 700 -263 716 -278 C 732 -293 761 -301 801 -301 C 824 -301 849 -298 875 -293 C 901 -288 932 -279 969 -266 L 991 -319 Z" unicode="" />
<glyph horiz-adv-x="1098" d="M 51 0 L 51 0 Z M 475 -383 C 407 -383 358 -369 326 -342 C 294 -314 278 -280 278 -240 C 278 -214 283 -189 295 -166 C 306 -143 321 -121 341 -101 C 360 -81 383 -61 409 -42 C 435 -23 464 -5 495 12 L 600 12 C 542 -23 494 -60 457 -99 C 419 -137 401 -178 401 -221 C 401 -244 409 -263 425 -278 C 441 -293 470 -301 510 -301 C 532 -301 557 -298 583 -293 C 609 -288 641 -279 678 -266 L 698 -319 C 662 -338 626 -353 588 -365 C 550 -377 513 -383 475 -383 Z M 465 -23 C 403 -23 346 -12 295 8 C 244 29 201 59 165 98 C 129 137 101 185 81 242 C 61 298 51 362 51 432 C 51 554 69 658 107 744 C 145 829 191 898 246 950 C 300 1002 359 1040 423 1064 C 487 1088 544 1100 596 1100 C 675 1100 741 1085 795 1055 C 848 1025 889 985 918 935 C 946 885 964 825 970 757 C 976 688 972 615 958 539 L 954 512 L 193 512 C 191 499 190 486 190 473 C 190 460 190 447 190 434 C 190 370 199 316 218 272 C 236 228 260 194 288 168 C 316 142 348 123 383 112 C 418 101 452 96 485 96 C 562 96 628 110 683 140 C 738 169 792 209 844 260 L 920 168 C 886 134 852 106 819 82 C 785 58 751 38 716 22 C 680 6 642 -4 601 -12 C 560 -19 515 -23 465 -23 Z M 211 625 L 836 625 C 842 671 842 715 837 759 C 831 802 819 840 800 873 C 780 905 753 931 718 951 C 682 971 638 981 584 981 C 545 981 506 973 468 958 C 429 943 393 921 360 892 C 327 862 297 825 271 780 C 245 735 225 683 211 625 Z" unicode="" />
<glyph horiz-adv-x="1217" d="M 61 0 L 61 0 Z M 827 1610 L 719 1610 L 520 1936 L 610 1936 L 796 1735 L 1052 1936 L 1138 1936 L 827 1610 Z M 989 0 L 61 0 L 328 1516 L 1212 1516 L 1188 1380 L 449 1380 L 358 866 L 905 866 L 905 735 L 336 735 L 229 133 L 1012 133 L 989 0 Z" unicode="" />
<glyph horiz-adv-x="1098" d="M 51 0 L 51 0 Z M 678 1196 L 570 1196 L 371 1522 L 461 1522 L 647 1321 L 903 1522 L 989 1522 L 678 1196 Z M 465 -23 C 403 -23 346 -12 295 8 C 244 29 201 59 165 98 C 129 137 101 185 81 242 C 61 298 51 362 51 432 C 51 554 69 658 107 744 C 145 829 191 898 246 950 C 300 1002 359 1040 423 1064 C 487 1088 544 1100 596 1100 C 675 1100 741 1085 795 1055 C 848 1025 889 985 918 935 C 946 885 964 825 970 757 C 976 688 972 615 958 539 L 954 512 L 193 512 C 191 499 190 486 190 473 C 190 460 190 447 190 434 C 190 370 199 316 218 272 C 236 228 260 194 288 168 C 316 142 348 123 383 112 C 418 101 452 96 485 96 C 562 96 628 110 683 140 C 738 169 792 209 844 260 L 920 168 C 886 134 852 106 819 82 C 785 58 751 38 716 22 C 680 6 642 -4 601 -12 C 560 -19 515 -23 465 -23 Z M 211 625 L 836 625 C 842 671 842 715 837 759 C 831 802 819 840 800 873 C 780 905 753 931 718 951 C 682 971 638 981 584 981 C 545 981 506 973 468 958 C 429 943 393 921 360 892 C 327 862 297 825 271 780 C 245 735 225 683 211 625 Z" unicode="" />
<glyph horiz-adv-x="1462" d="M 104 0 L 104 0 Z M 656 1610 L 570 1610 L 883 1935 L 989 1935 L 1188 1610 L 1098 1610 L 912 1811 L 656 1610 Z M 635 -29 C 545 -29 467 -13 400 18 C 333 49 278 92 234 147 C 190 201 158 266 136 342 C 114 417 104 498 104 586 C 104 737 125 872 168 992 C 211 1111 267 1211 336 1293 C 405 1374 484 1436 572 1479 C 660 1522 750 1544 840 1544 C 988 1544 1102 1510 1181 1443 C 1259 1376 1309 1281 1331 1159 L 1194 1122 C 1178 1222 1141 1295 1082 1341 C 1022 1387 938 1411 829 1411 C 759 1411 689 1393 620 1358 C 550 1322 488 1271 434 1203 C 380 1135 336 1050 302 948 C 268 846 252 728 252 596 C 252 521 260 453 278 392 C 295 330 320 278 354 235 C 388 192 430 159 480 135 C 530 111 587 100 653 100 C 713 100 769 111 821 133 C 873 155 920 186 961 228 C 1001 270 1036 321 1064 382 C 1092 442 1113 511 1126 588 L 768 588 L 791 715 L 1290 715 L 1165 0 L 1034 0 L 1073 231 L 1069 231 C 1048 197 1023 165 995 133 C 966 101 934 74 898 50 C 862 26 821 6 777 -7 C 733 -21 685 -29 635 -29 Z" unicode="" />
<glyph horiz-adv-x="1139" d="M 0 0 L 0 0 Z M 392 1188 L 306 1188 L 619 1513 L 725 1513 L 924 1188 L 834 1188 L 648 1389 L 392 1188 Z M 498 436 C 542 436 583 442 621 455 C 659 468 693 488 721 514 C 749 540 772 572 788 612 C 804 651 813 697 813 750 C 813 784 807 816 797 845 C 787 874 771 899 750 920 C 728 941 701 957 669 969 C 637 981 599 987 555 987 C 512 987 471 980 433 966 C 394 952 360 932 332 906 C 303 880 280 847 263 807 C 246 767 238 722 238 672 C 238 638 243 606 254 577 C 265 548 281 523 303 502 C 325 481 352 465 385 453 C 417 441 455 436 498 436 Z M 489 328 C 451 328 415 331 381 338 C 347 345 315 356 287 371 C 256 359 233 346 219 331 C 204 316 197 301 197 285 C 197 266 203 251 215 239 C 227 227 245 217 270 209 C 295 200 327 192 367 185 C 406 178 453 170 508 162 C 560 153 610 143 658 131 C 705 119 746 104 782 84 C 817 64 845 40 866 10 C 886 -20 897 -57 897 -102 C 897 -160 883 -208 855 -248 C 827 -288 791 -320 747 -345 C 702 -369 651 -387 593 -398 C 535 -408 477 -414 418 -414 C 322 -414 239 -406 171 -392 C 102 -377 46 -357 4 -333 C -38 -308 -69 -279 -89 -246 C -109 -212 -119 -177 -119 -141 C -119 -99 -110 -63 -93 -33 C -76 -2 -55 23 -30 45 C -5 67 21 84 51 98 C 81 112 108 123 133 131 C 109 143 91 159 78 178 C 65 196 59 218 59 244 C 59 279 71 312 95 343 C 119 374 157 400 211 422 C 175 452 147 489 129 532 C 111 575 102 622 102 674 C 102 742 115 803 142 857 C 169 910 204 954 248 990 C 291 1026 340 1053 396 1072 C 451 1090 507 1100 563 1100 C 628 1100 686 1089 736 1068 C 786 1046 827 1017 860 981 C 900 1006 942 1028 987 1046 C 1032 1064 1079 1078 1128 1087 L 1128 954 C 1098 954 1063 951 1022 945 C 980 939 941 930 905 918 C 918 892 928 864 935 835 C 942 805 946 775 946 745 C 946 675 932 613 906 561 C 879 508 844 464 802 430 C 759 396 710 370 655 353 C 600 336 545 328 489 328 Z M 27 -119 C 27 -144 33 -168 47 -190 C 61 -212 83 -232 115 -249 C 147 -265 189 -278 242 -288 C 294 -298 359 -303 436 -303 C 480 -303 521 -299 560 -293 C 599 -287 633 -277 663 -263 C 692 -249 715 -230 732 -208 C 749 -185 758 -158 758 -127 C 758 -99 751 -75 737 -56 C 723 -37 704 -21 679 -8 C 654 4 624 15 589 23 C 553 31 515 39 473 47 C 429 53 387 60 347 68 C 307 75 270 83 238 92 C 210 84 183 73 157 61 C 131 49 109 34 90 16 C 70 -1 55 -21 44 -44 C 32 -66 27 -91 27 -119 Z" unicode="" />
<glyph horiz-adv-x="1462" d="M 104 0 L 104 0 Z M 635 -29 C 545 -29 467 -13 400 18 C 333 49 278 92 234 147 C 190 201 158 266 136 342 C 114 417 104 498 104 586 C 104 737 125 872 168 992 C 211 1111 267 1211 336 1293 C 405 1374 484 1436 572 1479 C 660 1522 750 1544 840 1544 C 988 1544 1102 1510 1181 1443 C 1259 1376 1309 1281 1331 1159 L 1194 1122 C 1178 1222 1141 1295 1082 1341 C 1022 1387 938 1411 829 1411 C 759 1411 689 1393 620 1358 C 550 1322 488 1271 434 1203 C 380 1135 336 1050 302 948 C 268 846 252 728 252 596 C 252 521 260 453 278 392 C 295 330 320 278 354 235 C 388 192 430 159 480 135 C 530 111 587 100 653 100 C 713 100 769 111 821 133 C 873 155 920 186 961 228 C 1001 270 1036 321 1064 382 C 1092 442 1113 511 1126 588 L 768 588 L 791 715 L 1290 715 L 1165 0 L 1034 0 L 1073 231 L 1069 231 C 1048 197 1023 165 995 133 C 966 101 934 74 898 50 C 862 26 821 6 777 -7 C 733 -21 685 -29 635 -29 Z M 899 1602 C 849 1602 807 1610 771 1626 C 735 1642 707 1664 685 1694 C 663 1723 647 1758 638 1800 C 629 1841 627 1887 631 1938 L 721 1938 C 721 1858 735 1801 762 1766 C 788 1731 837 1714 907 1714 C 961 1714 1008 1731 1049 1765 C 1089 1799 1119 1856 1139 1938 L 1229 1938 C 1211 1833 1174 1751 1116 1691 C 1058 1631 986 1602 899 1602 Z" unicode="" />
<glyph horiz-adv-x="1139" d="M 0 0 L 0 0 Z M 498 436 C 542 436 583 442 621 455 C 659 468 693 488 721 514 C 749 540 772 572 788 612 C 804 651 813 697 813 750 C 813 784 807 816 797 845 C 787 874 771 899 750 920 C 728 941 701 957 669 969 C 637 981 599 987 555 987 C 512 987 471 980 433 966 C 394 952 360 932 332 906 C 303 880 280 847 263 807 C 246 767 238 722 238 672 C 238 638 243 606 254 577 C 265 548 281 523 303 502 C 325 481 352 465 385 453 C 417 441 455 436 498 436 Z M 489 328 C 451 328 415 331 381 338 C 347 345 315 356 287 371 C 256 359 233 346 219 331 C 204 316 197 301 197 285 C 197 266 203 251 215 239 C 227 227 245 217 270 209 C 295 200 327 192 367 185 C 406 178 453 170 508 162 C 560 153 610 143 658 131 C 705 119 746 104 782 84 C 817 64 845 40 866 10 C 886 -20 897 -57 897 -102 C 897 -160 883 -208 855 -248 C 827 -288 791 -320 747 -345 C 702 -369 651 -387 593 -398 C 535 -408 477 -414 418 -414 C 322 -414 239 -406 171 -392 C 102 -377 46 -357 4 -333 C -38 -308 -69 -279 -89 -246 C -109 -212 -119 -177 -119 -141 C -119 -99 -110 -63 -93 -33 C -76 -2 -55 23 -30 45 C -5 67 21 84 51 98 C 81 112 108 123 133 131 C 109 143 91 159 78 178 C 65 196 59 218 59 244 C 59 279 71 312 95 343 C 119 374 157 400 211 422 C 175 452 147 489 129 532 C 111 575 102 622 102 674 C 102 742 115 803 142 857 C 169 910 204 954 248 990 C 291 1026 340 1053 396 1072 C 451 1090 507 1100 563 1100 C 628 1100 686 1089 736 1068 C 786 1046 827 1017 860 981 C 900 1006 942 1028 987 1046 C 1032 1064 1079 1078 1128 1087 L 1128 954 C 1098 954 1063 951 1022 945 C 980 939 941 930 905 918 C 918 892 928 864 935 835 C 942 805 946 775 946 745 C 946 675 932 613 906 561 C 879 508 844 464 802 430 C 759 396 710 370 655 353 C 600 336 545 328 489 328 Z M 27 -119 C 27 -144 33 -168 47 -190 C 61 -212 83 -232 115 -249 C 147 -265 189 -278 242 -288 C 294 -298 359 -303 436 -303 C 480 -303 521 -299 560 -293 C 599 -287 633 -277 663 -263 C 692 -249 715 -230 732 -208 C 749 -185 758 -158 758 -127 C 758 -99 751 -75 737 -56 C 723 -37 704 -21 679 -8 C 654 4 624 15 589 23 C 553 31 515 39 473 47 C 429 53 387 60 347 68 C 307 75 270 83 238 92 C 210 84 183 73 157 61 C 131 49 109 34 90 16 C 70 -1 55 -21 44 -44 C 32 -66 27 -91 27 -119 Z M 628 1188 C 578 1188 536 1196 500 1212 C 464 1228 436 1250 414 1280 C 392 1309 376 1344 367 1386 C 358 1427 356 1473 360 1524 L 450 1524 C 450 1444 464 1387 491 1352 C 517 1317 566 1300 636 1300 C 690 1300 737 1317 778 1351 C 818 1385 848 1442 868 1524 L 958 1524 C 940 1419 903 1337 845 1277 C 787 1217 715 1188 628 1188 Z" unicode="" />
<glyph horiz-adv-x="1462" d="M 104 0 L 104 0 Z M 635 -29 C 545 -29 467 -13 400 18 C 333 49 278 92 234 147 C 190 201 158 266 136 342 C 114 417 104 498 104 586 C 104 737 125 872 168 992 C 211 1111 267 1211 336 1293 C 405 1374 484 1436 572 1479 C 660 1522 750 1544 840 1544 C 988 1544 1102 1510 1181 1443 C 1259 1376 1309 1281 1331 1159 L 1194 1122 C 1178 1222 1141 1295 1082 1341 C 1022 1387 938 1411 829 1411 C 759 1411 689 1393 620 1358 C 550 1322 488 1271 434 1203 C 380 1135 336 1050 302 948 C 268 846 252 728 252 596 C 252 521 260 453 278 392 C 295 330 320 278 354 235 C 388 192 430 159 480 135 C 530 111 587 100 653 100 C 713 100 769 111 821 133 C 873 155 920 186 961 228 C 1001 270 1036 321 1064 382 C 1092 442 1113 511 1126 588 L 768 588 L 791 715 L 1290 715 L 1165 0 L 1034 0 L 1073 231 L 1069 231 C 1048 197 1023 165 995 133 C 966 101 934 74 898 50 C 862 26 821 6 777 -7 C 733 -21 685 -29 635 -29 Z M 883 1610 C 852 1610 829 1620 815 1640 C 801 1660 796 1687 801 1720 C 805 1750 817 1774 836 1790 C 855 1806 879 1815 909 1815 C 941 1815 964 1804 980 1784 C 995 1764 1000 1738 995 1708 C 990 1675 978 1650 959 1634 C 939 1618 914 1610 883 1610 Z" unicode="" />
<glyph horiz-adv-x="1139" d="M 0 0 L 0 0 Z M 498 436 C 542 436 583 442 621 455 C 659 468 693 488 721 514 C 749 540 772 572 788 612 C 804 651 813 697 813 750 C 813 784 807 816 797 845 C 787 874 771 899 750 920 C 728 941 701 957 669 969 C 637 981 599 987 555 987 C 512 987 471 980 433 966 C 394 952 360 932 332 906 C 303 880 280 847 263 807 C 246 767 238 722 238 672 C 238 638 243 606 254 577 C 265 548 281 523 303 502 C 325 481 352 465 385 453 C 417 441 455 436 498 436 Z M 489 328 C 451 328 415 331 381 338 C 347 345 315 356 287 371 C 256 359 233 346 219 331 C 204 316 197 301 197 285 C 197 266 203 251 215 239 C 227 227 245 217 270 209 C 295 200 327 192 367 185 C 406 178 453 170 508 162 C 560 153 610 143 658 131 C 705 119 746 104 782 84 C 817 64 845 40 866 10 C 886 -20 897 -57 897 -102 C 897 -160 883 -208 855 -248 C 827 -288 791 -320 747 -345 C 702 -369 651 -387 593 -398 C 535 -408 477 -414 418 -414 C 322 -414 239 -406 171 -392 C 102 -377 46 -357 4 -333 C -38 -308 -69 -279 -89 -246 C -109 -212 -119 -177 -119 -141 C -119 -99 -110 -63 -93 -33 C -76 -2 -55 23 -30 45 C -5 67 21 84 51 98 C 81 112 108 123 133 131 C 109 143 91 159 78 178 C 65 196 59 218 59 244 C 59 279 71 312 95 343 C 119 374 157 400 211 422 C 175 452 147 489 129 532 C 111 575 102 622 102 674 C 102 742 115 803 142 857 C 169 910 204 954 248 990 C 291 1026 340 1053 396 1072 C 451 1090 507 1100 563 1100 C 628 1100 686 1089 736 1068 C 786 1046 827 1017 860 981 C 900 1006 942 1028 987 1046 C 1032 1064 1079 1078 1128 1087 L 1128 954 C 1098 954 1063 951 1022 945 C 980 939 941 930 905 918 C 918 892 928 864 935 835 C 942 805 946 775 946 745 C 946 675 932 613 906 561 C 879 508 844 464 802 430 C 759 396 710 370 655 353 C 600 336 545 328 489 328 Z M 27 -119 C 27 -144 33 -168 47 -190 C 61 -212 83 -232 115 -249 C 147 -265 189 -278 242 -288 C 294 -298 359 -303 436 -303 C 480 -303 521 -299 560 -293 C 599 -287 633 -277 663 -263 C 692 -249 715 -230 732 -208 C 749 -185 758 -158 758 -127 C 758 -99 751 -75 737 -56 C 723 -37 704 -21 679 -8 C 654 4 624 15 589 23 C 553 31 515 39 473 47 C 429 53 387 60 347 68 C 307 75 270 83 238 92 C 210 84 183 73 157 61 C 131 49 109 34 90 16 C 70 -1 55 -21 44 -44 C 32 -66 27 -91 27 -119 Z M 598 1188 C 567 1188 544 1198 530 1218 C 516 1238 511 1265 516 1298 C 520 1328 532 1352 551 1368 C 570 1384 594 1393 624 1393 C 656 1393 679 1382 695 1362 C 710 1342 715 1316 710 1286 C 705 1253 693 1228 674 1212 C 654 1196 629 1188 598 1188 Z" unicode="" />
<glyph horiz-adv-x="1462" d="M 104 0 L 104 0 Z M 494 -485 L 408 -485 L 523 -100 L 695 -100 L 494 -485 Z M 635 -29 C 545 -29 467 -13 400 18 C 333 49 278 92 234 147 C 190 201 158 266 136 342 C 114 417 104 498 104 586 C 104 737 125 872 168 992 C 211 1111 267 1211 336 1293 C 405 1374 484 1436 572 1479 C 660 1522 750 1544 840 1544 C 988 1544 1102 1510 1181 1443 C 1259 1376 1309 1281 1331 1159 L 1194 1122 C 1178 1222 1141 1295 1082 1341 C 1022 1387 938 1411 829 1411 C 759 1411 689 1393 620 1358 C 550 1322 488 1271 434 1203 C 380 1135 336 1050 302 948 C 268 846 252 728 252 596 C 252 521 260 453 278 392 C 295 330 320 278 354 235 C 388 192 430 159 480 135 C 530 111 587 100 653 100 C 713 100 769 111 821 133 C 873 155 920 186 961 228 C 1001 270 1036 321 1064 382 C 1092 442 1113 511 1126 588 L 768 588 L 791 715 L 1290 715 L 1165 0 L 1034 0 L 1073 231 L 1069 231 C 1048 197 1023 165 995 133 C 966 101 934 74 898 50 C 862 26 821 6 777 -7 C 733 -21 685 -29 635 -29 Z" unicode="" />
<glyph horiz-adv-x="1139" d="M 0 0 L 0 0 Z M 696 1579 L 782 1579 L 668 1194 L 496 1194 L 696 1579 Z M 498 436 C 542 436 583 442 621 455 C 659 468 693 488 721 514 C 749 540 772 572 788 612 C 804 651 813 697 813 750 C 813 784 807 816 797 845 C 787 874 771 899 750 920 C 728 941 701 957 669 969 C 637 981 599 987 555 987 C 512 987 471 980 433 966 C 394 952 360 932 332 906 C 303 880 280 847 263 807 C 246 767 238 722 238 672 C 238 638 243 606 254 577 C 265 548 281 523 303 502 C 325 481 352 465 385 453 C 417 441 455 436 498 436 Z M 489 328 C 451 328 415 331 381 338 C 347 345 315 356 287 371 C 256 359 233 346 219 331 C 204 316 197 301 197 285 C 197 266 203 251 215 239 C 227 227 245 217 270 209 C 295 200 327 192 367 185 C 406 178 453 170 508 162 C 560 153 610 143 658 131 C 705 119 746 104 782 84 C 817 64 845 40 866 10 C 886 -20 897 -57 897 -102 C 897 -160 883 -208 855 -248 C 827 -288 791 -320 747 -345 C 702 -369 651 -387 593 -398 C 535 -408 477 -414 418 -414 C 322 -414 239 -406 171 -392 C 102 -377 46 -357 4 -333 C -38 -308 -69 -279 -89 -246 C -109 -212 -119 -177 -119 -141 C -119 -99 -110 -63 -93 -33 C -76 -2 -55 23 -30 45 C -5 67 21 84 51 98 C 81 112 108 123 133 131 C 109 143 91 159 78 178 C 65 196 59 218 59 244 C 59 279 71 312 95 343 C 119 374 157 400 211 422 C 175 452 147 489 129 532 C 111 575 102 622 102 674 C 102 742 115 803 142 857 C 169 910 204 954 248 990 C 291 1026 340 1053 396 1072 C 451 1090 507 1100 563 1100 C 628 1100 686 1089 736 1068 C 786 1046 827 1017 860 981 C 900 1006 942 1028 987 1046 C 1032 1064 1079 1078 1128 1087 L 1128 954 C 1098 954 1063 951 1022 945 C 980 939 941 930 905 918 C 918 892 928 864 935 835 C 942 805 946 775 946 745 C 946 675 932 613 906 561 C 879 508 844 464 802 430 C 759 396 710 370 655 353 C 600 336 545 328 489 328 Z M 27 -119 C 27 -144 33 -168 47 -190 C 61 -212 83 -232 115 -249 C 147 -265 189 -278 242 -288 C 294 -298 359 -303 436 -303 C 480 -303 521 -299 560 -293 C 599 -287 633 -277 663 -263 C 692 -249 715 -230 732 -208 C 749 -185 758 -158 758 -127 C 758 -99 751 -75 737 -56 C 723 -37 704 -21 679 -8 C 654 4 624 15 589 23 C 553 31 515 39 473 47 C 429 53 387 60 347 68 C 307 75 270 83 238 92 C 210 84 183 73 157 61 C 131 49 109 34 90 16 C 70 -1 55 -21 44 -44 C 32 -66 27 -91 27 -119 Z" unicode="" />
<glyph horiz-adv-x="1479" d="M 61 0 L 61 0 Z M 666 1610 L 580 1610 L 893 1935 L 999 1935 L 1198 1610 L 1108 1610 L 922 1811 L 666 1610 Z M 207 0 L 61 0 L 328 1516 L 473 1516 L 358 866 L 1159 866 L 1274 1516 L 1419 1516 L 1153 0 L 1008 0 L 1137 733 L 336 733 L 207 0 Z" unicode="" />
<glyph horiz-adv-x="1169" d="M 31 0 L 31 0 Z M 162 1612 L 76 1612 L 389 1937 L 495 1937 L 694 1612 L 604 1612 L 418 1813 L 162 1612 Z M 440 1528 L 332 907 C 354 931 381 954 413 978 C 444 1001 477 1022 513 1040 C 548 1058 585 1072 623 1083 C 661 1094 697 1100 733 1100 C 792 1100 842 1091 883 1075 C 923 1058 955 1035 978 1005 C 1000 975 1015 940 1021 898 C 1027 856 1026 810 1018 760 L 885 0 L 743 0 L 872 743 C 886 818 879 876 850 917 C 821 958 764 979 680 979 C 620 979 559 961 496 927 C 432 892 371 847 311 793 L 172 0 L 31 0 L 295 1503 L 440 1528 Z" unicode="" />
<glyph horiz-adv-x="1479" d="M 358 866 L 1159 866 L 1204 1122 L 404 1122 L 358 866 Z M 336 733 L 207 0 L 61 0 L 259 1122 L 90 1122 L 111 1245 L 280 1245 L 328 1516 L 473 1516 L 425 1245 L 1226 1245 L 1274 1516 L 1419 1516 L 1372 1245 L 1542 1245 L 1522 1122 L 1350 1122 L 1153 0 L 1008 0 L 1137 733 L 336 733 Z" unicode="" />
<glyph horiz-adv-x="1169" d="M 311 793 L 172 0 L 31 0 L 247 1233 L 72 1233 L 92 1341 L 266 1341 L 295 1503 L 440 1528 L 408 1341 L 629 1341 L 608 1233 L 389 1233 L 332 907 C 354 931 381 954 413 978 C 444 1001 477 1022 513 1040 C 548 1058 585 1072 623 1083 C 661 1094 697 1100 733 1100 C 792 1100 842 1091 883 1075 C 923 1058 955 1035 978 1005 C 1000 975 1015 940 1021 898 C 1027 856 1026 810 1018 760 L 885 0 L 743 0 L 872 743 C 886 818 879 876 850 917 C 821 958 764 979 680 979 C 620 979 559 961 496 927 C 432 892 371 847 311 793 Z" unicode="" />
<glyph horiz-adv-x="575" d="M 82 0 L 82 0 Z M 227 0 L 82 0 L 348 1516 L 494 1516 L 227 0 Z M 324 1839 C 351 1839 378 1833 404 1821 C 430 1809 454 1796 478 1782 C 501 1768 523 1755 543 1743 C 563 1731 582 1725 598 1725 C 628 1725 652 1733 669 1751 C 685 1768 697 1798 703 1841 L 799 1829 C 788 1754 766 1699 732 1663 C 698 1627 653 1610 598 1610 C 572 1610 546 1616 521 1628 C 495 1640 471 1653 448 1667 C 424 1681 402 1695 381 1707 C 359 1719 340 1725 322 1725 C 292 1725 269 1716 253 1698 C 236 1680 224 1650 217 1608 L 121 1620 C 132 1695 155 1750 189 1786 C 223 1821 268 1839 324 1839 Z" unicode="" />
<glyph horiz-adv-x="492" d="M 6 0 L 6 0 Z M 184 0 L 43 0 L 233 1079 L 375 1079 L 184 0 Z M 209 1417 C 236 1417 263 1411 289 1399 C 315 1387 339 1374 363 1360 C 386 1346 408 1333 428 1321 C 448 1309 467 1303 483 1303 C 513 1303 537 1311 554 1329 C 570 1346 582 1376 588 1419 L 684 1407 C 673 1332 651 1277 617 1241 C 583 1205 538 1188 483 1188 C 457 1188 431 1194 406 1206 C 380 1218 356 1231 333 1245 C 309 1259 287 1273 266 1285 C 244 1297 225 1303 207 1303 C 177 1303 154 1294 138 1276 C 121 1258 109 1228 102 1186 L 6 1198 C 17 1273 40 1328 74 1364 C 108 1399 153 1417 209 1417 Z" unicode="" />
<glyph horiz-adv-x="575" d="M 82 0 L 82 0 Z M 227 0 L 82 0 L 348 1516 L 494 1516 L 227 0 Z M 693 1608 L 191 1608 L 211 1729 L 713 1729 L 693 1608 Z" unicode="" />
<glyph horiz-adv-x="492" d="M 43 0 L 43 0 Z M 184 0 L 43 0 L 233 1079 L 375 1079 L 184 0 Z M 578 1194 L 76 1194 L 96 1315 L 598 1315 L 578 1194 Z" unicode="" />
<glyph horiz-adv-x="575" d="M 82 0 L 82 0 Z M 227 0 L 82 0 L 348 1516 L 494 1516 L 227 0 Z M 467 1610 C 417 1610 375 1618 339 1634 C 303 1650 275 1672 253 1702 C 231 1731 215 1766 206 1808 C 197 1849 195 1895 199 1946 L 289 1946 C 289 1866 303 1809 330 1774 C 356 1739 405 1722 475 1722 C 529 1722 576 1739 617 1773 C 657 1807 687 1864 707 1946 L 797 1946 C 779 1841 742 1759 684 1699 C 626 1639 554 1610 467 1610 Z" unicode="" />
<glyph horiz-adv-x="492" d="M 43 0 L 43 0 Z M 184 0 L 43 0 L 233 1079 L 375 1079 L 184 0 Z M 352 1188 C 302 1188 260 1196 224 1212 C 188 1228 160 1250 138 1280 C 116 1309 100 1344 91 1386 C 82 1427 80 1473 84 1524 L 174 1524 C 174 1444 188 1387 215 1352 C 241 1317 290 1300 360 1300 C 414 1300 461 1317 502 1351 C 542 1385 572 1442 592 1524 L 682 1524 C 664 1419 627 1337 569 1277 C 511 1217 439 1188 352 1188 Z" unicode="" />
<glyph horiz-adv-x="575" d="M 293 -319 C 256 -338 219 -353 181 -365 C 143 -377 106 -383 70 -383 C 2 -383 -47 -369 -79 -342 C -111 -314 -127 -280 -127 -240 C -127 -214 -121 -189 -110 -166 C -99 -143 -84 -121 -66 -101 C -47 -81 -25 -61 1 -43 C 27 -25 54 -7 84 10 L 348 1516 L 494 1516 L 227 0 L 175 0 C 122 -34 79 -69 46 -106 C 12 -142 -4 -181 -4 -221 C -4 -244 3 -263 19 -278 C 35 -293 62 -301 102 -301 C 126 -301 151 -298 177 -293 C 203 -288 234 -279 270 -266 L 293 -319 Z" unicode="" />
<glyph horiz-adv-x="492" d="M 348 1315 C 321 1315 301 1323 287 1340 C 273 1356 270 1380 276 1411 C 280 1434 290 1453 306 1468 C 321 1483 343 1491 371 1491 C 397 1491 418 1483 432 1467 C 446 1451 450 1428 444 1399 C 440 1374 430 1354 415 1338 C 400 1322 378 1315 348 1315 Z M 250 -319 C 214 -338 176 -353 138 -365 C 100 -377 63 -383 27 -383 C -40 -383 -90 -369 -122 -342 C -154 -314 -170 -280 -170 -240 C -170 -214 -164 -189 -153 -166 C -142 -143 -127 -121 -108 -101 C -88 -81 -65 -61 -39 -42 C -13 -23 15 -5 45 12 L 45 12 L 233 1079 L 375 1079 L 184 0 L 132 0 C 79 -34 36 -69 3 -106 C -30 -142 -47 -181 -47 -221 C -47 -244 -38 -263 -22 -278 C -6 -293 21 -301 59 -301 C 82 -301 107 -298 134 -293 C 160 -288 191 -279 227 -266 L 250 -319 Z" unicode="" />
<glyph horiz-adv-x="575" d="M 82 0 L 82 0 Z M 227 0 L 82 0 L 348 1516 L 494 1516 L 227 0 Z M 443 1602 C 412 1602 389 1612 375 1632 C 361 1652 356 1679 361 1712 C 365 1742 377 1766 396 1782 C 415 1798 439 1807 469 1807 C 501 1807 524 1796 540 1776 C 555 1756 560 1730 555 1700 C 550 1667 538 1642 519 1626 C 499 1610 474 1602 443 1602 Z" unicode="" />
<glyph horiz-adv-x="492" d="M 184 0 L 43 0 L 233 1079 L 375 1079 L 184 0 Z" unicode="" />
<glyph horiz-adv-x="1497" d="M 82 0 L 82 0 Z M 227 0 L 82 0 L 348 1516 L 494 1516 L 227 0 Z M 826 -29 C 781 -29 741 -24 705 -15 C 669 -6 638 5 610 20 C 582 35 557 53 535 74 C 513 94 494 116 478 139 L 572 242 C 601 197 636 162 677 138 C 718 114 766 102 822 102 C 858 102 892 106 923 115 C 953 124 980 140 1004 162 C 1028 184 1048 213 1065 251 C 1082 289 1096 336 1106 393 L 1305 1516 L 1450 1516 L 1252 379 C 1226 236 1178 132 1107 68 C 1036 3 942 -29 826 -29 Z" unicode="" />
<glyph horiz-adv-x="985" d="M 43 0 L 43 0 Z M 348 1315 C 321 1315 301 1323 287 1340 C 273 1356 270 1380 276 1411 C 280 1434 290 1453 306 1468 C 321 1483 343 1491 371 1491 C 397 1491 418 1483 432 1467 C 446 1451 450 1428 444 1399 C 440 1374 430 1354 415 1338 C 400 1322 378 1315 348 1315 Z M 184 0 L 43 0 L 233 1079 L 375 1079 L 184 0 Z M 840 1315 C 813 1315 793 1323 779 1340 C 765 1356 762 1380 768 1411 C 772 1434 782 1453 798 1468 C 813 1483 835 1491 863 1491 C 889 1491 910 1483 924 1467 C 938 1451 942 1428 936 1399 C 932 1374 922 1354 907 1338 C 892 1322 870 1315 840 1315 Z M 416 -412 C 385 -412 361 -411 343 -409 C 325 -407 312 -405 302 -403 L 308 -291 C 316 -293 329 -294 346 -296 C 363 -298 381 -299 400 -299 C 429 -299 452 -290 468 -272 C 484 -254 495 -224 502 -182 L 725 1079 L 867 1079 L 639 -207 C 626 -279 602 -331 567 -363 C 531 -395 481 -412 416 -412 Z" unicode="" />
<glyph horiz-adv-x="1004" d="M 0 0 L 0 0 Z M 664 1610 L 578 1610 L 891 1935 L 997 1935 L 1196 1610 L 1106 1610 L 920 1811 L 664 1610 Z M 332 -29 C 287 -29 247 -24 211 -15 C 175 -6 144 5 116 20 C 88 35 63 53 41 74 C 19 94 0 116 -16 139 L 78 242 C 107 197 142 162 183 138 C 224 114 272 102 328 102 C 364 102 398 106 429 115 C 459 124 486 140 510 162 C 534 184 554 213 571 251 C 588 289 602 336 612 393 L 811 1516 L 956 1516 L 758 379 C 732 236 684 132 613 68 C 542 3 448 -29 332 -29 Z" unicode="" />
<glyph horiz-adv-x="492" d="M 100 1188 L 14 1188 L 328 1513 L 434 1513 L 633 1188 L 543 1188 L 356 1389 L 100 1188 Z M -76 -412 C -106 -412 -131 -411 -149 -409 C -167 -407 -182 -406 -193 -406 L -172 -293 C -162 -295 -149 -296 -134 -297 C -118 -298 -104 -299 -92 -299 C -62 -299 -40 -290 -24 -272 C -8 -254 3 -224 10 -182 L 233 1079 L 375 1079 L 147 -207 C 134 -279 110 -331 75 -363 C 39 -395 -10 -412 -76 -412 Z" unicode="" />
<glyph horiz-adv-x="1348" d="M 61 0 L 61 0 Z M 440 -485 L 354 -485 L 469 -100 L 641 -100 L 440 -485 Z M 1171 12 L 1030 -12 L 629 844 L 301 539 L 207 0 L 61 0 L 328 1516 L 473 1516 L 334 723 L 1182 1516 L 1356 1516 L 737 940 L 1171 12 Z" unicode="" />
<glyph horiz-adv-x="1065" d="M 31 0 L 31 0 Z M 297 -485 L 211 -485 L 326 -100 L 498 -100 L 297 -485 Z M 440 1528 L 266 532 L 856 1079 L 1022 1079 L 602 694 L 872 12 L 739 -12 L 496 600 L 236 365 L 172 0 L 31 0 L 295 1503 L 440 1528 Z" unicode="" />
<glyph horiz-adv-x="1065" d="M 221 1079 L 362 1079 L 264 535 L 856 1079 L 1024 1079 L 602 696 L 868 12 L 735 -12 L 496 600 L 238 367 L 172 0 L 31 0 L 221 1079 Z" unicode="" />
<glyph horiz-adv-x="1137" d="M 61 0 L 61 0 Z M 457 1608 L 364 1608 L 596 1927 L 782 1927 L 457 1608 Z M 938 0 L 61 0 L 328 1516 L 473 1516 L 229 133 L 938 133 L 938 0 Z" unicode="" />
<glyph horiz-adv-x="492" d="M 43 0 L 43 0 Z M 441 1608 L 348 1608 L 580 1927 L 766 1927 L 441 1608 Z M 307 1503 L 453 1528 L 184 0 L 43 0 L 307 1503 Z" unicode="" />
<glyph horiz-adv-x="1137" d="M 61 0 L 61 0 Z M 371 -485 L 285 -485 L 400 -100 L 572 -100 L 371 -485 Z M 938 0 L 61 0 L 328 1516 L 473 1516 L 229 133 L 938 133 L 938 0 Z" unicode="" />
<glyph horiz-adv-x="492" d="M 0 0 L 0 0 Z M 14 -485 L -72 -485 L 43 -100 L 215 -100 L 14 -485 Z M 307 1503 L 453 1528 L 184 0 L 43 0 L 307 1503 Z" unicode="" />
<glyph horiz-adv-x="1137" d="M 61 0 L 61 0 Z M 938 0 L 61 0 L 328 1516 L 473 1516 L 229 133 L 938 133 L 938 0 Z M 721 1116 L 635 1116 L 754 1516 L 930 1516 L 721 1116 Z" unicode="" />
<glyph horiz-adv-x="492" d="M 43 0 L 43 0 Z M 307 1503 L 453 1528 L 184 0 L 43 0 L 307 1503 Z M 563 1131 L 477 1131 L 592 1516 L 764 1516 L 563 1131 Z" unicode="" />
<glyph horiz-adv-x="1151" d="M 938 0 L 61 0 L 328 1516 L 473 1516 L 229 133 L 938 133 L 938 0 Z M 819 713 C 788 713 765 723 750 744 C 735 764 730 790 735 821 C 739 851 751 874 769 890 C 787 905 809 913 836 913 C 867 913 890 902 906 882 C 921 861 926 835 922 805 C 916 774 905 751 887 736 C 869 720 846 713 819 713 Z" unicode="" />
<glyph horiz-adv-x="664" d="M 307 1503 L 453 1528 L 184 0 L 43 0 L 307 1503 Z M 543 561 C 513 561 491 571 477 591 C 463 611 458 635 463 664 C 467 691 478 712 496 726 C 514 740 537 748 567 748 C 595 748 616 738 630 720 C 644 702 649 679 645 651 C 640 622 629 600 612 584 C 595 568 572 561 543 561 Z" unicode="" />
<glyph horiz-adv-x="1137" d="M 926 0 L 61 0 L 186 711 L 4 664 L 25 786 L 207 834 L 328 1516 L 473 1516 L 358 872 L 700 961 L 680 838 L 338 750 L 229 133 L 950 133 L 926 0 Z" unicode="" />
<glyph horiz-adv-x="606" d="M 512 1528 L 432 1067 L 635 1120 L 614 1006 L 412 952 L 244 0 L 102 0 L 262 915 L 63 866 L 84 981 L 285 1030 L 367 1503 L 512 1528 Z" unicode="" />
<glyph horiz-adv-x="1501" d="M 61 0 L 61 0 Z M 852 1608 L 759 1608 L 991 1927 L 1177 1927 L 852 1608 Z M 199 0 L 61 0 L 328 1516 L 483 1516 L 1077 256 L 1081 256 L 1303 1516 L 1440 1516 L 1174 0 L 1044 0 L 430 1298 L 426 1298 L 199 0 Z" unicode="" />
<glyph horiz-adv-x="1169" d="M 31 0 L 31 0 Z M 615 1194 L 522 1194 L 754 1513 L 940 1513 L 615 1194 Z M 172 0 L 31 0 L 221 1079 L 346 1079 L 332 907 C 354 931 381 954 413 978 C 444 1001 477 1022 513 1040 C 548 1058 585 1072 623 1083 C 661 1094 697 1100 733 1100 C 792 1100 842 1091 883 1075 C 923 1058 955 1035 978 1005 C 1000 975 1015 940 1021 898 C 1027 856 1026 810 1018 760 L 885 0 L 743 0 L 872 743 C 886 818 879 876 850 917 C 821 958 764 979 680 979 C 620 979 559 961 496 927 C 432 892 371 847 311 793 L 172 0 Z" unicode="" />
<glyph horiz-adv-x="1501" d="M 61 0 L 61 0 Z M 516 -485 L 430 -485 L 545 -100 L 717 -100 L 516 -485 Z M 199 0 L 61 0 L 328 1516 L 483 1516 L 1077 256 L 1081 256 L 1303 1516 L 1440 1516 L 1174 0 L 1044 0 L 430 1298 L 426 1298 L 199 0 Z" unicode="" />
<glyph horiz-adv-x="1169" d="M 31 0 L 31 0 Z M 350 -485 L 264 -485 L 379 -100 L 551 -100 L 350 -485 Z M 172 0 L 31 0 L 221 1079 L 346 1079 L 332 907 C 354 931 381 954 413 978 C 444 1001 477 1022 513 1040 C 548 1058 585 1072 623 1083 C 661 1094 697 1100 733 1100 C 792 1100 842 1091 883 1075 C 923 1058 955 1035 978 1005 C 1000 975 1015 940 1021 898 C 1027 856 1026 810 1018 760 L 885 0 L 743 0 L 872 743 C 886 818 879 876 850 917 C 821 958 764 979 680 979 C 620 979 559 961 496 927 C 432 892 371 847 311 793 L 172 0 Z" unicode="" />
<glyph horiz-adv-x="1501" d="M 61 0 L 61 0 Z M 952 1610 L 844 1610 L 645 1936 L 735 1936 L 921 1735 L 1177 1936 L 1263 1936 L 952 1610 Z M 199 0 L 61 0 L 328 1516 L 483 1516 L 1077 256 L 1081 256 L 1303 1516 L 1440 1516 L 1174 0 L 1044 0 L 430 1298 L 426 1298 L 199 0 Z" unicode="" />
<glyph horiz-adv-x="1169" d="M 31 0 L 31 0 Z M 715 1196 L 607 1196 L 408 1522 L 498 1522 L 684 1321 L 940 1522 L 1026 1522 L 715 1196 Z M 172 0 L 31 0 L 221 1079 L 346 1079 L 332 907 C 354 931 381 954 413 978 C 444 1001 477 1022 513 1040 C 548 1058 585 1072 623 1083 C 661 1094 697 1100 733 1100 C 792 1100 842 1091 883 1075 C 923 1058 955 1035 978 1005 C 1000 975 1015 940 1021 898 C 1027 856 1026 810 1018 760 L 885 0 L 743 0 L 872 743 C 886 818 879 876 850 917 C 821 958 764 979 680 979 C 620 979 559 961 496 927 C 432 892 371 847 311 793 L 172 0 Z" unicode="" />
<glyph horiz-adv-x="1501" d="M 748 -287 C 783 -287 816 -282 847 -272 C 877 -262 905 -246 930 -224 C 955 -201 977 -170 995 -132 C 1013 -94 1028 -46 1038 10 L 432 1298 L 428 1298 L 199 0 L 61 0 L 328 1516 L 485 1516 L 1077 256 L 1081 256 L 1303 1516 L 1440 1516 L 1174 0 C 1147 -146 1099 -251 1029 -315 C 959 -379 866 -412 752 -412 C 662 -412 589 -396 535 -364 C 481 -332 437 -292 403 -244 L 498 -141 C 527 -189 562 -225 603 -250 C 644 -274 692 -287 748 -287 Z" unicode="" />
<glyph horiz-adv-x="1171" d="M 31 0 L 221 1079 L 350 1079 L 332 907 C 354 931 381 954 413 978 C 444 1001 477 1022 513 1040 C 548 1058 585 1072 623 1083 C 661 1094 697 1100 733 1100 C 792 1100 842 1091 883 1075 C 923 1058 955 1035 978 1005 C 1001 975 1016 940 1022 898 C 1028 856 1027 810 1018 760 L 848 -207 C 834 -279 810 -331 775 -363 C 740 -395 690 -412 625 -412 C 594 -412 569 -411 551 -409 C 532 -407 518 -406 510 -406 L 520 -291 C 530 -293 543 -294 557 -296 C 571 -298 588 -299 608 -299 C 638 -299 660 -290 676 -272 C 692 -254 703 -224 711 -182 L 874 743 C 887 818 879 876 850 917 C 821 958 764 979 680 979 C 620 979 559 961 496 927 C 432 892 371 847 311 793 L 172 0 L 31 0 Z" unicode="" />
<glyph horiz-adv-x="1499" d="M 102 0 L 102 0 Z M 1151 1608 L 649 1608 L 669 1729 L 1171 1729 L 1151 1608 Z M 643 -29 C 559 -29 483 -13 416 18 C 348 50 291 94 245 151 C 199 207 163 275 139 353 C 114 431 102 517 102 610 C 102 757 123 889 167 1005 C 210 1121 267 1219 338 1299 C 408 1378 489 1439 581 1481 C 672 1523 766 1544 862 1544 C 945 1544 1020 1528 1086 1497 C 1152 1465 1208 1422 1254 1366 C 1300 1310 1335 1242 1360 1164 C 1384 1086 1397 1000 1397 907 C 1397 760 1376 628 1334 512 C 1292 395 1236 297 1166 217 C 1096 137 1016 76 925 34 C 834 -7 740 -29 643 -29 Z M 653 102 C 727 102 800 118 872 152 C 944 186 1008 236 1064 303 C 1120 370 1165 454 1199 556 C 1233 657 1251 775 1251 909 C 1251 985 1241 1055 1223 1117 C 1205 1179 1178 1232 1144 1275 C 1110 1318 1067 1351 1017 1375 C 967 1399 910 1411 846 1411 C 774 1411 703 1394 631 1361 C 559 1327 495 1277 439 1211 C 383 1145 337 1061 301 960 C 265 859 248 742 248 608 C 248 531 257 461 275 399 C 293 336 320 283 355 239 C 389 195 432 162 482 138 C 532 114 589 102 653 102 Z" unicode="" />
<glyph horiz-adv-x="1161" d="M 51 0 L 51 0 Z M 910 1194 L 408 1194 L 428 1315 L 930 1315 L 910 1194 Z M 473 -23 C 409 -23 352 -12 300 10 C 248 32 203 63 167 103 C 130 143 101 191 81 249 C 61 306 51 370 51 440 C 51 552 68 649 102 732 C 136 815 179 884 233 938 C 286 992 346 1033 413 1060 C 479 1086 545 1100 610 1100 C 673 1100 731 1089 783 1067 C 835 1045 879 1015 916 975 C 952 935 981 886 1001 829 C 1021 771 1032 707 1032 637 C 1032 526 1015 429 981 346 C 947 263 904 194 851 140 C 798 86 738 45 672 18 C 605 -9 539 -23 473 -23 Z M 483 96 C 537 96 589 108 639 133 C 688 158 731 194 769 240 C 806 286 836 343 858 410 C 880 476 891 551 891 633 C 891 679 885 724 874 766 C 863 808 846 845 822 877 C 798 909 768 934 731 953 C 694 971 650 981 600 981 C 545 981 493 968 444 942 C 394 916 351 880 315 834 C 278 787 249 730 227 664 C 205 597 195 523 195 442 C 195 394 200 350 211 308 C 222 266 239 229 262 198 C 285 166 315 141 352 123 C 388 105 432 96 483 96 Z" unicode="" />
<glyph horiz-adv-x="1499" d="M 102 0 L 102 0 Z M 643 -29 C 559 -29 483 -13 416 18 C 348 50 291 94 245 151 C 199 207 163 275 139 353 C 114 431 102 517 102 610 C 102 757 123 889 167 1005 C 210 1121 267 1219 338 1299 C 408 1378 489 1439 581 1481 C 672 1523 766 1544 862 1544 C 945 1544 1020 1528 1086 1497 C 1152 1465 1208 1422 1254 1366 C 1300 1310 1335 1242 1360 1164 C 1384 1086 1397 1000 1397 907 C 1397 760 1376 628 1334 512 C 1292 395 1236 297 1166 217 C 1096 137 1016 76 925 34 C 834 -7 740 -29 643 -29 Z M 653 102 C 727 102 800 118 872 152 C 944 186 1008 236 1064 303 C 1120 370 1165 454 1199 556 C 1233 657 1251 775 1251 909 C 1251 985 1241 1055 1223 1117 C 1205 1179 1178 1232 1144 1275 C 1110 1318 1067 1351 1017 1375 C 967 1399 910 1411 846 1411 C 774 1411 703 1394 631 1361 C 559 1327 495 1277 439 1211 C 383 1145 337 1061 301 960 C 265 859 248 742 248 608 C 248 531 257 461 275 399 C 293 336 320 283 355 239 C 389 195 432 162 482 138 C 532 114 589 102 653 102 Z M 925 1610 C 875 1610 833 1618 797 1634 C 761 1650 733 1672 711 1702 C 689 1731 673 1766 664 1808 C 655 1849 653 1895 657 1946 L 747 1946 C 747 1866 761 1809 788 1774 C 814 1739 863 1722 933 1722 C 987 1722 1034 1739 1075 1773 C 1115 1807 1145 1864 1165 1946 L 1255 1946 C 1237 1841 1200 1759 1142 1699 C 1084 1639 1012 1610 925 1610 Z" unicode="" />
<glyph horiz-adv-x="1161" d="M 51 0 L 51 0 Z M 473 -23 C 409 -23 352 -12 300 10 C 248 32 203 63 167 103 C 130 143 101 191 81 249 C 61 306 51 370 51 440 C 51 552 68 649 102 732 C 136 815 179 884 233 938 C 286 992 346 1033 413 1060 C 479 1086 545 1100 610 1100 C 673 1100 731 1089 783 1067 C 835 1045 879 1015 916 975 C 952 935 981 886 1001 829 C 1021 771 1032 707 1032 637 C 1032 526 1015 429 981 346 C 947 263 904 194 851 140 C 798 86 738 45 672 18 C 605 -9 539 -23 473 -23 Z M 483 96 C 537 96 589 108 639 133 C 688 158 731 194 769 240 C 806 286 836 343 858 410 C 880 476 891 551 891 633 C 891 679 885 724 874 766 C 863 808 846 845 822 877 C 798 909 768 934 731 953 C 694 971 650 981 600 981 C 545 981 493 968 444 942 C 394 916 351 880 315 834 C 278 787 249 730 227 664 C 205 597 195 523 195 442 C 195 394 200 350 211 308 C 222 266 239 229 262 198 C 285 166 315 141 352 123 C 388 105 432 96 483 96 Z M 684 1188 C 634 1188 592 1196 556 1212 C 520 1228 492 1250 470 1280 C 448 1309 432 1344 423 1386 C 414 1427 412 1473 416 1524 L 506 1524 C 506 1444 520 1387 547 1352 C 573 1317 622 1300 692 1300 C 746 1300 793 1317 834 1351 C 874 1385 904 1442 924 1524 L 1014 1524 C 996 1419 959 1337 901 1277 C 843 1217 771 1188 684 1188 Z" unicode="" />
<glyph horiz-adv-x="1499" d="M 102 0 L 102 0 Z M 694 1608 L 600 1608 L 831 1927 L 1022 1927 L 694 1608 Z M 1024 1608 L 930 1608 L 1163 1927 L 1353 1927 L 1024 1608 Z M 643 -29 C 559 -29 483 -13 416 18 C 348 50 291 94 245 151 C 199 207 163 275 139 353 C 114 431 102 517 102 610 C 102 757 123 889 167 1005 C 210 1121 267 1219 338 1299 C 408 1378 489 1439 581 1481 C 672 1523 766 1544 862 1544 C 945 1544 1020 1528 1086 1497 C 1152 1465 1208 1422 1254 1366 C 1300 1310 1335 1242 1360 1164 C 1384 1086 1397 1000 1397 907 C 1397 760 1376 628 1334 512 C 1292 395 1236 297 1166 217 C 1096 137 1016 76 925 34 C 834 -7 740 -29 643 -29 Z M 653 102 C 727 102 800 118 872 152 C 944 186 1008 236 1064 303 C 1120 370 1165 454 1199 556 C 1233 657 1251 775 1251 909 C 1251 985 1241 1055 1223 1117 C 1205 1179 1178 1232 1144 1275 C 1110 1318 1067 1351 1017 1375 C 967 1399 910 1411 846 1411 C 774 1411 703 1394 631 1361 C 559 1327 495 1277 439 1211 C 383 1145 337 1061 301 960 C 265 859 248 742 248 608 C 248 531 257 461 275 399 C 293 336 320 283 355 239 C 389 195 432 162 482 138 C 532 114 589 102 653 102 Z" unicode="" />
<glyph horiz-adv-x="1161" d="M 51 0 L 51 0 Z M 471 1194 L 377 1194 L 608 1513 L 799 1513 L 471 1194 Z M 801 1194 L 707 1194 L 940 1513 L 1130 1513 L 801 1194 Z M 473 -23 C 409 -23 352 -12 300 10 C 248 32 203 63 167 103 C 130 143 101 191 81 249 C 61 306 51 370 51 440 C 51 552 68 649 102 732 C 136 815 179 884 233 938 C 286 992 346 1033 413 1060 C 479 1086 545 1100 610 1100 C 673 1100 731 1089 783 1067 C 835 1045 879 1015 916 975 C 952 935 981 886 1001 829 C 1021 771 1032 707 1032 637 C 1032 526 1015 429 981 346 C 947 263 904 194 851 140 C 798 86 738 45 672 18 C 605 -9 539 -23 473 -23 Z M 483 96 C 537 96 589 108 639 133 C 688 158 731 194 769 240 C 806 286 836 343 858 410 C 880 476 891 551 891 633 C 891 679 885 724 874 766 C 863 808 846 845 822 877 C 798 909 768 934 731 953 C 694 971 650 981 600 981 C 545 981 493 968 444 942 C 394 916 351 880 315 834 C 278 787 249 730 227 664 C 205 597 195 523 195 442 C 195 394 200 350 211 308 C 222 266 239 229 262 198 C 285 166 315 141 352 123 C 388 105 432 96 483 96 Z" unicode="" />
<glyph horiz-adv-x="2261" d="M 655 102 C 727 102 798 118 870 152 C 941 186 1004 236 1060 303 C 1116 370 1161 454 1196 556 C 1231 657 1249 775 1249 909 C 1249 985 1240 1055 1222 1117 C 1204 1179 1177 1232 1143 1275 C 1109 1318 1067 1351 1017 1375 C 967 1399 910 1411 846 1411 C 774 1411 702 1394 630 1361 C 558 1327 494 1277 438 1211 C 382 1145 336 1061 301 960 C 265 859 248 742 248 608 C 248 531 257 461 275 399 C 293 336 320 283 355 239 C 390 195 433 162 483 138 C 533 114 591 102 655 102 Z M 1378 735 L 1274 133 L 2056 133 L 2034 0 L 1116 0 L 1161 256 C 1128 210 1092 170 1052 134 C 1012 98 969 69 925 45 C 880 21 833 2 783 -10 C 733 -22 683 -29 633 -29 C 551 -29 478 -13 412 18 C 346 50 290 94 244 151 C 198 207 163 275 139 353 C 114 431 102 517 102 610 C 102 757 123 889 166 1005 C 209 1121 266 1219 336 1299 C 406 1378 487 1439 577 1481 C 667 1523 760 1544 854 1544 C 916 1544 972 1535 1022 1518 C 1072 1501 1117 1477 1156 1446 C 1195 1414 1228 1376 1256 1331 C 1283 1286 1305 1236 1321 1182 L 1380 1516 L 2255 1516 L 2232 1380 L 1493 1380 L 1401 866 L 1948 866 L 1948 735 L 1378 735 Z" unicode="" />
<glyph horiz-adv-x="1919" d="M 1298 96 C 1373 96 1438 110 1492 140 C 1546 169 1599 209 1651 260 L 1726 168 C 1692 134 1659 106 1627 82 C 1594 58 1560 38 1525 22 C 1490 6 1452 -4 1412 -12 C 1372 -19 1327 -23 1278 -23 C 1189 -23 1113 0 1050 46 C 986 92 941 155 913 236 C 887 192 857 154 823 122 C 789 90 753 63 715 41 C 677 19 637 3 596 -7 C 554 -17 513 -23 473 -23 C 409 -23 352 -12 300 10 C 248 32 203 63 167 103 C 130 143 101 191 81 249 C 61 306 51 370 51 440 C 51 552 68 649 102 732 C 136 815 179 884 233 938 C 286 992 346 1033 413 1060 C 479 1086 545 1100 610 1100 C 703 1100 782 1076 846 1029 C 910 981 956 917 985 836 C 1013 882 1045 921 1081 955 C 1117 989 1155 1016 1193 1038 C 1231 1059 1270 1075 1308 1085 C 1346 1095 1382 1100 1415 1100 C 1495 1100 1561 1085 1615 1055 C 1669 1025 1710 985 1739 935 C 1767 885 1784 825 1790 757 C 1796 688 1792 615 1778 539 L 1774 512 L 1012 512 C 1011 499 1010 486 1010 473 C 1010 460 1010 447 1010 434 C 1010 370 1018 316 1036 272 C 1053 228 1075 194 1103 168 C 1131 142 1162 123 1196 112 C 1230 101 1264 96 1298 96 Z M 1030 625 L 1655 625 C 1661 671 1662 715 1657 759 C 1652 802 1640 840 1621 873 C 1601 905 1574 931 1539 951 C 1503 971 1459 981 1405 981 C 1365 981 1326 973 1288 958 C 1249 943 1213 921 1180 892 C 1146 862 1116 825 1090 780 C 1064 735 1044 683 1030 625 Z M 483 96 C 537 96 589 108 639 133 C 688 158 731 194 769 240 C 806 286 836 343 858 410 C 880 476 891 551 891 633 C 891 679 885 724 874 766 C 863 808 846 845 822 877 C 798 909 768 934 731 953 C 694 971 650 981 600 981 C 545 981 493 968 444 942 C 395 916 352 880 315 834 C 278 787 249 730 227 664 C 205 597 195 523 195 442 C 195 394 200 350 211 308 C 221 266 238 229 261 198 C 284 166 314 141 351 123 C 387 105 431 96 483 96 Z" unicode="" />
<glyph horiz-adv-x="1354" d="M 61 0 L 61 0 Z M 779 1608 L 686 1608 L 918 1927 L 1104 1927 L 779 1608 Z M 205 0 L 61 0 L 328 1516 L 768 1516 C 847 1516 918 1508 982 1492 C 1046 1476 1099 1453 1143 1423 C 1187 1392 1220 1353 1244 1307 C 1268 1261 1280 1207 1280 1147 C 1280 1099 1273 1050 1260 1000 C 1246 949 1223 902 1191 860 C 1158 817 1114 780 1058 749 C 1002 718 933 698 850 690 L 1104 12 L 965 -12 L 707 680 L 324 680 L 205 0 Z M 449 1382 L 348 809 L 731 809 C 784 809 835 813 884 821 C 932 829 975 844 1011 867 C 1047 890 1076 923 1098 966 C 1119 1009 1130 1065 1130 1135 C 1130 1216 1099 1277 1037 1319 C 975 1361 880 1382 752 1382 L 449 1382 Z" unicode="" />
<glyph horiz-adv-x="791" d="M 31 0 L 31 0 Z M 429 1194 L 336 1194 L 568 1513 L 754 1513 L 429 1194 Z M 172 0 L 31 0 L 221 1079 L 362 1079 L 324 866 L 328 866 C 352 896 380 925 412 953 C 444 981 478 1006 516 1028 C 553 1050 594 1067 638 1080 C 682 1093 730 1100 780 1100 L 797 1100 L 772 971 C 754 971 743 971 737 972 C 731 972 727 973 725 973 C 690 973 653 966 615 954 C 576 942 538 924 500 901 C 462 878 426 850 390 816 C 354 782 323 744 295 702 L 172 0 Z" unicode="" />
<glyph horiz-adv-x="1354" d="M 61 0 L 61 0 Z M 442 -485 L 356 -485 L 471 -100 L 643 -100 L 442 -485 Z M 205 0 L 61 0 L 328 1516 L 768 1516 C 847 1516 918 1508 982 1492 C 1046 1476 1099 1453 1143 1423 C 1187 1392 1220 1353 1244 1307 C 1268 1261 1280 1207 1280 1147 C 1280 1099 1273 1050 1260 1000 C 1246 949 1223 902 1191 860 C 1158 817 1114 780 1058 749 C 1002 718 933 698 850 690 L 1104 12 L 965 -12 L 707 680 L 324 680 L 205 0 Z M 449 1382 L 348 809 L 731 809 C 784 809 835 813 884 821 C 932 829 975 844 1011 867 C 1047 890 1076 923 1098 966 C 1119 1009 1130 1065 1130 1135 C 1130 1216 1099 1277 1037 1319 C 975 1361 880 1382 752 1382 L 449 1382 Z" unicode="" />
<glyph horiz-adv-x="791" d="M 0 0 L 0 0 Z M 8 -485 L -78 -485 L 37 -100 L 209 -100 L 8 -485 Z M 172 0 L 31 0 L 221 1079 L 362 1079 L 324 866 L 328 866 C 352 896 380 925 412 953 C 444 981 478 1006 516 1028 C 553 1050 594 1067 638 1080 C 682 1093 730 1100 780 1100 L 797 1100 L 772 971 C 754 971 743 971 737 972 C 731 972 727 973 725 973 C 690 973 653 966 615 954 C 576 942 538 924 500 901 C 462 878 426 850 390 816 C 354 782 323 744 295 702 L 172 0 Z" unicode="" />
<glyph horiz-adv-x="1354" d="M 61 0 L 61 0 Z M 878 1610 L 770 1610 L 571 1936 L 661 1936 L 847 1735 L 1103 1936 L 1189 1936 L 878 1610 Z M 205 0 L 61 0 L 328 1516 L 768 1516 C 847 1516 918 1508 982 1492 C 1046 1476 1099 1453 1143 1423 C 1187 1392 1220 1353 1244 1307 C 1268 1261 1280 1207 1280 1147 C 1280 1099 1273 1050 1260 1000 C 1246 949 1223 902 1191 860 C 1158 817 1114 780 1058 749 C 1002 718 933 698 850 690 L 1104 12 L 965 -12 L 707 680 L 324 680 L 205 0 Z M 449 1382 L 348 809 L 731 809 C 784 809 835 813 884 821 C 932 829 975 844 1011 867 C 1047 890 1076 923 1098 966 C 1119 1009 1130 1065 1130 1135 C 1130 1216 1099 1277 1037 1319 C 975 1361 880 1382 752 1382 L 449 1382 Z" unicode="" />
<glyph horiz-adv-x="791" d="M 31 0 L 31 0 Z M 528 1196 L 420 1196 L 221 1522 L 311 1522 L 497 1321 L 753 1522 L 839 1522 L 528 1196 Z M 172 0 L 31 0 L 221 1079 L 362 1079 L 324 866 L 328 866 C 352 896 380 925 412 953 C 444 981 478 1006 516 1028 C 553 1050 594 1067 638 1080 C 682 1093 730 1100 780 1100 L 797 1100 L 772 971 C 754 971 743 971 737 972 C 731 972 727 973 725 973 C 690 973 653 966 615 954 C 576 942 538 924 500 901 C 462 878 426 850 390 816 C 354 782 323 744 295 702 L 172 0 Z" unicode="" />
<glyph horiz-adv-x="1309" d="M 0 0 L 0 0 Z M 756 1608 L 663 1608 L 895 1927 L 1081 1927 L 756 1608 Z M 567 -29 C 453 -29 347 -9 250 28 C 153 66 70 126 0 207 L 90 319 C 148 249 219 195 303 157 C 387 119 480 100 580 100 C 636 100 689 106 738 118 C 786 130 828 149 864 174 C 899 199 927 231 947 270 C 967 309 977 355 977 408 C 977 503 937 573 859 617 C 781 661 695 702 602 738 C 508 774 422 818 344 870 C 266 921 227 1001 227 1110 C 227 1177 240 1238 266 1292 C 292 1346 329 1391 375 1429 C 421 1466 476 1494 539 1514 C 602 1534 670 1544 743 1544 C 838 1544 928 1526 1012 1491 C 1096 1455 1169 1401 1229 1329 L 1155 1214 C 1095 1285 1029 1336 957 1367 C 884 1397 809 1413 733 1413 C 677 1413 627 1406 583 1392 C 538 1378 500 1359 470 1335 C 439 1310 415 1280 399 1245 C 383 1210 375 1172 375 1130 C 375 1044 414 980 492 939 C 570 898 656 859 749 823 C 842 786 928 740 1006 685 C 1084 629 1124 544 1124 430 C 1124 351 1108 283 1078 225 C 1048 167 1007 119 957 82 C 906 44 847 16 779 -1 C 711 -19 641 -29 567 -29 Z" unicode="" />
<glyph horiz-adv-x="1016" d="M 0 0 L 0 0 Z M 539 1194 L 446 1194 L 678 1513 L 864 1513 L 539 1194 Z M 403 -18 C 289 -18 198 0 132 38 C 66 75 16 126 -18 190 L 102 254 C 128 209 166 172 216 142 C 265 112 330 98 412 98 C 454 97 492 100 528 108 C 563 115 593 126 618 142 C 643 158 663 178 677 204 C 691 230 698 261 698 297 C 698 359 668 404 609 432 C 549 460 484 486 414 511 C 344 536 279 568 220 606 C 160 644 131 704 131 786 C 131 833 139 876 157 915 C 175 954 199 987 231 1014 C 263 1041 301 1062 347 1077 C 393 1092 444 1100 500 1100 C 554 1100 603 1095 647 1086 C 690 1077 728 1065 761 1049 C 793 1033 822 1015 846 994 C 870 973 891 951 909 928 L 799 848 C 768 890 728 923 678 947 C 628 971 567 983 496 983 C 421 983 365 966 328 932 C 290 898 272 857 272 809 C 272 745 301 700 360 672 C 419 644 484 618 555 594 C 625 569 690 538 749 500 C 808 462 838 402 838 319 C 838 256 825 203 801 160 C 777 116 745 81 705 55 C 665 29 618 10 566 -1 C 513 -12 459 -18 403 -18 Z" unicode="" />
<glyph horiz-adv-x="1309" d="M 0 0 L 0 0 Z M 570 1610 L 484 1610 L 797 1935 L 903 1935 L 1102 1610 L 1012 1610 L 826 1811 L 570 1610 Z M 567 -29 C 453 -29 347 -9 250 28 C 153 66 70 126 0 207 L 90 319 C 148 249 219 195 303 157 C 387 119 480 100 580 100 C 636 100 689 106 738 118 C 786 130 828 149 864 174 C 899 199 927 231 947 270 C 967 309 977 355 977 408 C 977 503 937 573 859 617 C 781 661 695 702 602 738 C 508 774 422 818 344 870 C 266 921 227 1001 227 1110 C 227 1177 240 1238 266 1292 C 292 1346 329 1391 375 1429 C 421 1466 476 1494 539 1514 C 602 1534 670 1544 743 1544 C 838 1544 928 1526 1012 1491 C 1096 1455 1169 1401 1229 1329 L 1155 1214 C 1095 1285 1029 1336 957 1367 C 884 1397 809 1413 733 1413 C 677 1413 627 1406 583 1392 C 538 1378 500 1359 470 1335 C 439 1310 415 1280 399 1245 C 383 1210 375 1172 375 1130 C 375 1044 414 980 492 939 C 570 898 656 859 749 823 C 842 786 928 740 1006 685 C 1084 629 1124 544 1124 430 C 1124 351 1108 283 1078 225 C 1048 167 1007 119 957 82 C 906 44 847 16 779 -1 C 711 -19 641 -29 567 -29 Z" unicode="" />
<glyph horiz-adv-x="1016" d="M 0 0 L 0 0 Z M 342 1188 L 256 1188 L 569 1513 L 675 1513 L 874 1188 L 784 1188 L 598 1389 L 342 1188 Z M 403 -18 C 289 -18 198 0 132 38 C 66 75 16 126 -18 190 L 102 254 C 128 209 166 172 216 142 C 265 112 330 98 412 98 C 454 97 492 100 528 108 C 563 115 593 126 618 142 C 643 158 663 178 677 204 C 691 230 698 261 698 297 C 698 359 668 404 609 432 C 549 460 484 486 414 511 C 344 536 279 568 220 606 C 160 644 131 704 131 786 C 131 833 139 876 157 915 C 175 954 199 987 231 1014 C 263 1041 301 1062 347 1077 C 393 1092 444 1100 500 1100 C 554 1100 603 1095 647 1086 C 690 1077 728 1065 761 1049 C 793 1033 822 1015 846 994 C 870 973 891 951 909 928 L 799 848 C 768 890 728 923 678 947 C 628 971 567 983 496 983 C 421 983 365 966 328 932 C 290 898 272 857 272 809 C 272 745 301 700 360 672 C 419 644 484 618 555 594 C 625 569 690 538 749 500 C 808 462 838 402 838 319 C 838 256 825 203 801 160 C 777 116 745 81 705 55 C 665 29 618 10 566 -1 C 513 -12 459 -18 403 -18 Z" unicode="" />
<glyph horiz-adv-x="1309" d="M 0 0 L 0 0 Z M 567 -29 C 453 -29 347 -9 250 28 C 153 66 70 126 0 207 L 90 319 C 148 249 219 195 303 157 C 387 119 480 100 580 100 C 636 100 689 106 738 118 C 786 130 828 149 864 174 C 899 199 927 231 947 270 C 967 309 977 355 977 408 C 977 503 937 573 859 617 C 781 661 695 702 602 738 C 508 774 422 818 344 870 C 266 921 227 1001 227 1110 C 227 1177 240 1238 266 1292 C 292 1346 329 1391 375 1429 C 421 1466 476 1494 539 1514 C 602 1534 670 1544 743 1544 C 838 1544 928 1526 1012 1491 C 1096 1455 1169 1401 1229 1329 L 1155 1214 C 1095 1285 1029 1336 957 1367 C 884 1397 809 1413 733 1413 C 677 1413 627 1406 583 1392 C 538 1378 500 1359 470 1335 C 439 1310 415 1280 399 1245 C 383 1210 375 1172 375 1130 C 375 1044 414 980 492 939 C 570 898 656 859 749 823 C 842 786 928 740 1006 685 C 1084 629 1124 544 1124 430 C 1124 351 1108 283 1078 225 C 1048 167 1007 119 957 82 C 906 44 847 16 779 -1 C 711 -19 641 -29 567 -29 Z M 478 -399 C 420 -399 371 -392 331 -379 C 291 -365 255 -347 224 -324 L 273 -264 C 299 -284 328 -300 358 -310 C 388 -320 424 -326 467 -326 C 514 -326 550 -317 574 -300 C 598 -282 611 -255 611 -219 C 611 -200 604 -185 592 -173 C 580 -161 561 -156 537 -156 C 521 -156 505 -159 487 -167 C 469 -174 453 -184 439 -197 L 388 -170 L 469 0 L 556 0 L 504 -113 C 515 -103 529 -96 546 -90 C 563 -84 581 -82 601 -82 C 635 -82 664 -93 688 -116 C 712 -138 725 -169 725 -207 C 725 -245 717 -276 702 -301 C 687 -326 668 -346 644 -360 C 620 -374 594 -384 565 -390 C 535 -396 506 -399 478 -399 Z" unicode="" />
<glyph horiz-adv-x="1016" d="M 0 0 L 0 0 Z M 403 -18 C 289 -18 198 0 132 38 C 66 75 16 126 -18 190 L 102 254 C 128 209 166 172 216 142 C 265 112 330 98 412 98 C 454 97 492 100 528 108 C 563 115 593 126 618 142 C 643 158 663 178 677 204 C 691 230 698 261 698 297 C 698 359 668 404 609 432 C 549 460 484 486 414 511 C 344 536 279 568 220 606 C 160 644 131 704 131 786 C 131 833 139 876 157 915 C 175 954 199 987 231 1014 C 263 1041 301 1062 347 1077 C 393 1092 444 1100 500 1100 C 554 1100 603 1095 647 1086 C 690 1077 728 1065 761 1049 C 793 1033 822 1015 846 994 C 870 973 891 951 909 928 L 799 848 C 768 890 728 923 678 947 C 628 971 567 983 496 983 C 421 983 365 966 328 932 C 290 898 272 857 272 809 C 272 745 301 700 360 672 C 419 644 484 618 555 594 C 625 569 690 538 749 500 C 808 462 838 402 838 319 C 838 256 825 203 801 160 C 777 116 745 81 705 55 C 665 29 618 10 566 -1 C 513 -12 459 -18 403 -18 Z M 332 -399 C 274 -399 225 -392 185 -379 C 145 -365 109 -347 78 -324 L 127 -264 C 153 -284 182 -300 212 -310 C 242 -320 278 -326 321 -326 C 368 -326 404 -317 428 -300 C 452 -282 465 -255 465 -219 C 465 -200 458 -185 446 -173 C 434 -161 415 -156 391 -156 C 375 -156 359 -159 341 -167 C 323 -174 307 -184 293 -197 L 242 -170 L 323 0 L 410 0 L 358 -113 C 369 -103 383 -96 400 -90 C 417 -84 435 -82 455 -82 C 489 -82 518 -93 542 -116 C 566 -138 579 -169 579 -207 C 579 -245 571 -276 556 -301 C 541 -326 522 -346 498 -360 C 474 -374 448 -384 419 -390 C 389 -396 360 -399 332 -399 Z" unicode="" />
<glyph horiz-adv-x="1309" d="M 0 0 L 0 0 Z M 856 1620 L 748 1620 L 549 1946 L 639 1946 L 825 1745 L 1081 1946 L 1167 1946 L 856 1620 Z M 567 -29 C 453 -29 347 -9 250 28 C 153 66 70 126 0 207 L 90 319 C 148 249 219 195 303 157 C 387 119 480 100 580 100 C 636 100 689 106 738 118 C 786 130 828 149 864 174 C 899 199 927 231 947 270 C 967 309 977 355 977 408 C 977 503 937 573 859 617 C 781 661 695 702 602 738 C 508 774 422 818 344 870 C 266 921 227 1001 227 1110 C 227 1177 240 1238 266 1292 C 292 1346 329 1391 375 1429 C 421 1466 476 1494 539 1514 C 602 1534 670 1544 743 1544 C 838 1544 928 1526 1012 1491 C 1096 1455 1169 1401 1229 1329 L 1155 1214 C 1095 1285 1029 1336 957 1367 C 884 1397 809 1413 733 1413 C 677 1413 627 1406 583 1392 C 538 1378 500 1359 470 1335 C 439 1310 415 1280 399 1245 C 383 1210 375 1172 375 1130 C 375 1044 414 980 492 939 C 570 898 656 859 749 823 C 842 786 928 740 1006 685 C 1084 629 1124 544 1124 430 C 1124 351 1108 283 1078 225 C 1048 167 1007 119 957 82 C 906 44 847 16 779 -1 C 711 -19 641 -29 567 -29 Z" unicode="" />
<glyph horiz-adv-x="1016" d="M 0 0 L 0 0 Z M 641 1196 L 533 1196 L 334 1522 L 424 1522 L 610 1321 L 866 1522 L 952 1522 L 641 1196 Z M 403 -18 C 289 -18 198 0 132 38 C 66 75 16 126 -18 190 L 102 254 C 128 209 166 172 216 142 C 265 112 330 98 412 98 C 454 97 492 100 528 108 C 563 115 593 126 618 142 C 643 158 663 178 677 204 C 691 230 698 261 698 297 C 698 359 668 404 609 432 C 549 460 484 486 414 511 C 344 536 279 568 220 606 C 160 644 131 704 131 786 C 131 833 139 876 157 915 C 175 954 199 987 231 1014 C 263 1041 301 1062 347 1077 C 393 1092 444 1100 500 1100 C 554 1100 603 1095 647 1086 C 690 1077 728 1065 761 1049 C 793 1033 822 1015 846 994 C 870 973 891 951 909 928 L 799 848 C 768 890 728 923 678 947 C 628 971 567 983 496 983 C 421 983 365 966 328 932 C 290 898 272 857 272 809 C 272 745 301 700 360 672 C 419 644 484 618 555 594 C 625 569 690 538 749 500 C 808 462 838 402 838 319 C 838 256 825 203 801 160 C 777 116 745 81 705 55 C 665 29 618 10 566 -1 C 513 -12 459 -18 403 -18 Z" unicode="" />
<glyph horiz-adv-x="1243" d="M 180 0 L 180 0 Z M 825 1610 L 717 1610 L 518 1936 L 608 1936 L 794 1735 L 1050 1936 L 1136 1936 L 825 1610 Z M 561 0 L 416 0 L 657 1380 L 180 1380 L 203 1516 L 1294 1516 L 1294 1380 L 803 1380 L 561 0 Z" unicode="" />
<glyph horiz-adv-x="729" d="M 676 1251 L 590 1251 L 702 1632 L 874 1632 L 676 1251 Z M 504 1479 L 436 1079 L 698 1079 L 676 958 L 414 958 L 295 289 C 289 257 285 230 285 207 C 285 183 289 164 298 149 C 306 134 321 123 341 115 C 361 107 388 104 424 104 C 439 104 456 105 475 108 C 494 110 511 114 526 119 L 526 0 C 518 -2 509 -3 497 -5 C 485 -7 473 -8 460 -10 C 447 -11 434 -12 421 -13 C 408 -13 397 -14 387 -14 C 331 -14 286 -7 252 5 C 217 17 191 36 173 61 C 155 85 145 116 143 152 C 141 188 144 230 152 276 L 272 958 L 86 958 L 106 1079 L 295 1079 L 358 1454 L 504 1479 Z" unicode="" />
<glyph horiz-adv-x="1243" d="M 1161 696 L 683 696 L 561 0 L 416 0 L 538 696 L 59 696 L 82 819 L 559 819 L 657 1380 L 180 1380 L 203 1516 L 1294 1516 L 1294 1380 L 803 1380 L 705 819 L 1184 819 L 1161 696 Z" unicode="" />
<glyph horiz-adv-x="729" d="M 526 0 C 518 -2 509 -3 497 -5 C 485 -7 473 -8 460 -10 C 447 -11 434 -12 421 -13 C 408 -13 397 -14 387 -14 C 331 -14 286 -7 252 5 C 217 17 191 36 173 61 C 155 85 145 116 143 152 C 141 188 144 230 152 276 L 193 510 L 6 510 L 27 621 L 213 621 L 272 958 L 86 958 L 106 1079 L 295 1079 L 358 1454 L 504 1479 L 436 1079 L 698 1079 L 676 958 L 414 958 L 354 621 L 618 621 L 598 510 L 334 510 L 295 289 C 289 257 285 230 285 207 C 285 183 289 164 298 149 C 306 134 321 123 341 115 C 361 107 388 104 424 104 C 439 104 456 105 475 108 C 494 110 511 114 526 119 L 526 0 Z" unicode="" />
<glyph horiz-adv-x="1444" d="M 134 0 L 134 0 Z M 629 -29 C 524 -29 437 -12 369 19 C 300 51 247 94 210 148 C 172 202 149 264 140 336 C 130 407 133 481 147 559 L 313 1516 L 459 1516 L 293 553 C 281 491 278 432 284 378 C 289 323 304 275 330 235 C 356 195 393 163 442 139 C 491 115 553 104 629 104 C 758 104 859 136 931 200 C 1003 264 1049 359 1071 485 L 1251 1516 L 1397 1516 L 1210 459 C 1183 303 1120 182 1021 98 C 921 13 791 -29 629 -29 Z M 745 1839 C 772 1839 799 1833 825 1821 C 851 1809 875 1796 899 1782 C 922 1768 944 1755 964 1743 C 984 1731 1003 1725 1019 1725 C 1049 1725 1073 1733 1090 1751 C 1106 1768 1118 1798 1124 1841 L 1220 1829 C 1209 1754 1187 1699 1153 1663 C 1119 1627 1074 1610 1019 1610 C 993 1610 967 1616 942 1628 C 916 1640 892 1653 869 1667 C 845 1681 823 1695 802 1707 C 780 1719 761 1725 743 1725 C 713 1725 690 1716 674 1698 C 657 1680 645 1650 638 1608 L 542 1620 C 553 1695 576 1750 610 1786 C 644 1821 689 1839 745 1839 Z" unicode="" />
<glyph horiz-adv-x="1165" d="M 70 0 L 70 0 Z M 360 -23 C 301 -23 252 -14 212 2 C 172 18 140 42 118 72 C 95 102 80 137 74 179 C 68 221 69 267 78 317 L 211 1079 L 352 1079 L 221 334 C 208 258 216 200 245 159 C 274 118 330 98 414 98 C 472 98 533 115 595 150 C 657 184 718 229 778 285 L 918 1079 L 1059 1079 L 868 0 L 743 0 L 758 172 C 735 148 708 124 677 101 C 646 77 613 56 579 38 C 544 20 508 5 470 -6 C 432 -17 396 -23 360 -23 Z M 535 1417 C 562 1417 589 1411 615 1399 C 641 1387 665 1374 689 1360 C 712 1346 734 1333 754 1321 C 774 1309 793 1303 809 1303 C 839 1303 863 1311 880 1329 C 896 1346 908 1376 914 1419 L 1010 1407 C 999 1332 977 1277 943 1241 C 909 1205 864 1188 809 1188 C 783 1188 757 1194 732 1206 C 706 1218 682 1231 659 1245 C 635 1259 613 1273 592 1285 C 570 1297 551 1303 533 1303 C 503 1303 480 1294 464 1276 C 447 1258 435 1228 428 1186 L 332 1198 C 343 1273 366 1328 400 1364 C 434 1399 479 1417 535 1417 Z" unicode="" />
</font>
</defs>
</svg>
